<svg id="Group_869" data-name="Group 869" xmlns="http://www.w3.org/2000/svg" width="27.939" height="42.555" viewBox="0 0 27.939 42.555">
  <path id="Path_335" data-name="Path 335" d="M-1265.643-1318.835q0,9.131,0,18.262a2.742,2.742,0,0,1-1.368,2.558,2.664,2.664,0,0,1-4-2.3c-.054-2.533-.021-5.067-.01-7.6a.984.984,0,0,1,1.016-1.077.97.97,0,0,1,.991,1.094c.011,2.375,0,4.749.007,7.123,0,.19-.046.427.047.56a1.229,1.229,0,0,0,.6.5c.323.087.574-.137.658-.473a2.2,2.2,0,0,0,.043-.521q0-18.118,0-36.236c0-.063,0-.128,0-.191-.024-.6-.306-.966-.792-1.022a.914.914,0,0,0-1.037.768q-1.14,3.79-2.269,7.585-1.749,5.849-3.5,11.7c-.239.8-.1,1.117.636,1.5,1.655.867,3.312,1.729,4.964,2.6a.971.971,0,0,1,.546,1.3.969.969,0,0,1-1.452.48c-1.213-.618-2.418-1.251-3.626-1.878-.506-.263-1.014-.521-1.516-.792a2.936,2.936,0,0,1-1.5-3.55q2.889-9.814,5.805-19.62a2.942,2.942,0,0,1,3.309-2.1,2.939,2.939,0,0,1,2.446,3.017Q-1265.636-1327.99-1265.643-1318.835Z" transform="translate(1293.58 1340.203)"/>
  <path id="Path_336" data-name="Path 336" d="M-1883.905-1309.282c0-2.662.006-5.323,0-7.985a4.539,4.539,0,0,1,1.909-3.906c.447-.328.878-.679,1.312-1.027a2.4,2.4,0,0,0,.907-2.284q-.876-7.4-1.756-14.8a1.055,1.055,0,0,1,.855-1.313c.62-.079,1.069.3,1.16,1.033.312,2.561.606,5.124.907,7.686.269,2.293.514,4.59.811,6.879a4.581,4.581,0,0,1-1.875,4.6c-.37.274-.72.574-1.1.838a2.512,2.512,0,0,0-1.111,2.244c.021,1.721.006,3.442.006,5.164q0,5.57,0,11.141a2.736,2.736,0,0,1-1.422,2.62,2.672,2.672,0,0,1-3.949-2.39c-.019-2.965-.005-5.929-.005-8.893,0-1.9,0-3.793,0-5.69a.989.989,0,0,1,1.019-1.118.947.947,0,0,1,.977.9c.015.174.01.351.01.526q0,6.933,0,13.866a2.437,2.437,0,0,0,.023.524.627.627,0,0,0,.708.559.608.608,0,0,0,.6-.619c.014-.159.01-.318.01-.477Q-1883.9-1305.242-1883.905-1309.282Z" transform="translate(1891.364 1340.609)"/>
  <path id="Path_337" data-name="Path 337" d="M-2093.578-1322.963c.159-1.365.345-2.978.536-4.59q.6-5.052,1.2-10.1c.021-.173.039-.348.072-.52a.99.99,0,0,1,1.141-.884,1,1,0,0,1,.819,1.157c-.15,1.345-.314,2.688-.473,4.032-.393,3.335-.713,6.682-1.209,10a3.367,3.367,0,0,0,1.614,3.773,6.591,6.591,0,0,1,.853.685,1.014,1.014,0,0,1,.16,1.412.939.939,0,0,1-1.357.151,24.367,24.367,0,0,1-2.092-1.724A4.337,4.337,0,0,1-2093.578-1322.963Z" transform="translate(2093.578 1339.102)"/>
  <path id="Path_338" data-name="Path 338" d="M-1800.278-1332.573q0,3.2,0,6.405a1.036,1.036,0,0,1-.7,1.119.979.979,0,0,1-1.3-.975c-.018-1.307-.008-2.613-.008-3.92q0-4.541,0-9.082c0-.746.385-1.17,1.021-1.157.61.013.983.44.984,1.157Q-1800.273-1335.8-1800.278-1332.573Z" transform="translate(1808.083 1340.192)"/>
</svg>
