<svg xmlns="http://www.w3.org/2000/svg" width="42.315" height="34.528" viewBox="0 0 42.315 34.528">
  <path id="Path_334" data-name="Path 334" d="M-5719.089-5487.642c0,1.282,0,2.517,0,3.754,0,.975-.493,1.519-1.353,1.506-.818-.014-1.291-.552-1.291-1.5q0-14.424,0-28.851c0-.937.477-1.482,1.3-1.491.854-.012,1.345.532,1.345,1.508q0,5.474,0,10.944v.768h9.219v-5.262h-.612c-1.52,0-3.04.005-4.562,0a1.3,1.3,0,0,1-1.335-1.775c.85-2.645,1.731-5.278,2.618-7.911a1.3,1.3,0,0,1,1.365-.931q3.9.018,7.8,0a1.294,1.294,0,0,1,1.347.957c.874,2.613,1.749,5.227,2.595,7.848a1.3,1.3,0,0,1-1.353,1.811c-1.695.006-3.391,0-5.131,0v5.307h26.083c1.215,0,1.634.416,1.634,1.621q0,7.761,0,15.521a1.289,1.289,0,0,1-.788,1.326,1.182,1.182,0,0,1-1.454-.264,1.9,1.9,0,0,1-.39-1.069c-.046-1.257-.019-2.515-.019-3.821Zm36.992-10.616h-36.937v7.881h36.938Zm-31.146-10.722h9.466c-.6-1.792-1.172-3.516-1.748-5.242-1.91,0-3.755-.007-5.6.008a.56.56,0,0,0-.436.247C-5712.139-5512.311-5712.689-5510.642-5713.243-5508.98Z" transform="translate(5721.733 5516.882)" fill="#272520"/>
</svg>
