<svg id="Group_862" data-name="Group 862" xmlns="http://www.w3.org/2000/svg" width="45.063" height="43.149" viewBox="0 0 45.063 43.149">
  <path id="Path_329" data-name="Path 329" d="M1298.769,4306.005c-.934,0-1.74-.018-2.544.014a.847.847,0,0,0-.461.3c-1.107,1.166-2.2,2.343-3.305,3.515a2.962,2.962,0,0,1-3.458,1.012c-1.214-.483-1.815-1.523-1.8-3.188-.95-.289-1.921-.588-2.894-.878-1.926-.579-3.854-1.15-5.779-1.729-.612-.185-.906-.546-.877-1.037.04-.68.644-1.034,1.41-.809,1.539.454,3.076.921,4.612,1.383,1.335.4,2.672.792,4,1.217a.743.743,0,0,0,.912-.23c1.163-1.284,2.383-2.514,3.54-3.8a4.389,4.389,0,0,1,3.591-1.565c2.826.07,5.654.02,8.482.021a7.467,7.467,0,0,1,3.489.742,4.19,4.19,0,0,1,2.5,4.079,5.29,5.29,0,0,1-1.993,3.441c-1.5,1.338-2.963,2.725-4.471,4.119.158.174.266.3.384.422q2.023,2.024,4.05,4.047a4.279,4.279,0,0,1,1.342,3.383c-.082,1.747-.1,3.5-.16,5.246-.025.755-.081,1.51-.128,2.339h12.134a3.175,3.175,0,0,1,.633.037.939.939,0,0,1,.119,1.8,2.1,2.1,0,0,1-.679.081q-13.571.006-27.143,0a2.119,2.119,0,0,1-.628-.067.871.871,0,0,1-.647-.972.859.859,0,0,1,.741-.844,3.372,3.372,0,0,1,.633-.033h9.157c0-2.363-.005-4.656.006-6.948a1.051,1.051,0,0,0-.332-.836c-1.187-1.16-2.353-2.343-3.644-3.636a3.876,3.876,0,0,1-.379.545q-5.764,5.895-11.534,11.781a3.406,3.406,0,0,1-2.091,1.1c.335.116.542.2.754.26l20.935,6.277a4.492,4.492,0,0,1,.453.146.955.955,0,1,1-.6,1.813c-1.3-.377-2.6-.775-3.9-1.167q-12.29-3.686-24.576-7.39a1.473,1.473,0,0,1-.845-.615,1.211,1.211,0,0,1,.11-.965.865.865,0,0,1,1.087-.3c1.117.331,2.229.673,3.345,1.007.384.115.77.223,1.009.292a9.588,9.588,0,0,1-.778-1.775,2.725,2.725,0,0,1,.872-2.594q3.427-3.47,6.831-6.964a5.026,5.026,0,0,0,.675-.875c.646-1.053,1.314-2.1,1.893-3.187a34.455,34.455,0,0,1,5.5-7.487C1298.44,4306.4,1298.55,4306.26,1298.769,4306.005Z" transform="translate(-1277.648 -4295.446)"/>
  <path id="Path_330" data-name="Path 330" d="M3664.606,3961.729a4.791,4.791,0,1,1,4.91-4.616A4.8,4.8,0,0,1,3664.606,3961.729Z" transform="translate(-3627.331 -3952.147)"/>
</svg>
