<svg id="Group_860" data-name="Group 860" xmlns="http://www.w3.org/2000/svg" width="39.024" height="45.029" viewBox="0 0 39.024 45.029">
  <path id="Path_320" data-name="Path 320" d="M-3612.976,5388.333c1.008,1.619,2,3.209,2.986,4.8a3.933,3.933,0,0,1,.293.53,1.422,1.422,0,0,1-1.466,2.127,4.639,4.639,0,0,1-4.124-2.687c-1.266-2.65-2.48-5.322-3.714-7.987q-.826-1.772-1.649-3.549c-.178-.384-.1-.507.325-.53.713-.042,1.427-.078,2.139-.136a.8.8,0,0,1,.823.391c.436.713.877,1.423,1.292,2.147a.425.425,0,0,1-.067.393c-.314.314-.66.6-1.042.932.187.3.38.613.588.95.383-.356.743-.677,1.087-1.013,1.82-1.777,3.634-3.562,5.459-5.337a.825.825,0,0,0,.292-.663c-.054-2.265-.1-4.531-.14-6.795a7.421,7.421,0,0,1,.6-2.992c.954-2.312,1.892-4.633,2.938-6.9,1.131-2.455,3.564-3.063,5.974-1.588,2.184,1.336,4.361,2.681,6.547,4.012a1.283,1.283,0,0,0,.561.172c1.373.09,2.746.159,4.119.244a.474.474,0,0,0,.5-.243c.3-.477.64-.932.975-1.389a1.306,1.306,0,0,1,1.822-.341,1.309,1.309,0,0,1,.346,1.792c-.127.207-.27.4-.417.618a1.721,1.721,0,0,1,.51,2.245,1.645,1.645,0,0,1-1.432,1.037,1.459,1.459,0,0,1-.238.04,2.27,2.27,0,0,0-2.108,1.285c-1.925,2.844-3.923,5.642-5.9,8.451a.534.534,0,0,0-.065.617,2.644,2.644,0,0,1,.191.778c.205,1.656.4,3.312.6,4.967.19,1.563.385,3.125.586,4.75.725-.041,1.447-.076,2.167-.119,1.455-.086,2.907-.187,4.361-.263a1.7,1.7,0,0,1,1.754.906,1.471,1.471,0,0,1-.151,1.4,4.768,4.768,0,0,1-4.474,2.454c-3.339-.17-6.676-.388-10.013-.59-1-.061-1.992-.121-2.986-.2-.439-.034-.492-.142-.307-.538.317-.686.615-1.379.969-2.044a.95.95,0,0,1,.57-.49c.88-.105,1.77-.133,2.681-.19.078.319.141.621.235.912a.344.344,0,0,0,.227.209c.318.023.641.008,1.007.008-.583-2.1-1.152-4.157-1.741-6.281-.234.327-.431.6-.622.87q-2.158,3.078-4.316,6.158a1.387,1.387,0,0,1-1.515.6,1.232,1.232,0,0,1-.925-1.064,1.479,1.479,0,0,1,.352-1.123q2.893-4.119,5.781-8.242c.1-.143.2-.289.325-.467-.51-.458-1.024-.908-1.52-1.375a.483.483,0,0,1-.152-.363c.323-1.966.665-3.929,1.016-5.973,1.271,1.1,2.5,2.176,3.768,3.279,1.772-2.526,3.532-5.035,5.345-7.62-.813.082-1.545.126-2.265.237a2.207,2.207,0,0,1-1.359-.257q-2.3-1.137-4.6-2.28c-.105-.052-.22-.087-.35-.138-.788,1.641-1.621,3.24-2.32,4.9a10.408,10.408,0,0,0-.433,2.255c-.42,2.426-.828,4.856-1.264,7.281a2.388,2.388,0,0,1-.991,1.521q-3.612,2.661-7.221,5.33C-3612.828,5388.2-3612.886,5388.254-3612.976,5388.333Z" transform="translate(3624.245 -5350.766)" fill="#272520"/>
  <path id="Path_321" data-name="Path 321" d="M-2697.405,4920.637a4.465,4.465,0,0,1-4.476,4.5,4.5,4.5,0,0,1-4.514-4.481,4.518,4.518,0,0,1,4.494-4.506A4.486,4.486,0,0,1-2697.405,4920.637Z" transform="translate(2728.169 -4916.151)" fill="#272520"/>
  <path id="Path_322" data-name="Path 322" d="M-3794.681,6636.581a1.46,1.46,0,0,1,1.449,1.438,1.455,1.455,0,0,1-1.44,1.444,1.442,1.442,0,0,1-1.459-1.46A1.438,1.438,0,0,1-3794.681,6636.581Z" transform="translate(3796.132 -6602.207)" fill="#272520"/>
  <path id="Path_323" data-name="Path 323" d="M-3755.887,6404.594a1.033,1.033,0,0,1,1.027-1.021,1,1,0,0,1,1,.956,1.022,1.022,0,0,1-1.093,1.118A.977.977,0,0,1-3755.887,6404.594Z" transform="translate(3756.691 -6373.854)" fill="#272520"/>
</svg>
