<svg id="Group_859" data-name="Group 859" xmlns="http://www.w3.org/2000/svg" width="43.182" height="41.483" viewBox="0 0 43.182 41.483">
  <path id="Path_318" data-name="Path 318" d="M-3600.538,2902.892c-.135,1.168-.254,2.192-.373,3.214-.125,1.063-.223,2.129-.385,3.186-.077.508.08.731.556.917,1.991.777,3.98,1.566,5.94,2.418a9.433,9.433,0,0,1,3.145,2.172,3.645,3.645,0,0,1,1.133,2.53,2.287,2.287,0,0,1-1.56,2.375,11.643,11.643,0,0,1-4.828.549,26.226,26.226,0,0,1-8.415-2.115,31.058,31.058,0,0,0-6.91-1.981c-.826-.112-1.658-.172-2.487-.257-.015.051-.03.1-.045.149.312.13.614.29.935.389,1.474.453,2.961.866,4.428,1.338a5.021,5.021,0,0,1,2.279,1.417l-1.621.256c-1.951.311-3.9.677-5.855.917a17.1,17.1,0,0,1-6.428-.05,5.818,5.818,0,0,1-1.458-.579,2.673,2.673,0,0,1-.816-4.106,8.01,8.01,0,0,1,2.85-2.3c1.956-.986,3.952-1.9,5.935-2.827,1.24-.582,1.254-.575,1.026-1.9-.312-1.812-.641-3.62-.979-5.52-.145.154-.245.24-.323.344a6.053,6.053,0,0,0-.455.644c-1.6,2.812-4.284,4.213-7.076,5.468a16.69,16.69,0,0,1-4.656,1.444,3.746,3.746,0,0,1-.735.032,1.452,1.452,0,0,1-1.442-1.021,1.585,1.585,0,0,1,.78-1.705c1.056-.551,2.15-1.031,3.226-1.543,1.3-.618,2.609-1.211,3.89-1.864a5.7,5.7,0,0,0,2.4-2.362c1.106-1.99,2.159-4.009,3.264-6a10.455,10.455,0,0,1,2.358-2.944,4.97,4.97,0,0,1,3.112-1.265c1.734-.047,3.477-.083,5.206.02a5.9,5.9,0,0,1,4.771,2.981c.848,1.35,1.582,2.769,2.381,4.149.667,1.152,1.31,2.322,2.045,3.428,1.31,1.971,3.343,2.939,5.459,3.759.85.328,1.715.621,2.57.937a6.316,6.316,0,0,1,.771.337,1.517,1.517,0,0,1,.841,1.838,1.466,1.466,0,0,1-1.692,1.095,20.886,20.886,0,0,1-2.914-.66,28.337,28.337,0,0,1-5.758-2.686,11.6,11.6,0,0,1-3.308-3.548C-3599.989,2903.645-3600.221,2903.325-3600.538,2902.892Z" transform="translate(3629.196 -2879.169)" fill="#272520"/>
  <path id="Path_319" data-name="Path 319" d="M-3038,2415.544a5.962,5.962,0,0,1-5.962-6.119,5.941,5.941,0,0,1,6.029-5.862,5.942,5.942,0,0,1,5.977,6.142A5.991,5.991,0,0,1-3038,2415.544Z" transform="translate(3059.651 -2403.563)" fill="#272520"/>
</svg>
