<svg xmlns="http://www.w3.org/2000/svg" width="41.389" height="40.99" viewBox="0 0 41.389 40.99">
  <path id="Path_316" data-name="Path 316" d="M40.16,33.894l-1.715-1.7a4.241,4.241,0,0,0-4.972-.717l-4.211-4.171a43.656,43.656,0,0,0,7.294-9.937A43.136,43.136,0,0,0,41.379,1.576,1.194,1.194,0,0,0,41.031.6L40.789.361A1.22,1.22,0,0,0,39.8.016a43.79,43.79,0,0,0-25.981,12l-4.2-4.164A4.14,4.14,0,0,0,8.887,2.94l-1.715-1.7a4.241,4.241,0,0,0-5.945,0,4.143,4.143,0,0,0,0,5.887l1.715,1.7a4.243,4.243,0,0,0,4.96.724l4.221,4.18q-.2.217-.405.436A46.582,46.582,0,0,0,3.684,26.3,42.552,42.552,0,0,0,.008,39.428a1.194,1.194,0,0,0,.348.976l.242.239A1.218,1.218,0,0,0,1.456,41a1.231,1.231,0,0,0,.128-.007,43.612,43.612,0,0,0,13.253-3.64A47.118,47.118,0,0,0,27.09,29.391q.222-.2.44-.4l4.233,4.192a4.14,4.14,0,0,0,.737,4.9l1.715,1.7a4.237,4.237,0,0,0,5.944,0,4.14,4.14,0,0,0,0-5.887ZM38.818,2.552A40.708,40.708,0,0,1,27.6,25.658l-2.453-2.43,2.3-2.274a5.02,5.02,0,0,0,0-7.133,5.139,5.139,0,0,0-7.2,0l-2.3,2.274-2.453-2.43A41.418,41.418,0,0,1,38.818,2.552ZM19.655,17.794l2.3-2.274a2.7,2.7,0,0,1,3.772,0,2.635,2.635,0,0,1,0,3.736l-2.3,2.274Zm2.058,5.434-2.266,2.244a2.7,2.7,0,0,1-3.772,0,2.635,2.635,0,0,1,0-3.736l2.266-2.244ZM4.657,7.129l-1.715-1.7a1.758,1.758,0,0,1,0-2.491,1.8,1.8,0,0,1,2.515,0l1.715,1.7a1.751,1.751,0,0,1,0,2.491A1.793,1.793,0,0,1,4.657,7.129ZM2.573,38.449a43.036,43.036,0,0,1,11.215-23.07l2.439,2.415-2.266,2.244a5.015,5.015,0,0,0,0,7.133,5.139,5.139,0,0,0,7.2,0l2.266-2.244,2.439,2.415A43.8,43.8,0,0,1,2.573,38.449Zm35.872-.366a1.793,1.793,0,0,1-2.515,0l-1.715-1.7a1.751,1.751,0,0,1,0-2.491l-.226-.223.226.223a1.793,1.793,0,0,1,2.515,0l1.715,1.7A1.751,1.751,0,0,1,38.445,38.083Z" transform="translate(0 -0.009)" fill="#272520"/>
</svg>
