<svg id="Group_861" data-name="Group 861" xmlns="http://www.w3.org/2000/svg" width="38.636" height="36.614" viewBox="0 0 38.636 36.614">
  <path id="Path_324" data-name="Path 324" d="M-4240.313-625.187h-2.682c-.1-.159-.2-.241-.193-.32.161-6.122.225-12.249.55-18.363.121-2.284.917-4.525,1.273-6.806a17.636,17.636,0,0,0,.169-4.05,4.486,4.486,0,0,0-3.112-3.913,4.08,4.08,0,0,0-4.353.856,2.328,2.328,0,0,0-.808,2.831,2.867,2.867,0,0,0,2.771,1.96c1.229.006,1.718-.8,1.226-1.9a.452.452,0,0,0-.139-.025,8.09,8.09,0,0,1-2.189.266c-.259-.035-.71-1.086-.55-1.326a4.415,4.415,0,0,1,1.837-1.768c2.205-.816,4.619,1.4,4.28,3.785a4.551,4.551,0,0,1-5.687,3.741,6.005,6.005,0,0,1-4.621-5.643c0-2.491,2.081-4.914,4.866-5.665a7.513,7.513,0,0,1,9.4,7.733c-.061,2.835-.837,5.65-1.21,8.485-.333,2.529-.71,5.068-.789,7.612C-4240.41-633.582-4240.313-629.46-4240.313-625.187Z" transform="translate(4261.076 661.789)" fill="#272520"/>
  <path id="Path_325" data-name="Path 325" d="M-3611.446-251.075c-.982-6.994-1.146-13.808,1.2-20.422a23.04,23.04,0,0,1,2.983-5.541,7.372,7.372,0,0,1,9.6-1.963c2.976,1.672,3.636,5.475,1.532,8.843a5.376,5.376,0,0,1-7.582,1.158,3.571,3.571,0,0,1-1.6-3.794c.36-1.734,1.737-3.3,3.279-3.309a4.337,4.337,0,0,1,2.723,1.127,1.672,1.672,0,0,1,.057,2.654c-1.107.862-1.842.11-2.664-1.332-.2.961-.593,1.7-.375,2.009a2.169,2.169,0,0,0,2.825.7,3.217,3.217,0,0,0,1.71-3.141,2.669,2.669,0,0,0-1.7-2.618,4.659,4.659,0,0,0-5.838,1.751,21.518,21.518,0,0,0-3.775,12.2c-.105,3.854.117,7.717.2,11.675Z" transform="translate(3633.546 287.662)" fill="#272520"/>
  <path id="Path_326" data-name="Path 326" d="M-4660.022-93.461h-2.891c.141-2.862.373-5.655.4-8.449a19.57,19.57,0,0,0-3.881-12.281,4.646,4.646,0,0,0-5.014-1.969c-1.271.275-2.416.984-2.391,2.346a6.077,6.077,0,0,0,1.07,3.234,2.023,2.023,0,0,0,3.166-.034c.3-.353.131-1.109.186-1.778-.507.1-.642.081-.677.134-.59.858-1.293,1.581-2.336.778-.963-.74-.6-1.721-.1-2.581a2.907,2.907,0,0,1,4.105-.846,4.009,4.009,0,0,1-.126,7.046,5.234,5.234,0,0,1-7.626-2.6c-1.253-3.278-.462-6.225,2.064-7.705a7.551,7.551,0,0,1,9.461,1.623,22.35,22.35,0,0,1,4.961,13.938C-4659.558-99.608-4659.881-96.6-4660.022-93.461Z" transform="translate(4676.722 130.076)" fill="#272520"/>
</svg>
