<svg xmlns="http://www.w3.org/2000/svg" version="1.1" xmlns:xlink="http://www.w3.org/1999/xlink" xmlns:svgjs="http://svgjs.com/svgjs" width="1000" height="1000"><rect width="1000" height="1000" rx="250" ry="250" fill="#fffafa"></rect><g transform="matrix(2.4324324324324325,0,0,2.4324324324324325,49.730592444136335,128.2027027027027)"><svg xmlns="http://www.w3.org/2000/svg" version="1.1" xmlns:xlink="http://www.w3.org/1999/xlink" xmlns:svgjs="http://svgjs.com/svgjs" width="370" height="311"><svg width="370" height="311" viewBox="0 0 370 311" fill="none" xmlns="http://www.w3.org/2000/svg">
<path d="M219.716 103H196.716V108.5H203.716V161.5H196.216V167.5H220.216V161.5H212.716V143L218.216 136.5H219.716L238.216 167.5H252.216V161H244.716L224.216 130.5L242.716 108.5H249.216V103H228.216V108.5H234.716L212.716 134V108.5H219.716V103Z" fill="#0178BC" stroke="#2E4E78"></path>
<path d="M232.716 197C266.316 198.2 297.05 191.5 306.216 188C291.216 190.846 242.116 193.431 207.716 187C164.716 178.962 186.716 183.5 166.216 178.5C149.816 174.5 116.716 162.667 107.716 159C96.9164 155.4 83.8831 147.5 78.7164 144V85H275.716V179C285.316 179.4 292.716 177.833 295.216 177V65.5H59.2164V131.5C55.3831 129.333 45.4164 122 36.2164 110C27.0164 98 24.7164 85.6667 24.7164 81C24.2164 77.1667 25.3164 67.2 33.7164 58C42.1164 48.8 53.8831 42.1667 58.7164 40C28.7164 47.5 13.7164 55 7.21645 66C0.716447 77 -1.78355 98 12.2164 114C26.2164 130 27.7164 130 44.7164 143C61.7164 156 80.7164 163 98.7164 170.5C116.716 178 127.716 182.5 159.716 189C191.716 195.5 190.716 195.5 232.716 197Z" fill="#005A8C" stroke="#2E4E78"></path>
<path d="M83.7164 209.5L53.2164 262H299.216L283.716 219C298.516 215.8 317.55 209 325.216 206C340.416 200 353.55 189.167 358.216 184.5C367.816 174.5 368.883 160 368.216 154C367.816 144.4 359.716 133.667 355.716 129.5C342.116 117.1 328.716 110 323.716 108C338.516 118.8 344.883 130.5 346.216 135C350.616 149.4 346.716 160.333 344.216 164C334.616 179.2 318.216 188.333 311.216 191C295.216 201 257.55 208.833 240.716 211.5C211.216 214 189.716 213 176.716 212.5C163.716 212 138.216 209.5 108.716 203.5C85.1164 198.7 59.5498 189.5 49.7164 185.5C72.2164 198 68.7164 195 91.2164 205C109.216 213 138.383 218 150.716 219.5L147.216 229.5H136.216L138.216 219.5L132.716 229.5H119.716L122.216 219.5L117.216 229.5H104.716L106.216 219.5L100.216 229.5H81.7164L83.7164 209.5Z" fill="#274367" stroke="#2E4E78"></path>
<path d="M199.216 230.5L200.216 225.5H192.216L190.716 230.5H199.216Z" fill="#E5E5E5" stroke="#2E4E78"></path>
<path d="M183.716 223.5H175.216L173.216 230H181.716L183.716 223.5Z" fill="#E5E5E5" stroke="#2E4E78"></path>
<path d="M167.216 222.5L159.216 221L156.216 230H164.716L167.216 222.5Z" fill="#E5E5E5" stroke="#2E4E78"></path>
<path d="M257.216 230L254.716 223.5L264.716 222L267.216 230H257.216Z" fill="#E5E5E5" stroke="#2E4E78"></path>
<path d="M261.216 243.5L260.216 238.5H270.216L272.216 243.5H261.216Z" fill="#E5E5E5" stroke="#2E4E78"></path>
<path d="M241.216 230L239.216 224.5H246.216L247.716 230H241.216Z" fill="#E5E5E5" stroke="#2E4E78"></path>
<path d="M245.716 243.5L243.716 239H250.716L252.716 243.5H245.716Z" fill="#E5E5E5" stroke="#2E4E78"></path>
<path d="M236.716 243L234.716 238H227.216L229.716 243H236.716Z" fill="#E5E5E5" stroke="#2E4E78"></path>
<path d="M231.716 230L230.716 225H226.716L224.716 230H231.716Z" fill="#E5E5E5" stroke="#2E4E78"></path>
<path d="M216.216 230L214.716 225.5H209.716L207.216 230H216.216Z" fill="#E5E5E5" stroke="#2E4E78"></path>
<path d="M202.716 242.5L204.716 238H213.716L211.216 242.5H202.716Z" fill="#E5E5E5" stroke="#2E4E78"></path>
<path d="M185.716 242.5L187.716 238H196.716L194.216 242.5H185.716Z" fill="#E5E5E5" stroke="#2E4E78"></path>
<path d="M167.716 242.5L169.716 238H178.716L176.216 242.5H167.716Z" fill="#E5E5E5" stroke="#2E4E78"></path>
<path d="M150.716 242.5L152.716 238H161.716L159.216 242.5H150.716Z" fill="#E5E5E5" stroke="#2E4E78"></path>
<path d="M117.716 242.5L119.716 238H128.716L126.216 242.5H117.716Z" fill="#E5E5E5" stroke="#2E4E78"></path>
<path d="M101.716 242.5L103.716 238H112.716L110.216 242.5H101.716Z" fill="#E5E5E5" stroke="#2E4E78"></path>
<path d="M132.716 242.5L134.716 238H143.716L141.216 242.5H132.716Z" fill="#E5E5E5" stroke="#2E4E78"></path>
<path d="M79.7164 242.5V238H95.7164L94.2164 242.5H79.7164Z" fill="#E5E5E5" stroke="#2E4E78"></path>
</svg></svg></g></svg>