<svg xmlns="http://www.w3.org/2000/svg" width="118.125" height="33.796" viewBox="0 0 118.125 33.796">
  <g id="Group_924" data-name="Group 924" transform="translate(-25.503 -37.945)">
    <path id="Path_96" data-name="Path 96" d="M25.5,70.811V45.755h5.513V65.8H43.508v5.011Z" transform="translate(0 0.241)" fill="#272520"/>
    <path id="Path_97" data-name="Path 97" d="M88.894,70.811V45.755h5.942l6.587,10.6,6.586-10.6h5.942V70.811h-5.477V54.453l-7.051,10.7h-.143L94.3,54.56V70.811Z" transform="translate(-2.028 0.241)" fill="#272520"/>
    <path id="Path_98" data-name="Path 98" d="M131.779,58.391h4.367a4.556,4.556,0,0,0,3.185-1.074,3.519,3.519,0,0,0,1.181-2.72v-.073a3.452,3.452,0,0,0-1.181-2.809,4.994,4.994,0,0,0-3.293-.984h-4.26Zm-5.513,12.42V45.755H136.5a9.94,9.94,0,0,1,7.016,2.38,8.145,8.145,0,0,1,2.577,6.281v.072a7.87,7.87,0,0,1-2.864,6.5,11.2,11.2,0,0,1-7.267,2.308h-4.187v7.517Z" transform="translate(-2.468 0.241)" fill="#272520"/>
    <path id="Path_99" data-name="Path 99" d="M65.14,39.359h-.234a2.291,2.291,0,0,0-.492.083,1.584,1.584,0,0,0-.183.059h-.005a2.35,2.35,0,0,0-.758.468l-.063.06v0a2.382,2.382,0,0,0-.167.186,2.242,2.242,0,0,0-.5,1.346v.175a2.1,2.1,0,0,0,.082.524c.019.065.039.13.063.19a2.255,2.255,0,0,0,.526.82h0l0,.005a2.409,2.409,0,0,0,.181.164c.065.048.136.1.2.144a2.3,2.3,0,0,0,1.151.358h.176a2.3,2.3,0,0,0,.523-.082c.06-.019.127-.038.183-.057a2.3,2.3,0,0,0,.824-.532v0c.061-.062.119-.126.166-.185s.1-.133.145-.2a2.279,2.279,0,0,0,.357-1.123v-.237a2.365,2.365,0,0,0-.077-.49c-.02-.061-.039-.125-.062-.187a2.336,2.336,0,0,0-.448-.738l-.08-.082,0,0a1.719,1.719,0,0,0-.186-.164,1.839,1.839,0,0,0-.2-.144,2.345,2.345,0,0,0-1.122-.362m3.034,10.071H61.881l-.732.583c-.489,1.492-2.96,9.046-4.019,13.345a7.206,7.206,0,0,0-.3,2.539c.071.414.387.681,1.193.54l.028,0,.022,0,.011,0,.035,0h.016l.029,0h.008l.129-.007.021,0h.082l.044,0h.258l.126,0h.234l.034,0h1.077c.56,0,1.141.008,1.623.015h.024l.15,0h.008l.469.006h.037l.086,0h.016V64.949H67.46v1.474h.016l.086,0H67.6l.47-.006h.008l.152,0h.021c.482-.007,1.064-.012,1.625-.015h1.077l.035,0h.233l.126,0H71.6l.045,0h.082l.02,0,.128.007h.009l.03,0h.014l.036,0,.012,0,.021,0,.028,0c.809.141,1.122-.126,1.193-.54a7.161,7.161,0,0,0-.3-2.539c-1.059-4.3-3.53-11.854-4.019-13.345Zm-9.2-1.763h1.8l.453-1.759h-.817V44.152h1.879c-.053-.058-.1-.12-.152-.182a3.9,3.9,0,0,1-.233-.322,3.673,3.673,0,0,1-.569-1.695h-.02v-.6h.019a3.811,3.811,0,0,1,.177-.88c.03-.087.062-.175.1-.268a3.739,3.739,0,0,1,.794-1.178l.087-.083H62.5a1.926,1.926,0,0,1,.209-.181,3.556,3.556,0,0,1,.321-.234,3.642,3.642,0,0,1,1.7-.569v-.015h.6v.015a3.69,3.69,0,0,1,.876.175c.09.031.178.062.267.1a3.733,3.733,0,0,1,1.185.795l.083.085v.005c.062.067.122.138.182.212a3.1,3.1,0,0,1,.228.325,3.637,3.637,0,0,1,.572,1.7h.015v.591h-.015a3.661,3.661,0,0,1-.177.883c-.031.088-.066.176-.1.266a3.659,3.659,0,0,1-.68,1.057h1.883v1.758h-.753l.4,1.759h1.789v1.763h-.815l.006.02.107.332.01.026.008.029.006.016.061.19.022.066.456,1.406.006.021.029.086.04.126.02.066.051.154.013.041.129.405,0,.008.065.2.011.035.056.177.021.064.049.156.029.091.041.128.038.126.031.1.294.931,0,.013.071.226.012.044.063.2.109.352.042.139.116.38.012.04.023.076.064.205.014.045.028.093.1.319.029.093,0,.019.072.234.015.052.006.023.122.4.087.29.044.149.031.105.055.179.022.074.062.211.159.544.008.023.019.062.063.221.057.195.025.086.045.161.07.246.041.146.066.232.011.04.019.066.058.2.009.034.1.36.074.266.2.742,0,.005.1.373.014.053.045.182.006.026.052.2a8.98,8.98,0,0,1,.329,3.4,2.125,2.125,0,0,1-2.8,1.926l-.046-.005h-.005l-.056-.005h-.009l-.074-.005h-.01l-.037,0h-.011l-.262-.009h-.033l-.105,0h-.186v1.564h1.421v2.027H57.637V69.715h1.426V68.151h-.185l-.107,0h-.032l-.263.009h-.011l-.037,0h-.064l-.019,0H58.3l-.008,0-.014,0h-.005l-.046.005a2.121,2.121,0,0,1-2.8-1.926,8.915,8.915,0,0,1,.323-3.4l.052-.2.006-.026.046-.182.014-.053.04-.158.022-.083.034-.135.03-.111.029-.107.037-.143.023-.081.046-.173.015-.054.11-.405.015-.059v0l.024-.085c.385-1.385.836-2.912,1.287-4.392l.005-.015c.459-1.507.921-2.966,1.306-4.176l.006-.019.512-1.592.006-.016.372-1.151h-.812Zm4.335,11.79c.392-1.307,2.211-3.295,1.173-4.787,2.652,1.655,3.392,7.111.6,8.44A3.2,3.2,0,0,1,63.31,59.458Zm1.716,5.079c-7.837.125-5.268-5.736-2.848-14.382H67.87C70.3,58.8,72.862,64.662,65.026,64.537Z" transform="translate(0.125)" fill="#272520" fill-rule="evenodd"/>
  </g>
</svg>
