<svg xmlns="http://www.w3.org/2000/svg" width="68.036" height="147.973" viewBox="0 0 68.036 147.973">
  <g id="Group_1027" data-name="Group 1027" transform="translate(-130.243 -90.717)">
    <path id="Path_689" data-name="Path 689" d="M228.9,102.321a1.925,1.925,0,0,1-.979.921c-.537-.1-.667-.292-.612-.917a.728.728,0,0,1,.779-.682c.187,0,.374.032.608.054-.018-.117-.025-.214-.049-.305-.267-.994-.53-1.99-.807-2.982A26.436,26.436,0,0,0,226.5,95c-.383-.879-.767-1.759-1.161-2.633a6.222,6.222,0,0,0-.447-.83c-.284-.438-.47-.471-.908-.206a2.989,2.989,0,0,0-1,.983c-.341.549-.691,1.1-.986,1.67q-1.31,2.543-2.8,4.98c-.082.132-.152.271-.256.46.11-.007.183.01.223-.019.695-.5,1.393-.988,2.075-1.5.7-.525,1.382-1.066,2.062-1.611a4.667,4.667,0,0,0,.688-.643,7.15,7.15,0,0,0,1.184-1.522,1.528,1.528,0,0,1,.235-.3.427.427,0,0,1,.458.344c-.281.326-.578.686-.891,1.032a24.184,24.184,0,0,1-3.936,3.282c-.822.593-1.659,1.165-2.471,1.771a2.145,2.145,0,0,0-.534.63q-1.355,2.305-2.68,4.628a26.176,26.176,0,0,0-1.832,3.942,4.155,4.155,0,0,0-.265,1.906,9.5,9.5,0,0,0,.212.98,2.212,2.212,0,0,0,1.125.149c1.625-.051,3.25-.139,4.875-.177,1.45-.035,2.9-.022,4.353-.031l2.78-.019c.664,0,1.329-.011,1.993-.009a9.852,9.852,0,0,0,3.356-.483,3.321,3.321,0,0,1,.412-.09,2.111,2.111,0,0,1,1.4-1.019,3.343,3.343,0,0,1,1.288-.185,1.115,1.115,0,0,1,1.11.987,4.792,4.792,0,0,1-.053,1.356c-.007.1-.133.189-.2.275-.446-.139-.46-.153-.457-.527,0-.157.019-.314.022-.472a2.492,2.492,0,0,0-.011-.416c-.087-.573-.373-.8-.943-.706a3.3,3.3,0,0,0-.75.226,1.156,1.156,0,0,0-.791.956c-.043.338-.239.389-.5.164-.038-.033-.057-.088-.093-.126a.4.4,0,0,0-.1-.054,6.075,6.075,0,0,1-2.785.59c-2.518.013-5.037-.027-7.555-.016-1.555.007-3.109.067-4.663.108-.944.025-1.887.077-2.831.082a11.091,11.091,0,0,1-1.258-.133c-.051-.124-.065-.284-.141-.322-.374-.188-.37-.531-.377-.859a6.668,6.668,0,0,1,.278-2.069,11.65,11.65,0,0,1,.719-1.738,2.826,2.826,0,0,0,.134-.284,19.223,19.223,0,0,1,1.423-2.738q.575-1.059,1.189-2.1c.919-1.547,1.872-3.075,2.772-4.633.691-1.195,1.317-2.427,1.982-3.637a24.66,24.66,0,0,1,1.5-2.577,2.834,2.834,0,0,1,1.251-1,.991.991,0,0,1,1.257.336,5.724,5.724,0,0,1,.541.9c.324.678.619,1.369.925,2.055.214.479.392.977.645,1.434a13.706,13.706,0,0,1,1.054,2.679q.692,2.255,1.339,4.525c.411,1.445.789,2.9,1.189,4.349.172.623.386,1.236.538,1.863a8.943,8.943,0,0,1,.229,1.445,2.832,2.832,0,0,1-.121.876.594.594,0,0,1-.266.3c-.066.041-.188-.006-.31-.016a3.434,3.434,0,0,1,0-.438,4.337,4.337,0,0,0-.137-1.715c-.307-1.166-.635-2.326-.943-3.492-.286-1.081-.558-2.166-.838-3.249C229,102.567,228.961,102.477,228.9,102.321Zm-.926.46c.215-.3.215-.3.1-.56C227.894,102.356,227.9,102.521,227.977,102.782Z" transform="translate(-64.393)"/>
    <path id="Path_690" data-name="Path 690" d="M336.506,531.873c.515-.085.646,0,.584.428-.079.552-.225,1.094-.3,1.646-.136.932-.241,1.869-.363,2.8s-.237,1.871-.378,2.8c-.144.95-.317,1.895-.474,2.842a36.375,36.375,0,0,1-1.619,6.015,47.927,47.927,0,0,1-2.055,4.763,6.119,6.119,0,0,0-.346.932.651.651,0,0,0,.052.4,12.068,12.068,0,0,1,.773,3.142,29.259,29.259,0,0,1,.294,3.285c.023,1.066.021,2.133-.013,3.2-.053,1.66-.139,3.318-.218,4.977a38.259,38.259,0,0,1-.372,3.963,14.009,14.009,0,0,1-.876,3.281.475.475,0,0,0,0,.137,3.285,3.285,0,0,0,1.149.534,6.96,6.96,0,0,1,1.811.916,5.354,5.354,0,0,1,1.968,2.772.936.936,0,0,1,.044.78c-.273.27-.488.472-.692.686a2.415,2.415,0,0,1-.97.6,6.833,6.833,0,0,1-2.451.492c-.436-.01-.873.024-1.309.024a1.124,1.124,0,0,1-.316-.124,2.912,2.912,0,0,1,1.465-.324,3.08,3.08,0,0,1,.376-.565,2.9,2.9,0,0,0,.812-1.323,1.845,1.845,0,0,1,.176-.316l.5.175a3.379,3.379,0,0,1-1.191,1.948,4.563,4.563,0,0,0,3-1.411,1.456,1.456,0,0,0-.146-.813,5.134,5.134,0,0,0-2.822-2.945,14.665,14.665,0,0,0-2.637-.852,9.944,9.944,0,0,0-5.225.259,16.96,16.96,0,0,0-2.807,1.156,3.779,3.779,0,0,0-1.342,1.072c-.208.283-.422.573-.1.948a2.066,2.066,0,0,1-.335.114c-.509.071-.682-.16-.5-.633a3.316,3.316,0,0,1,1.1-1.306,6.247,6.247,0,0,1,1.88-1.017c.508-.184,1-.418,1.5-.6a10.241,10.241,0,0,1,4.27-.623c.608.045,1.211.153,1.817.229.1.013.205.011.329.017a8.379,8.379,0,0,0,.665-2.039c.208-1.061.355-2.133.492-3.208.228-1.794.13-3.6.282-5.389a45.293,45.293,0,0,0,.111-4.82,21.827,21.827,0,0,0-.388-3.908c-.109-.53-.23-1.058-.374-1.58a2.771,2.771,0,0,0-.622-1.2.642.642,0,0,1-.087-.163c.077-.309.355-.2.559-.319.04-.1.091-.223.146-.35.314-.733.632-1.466.943-2.2.2-.464.393-.93.578-1.4a43.026,43.026,0,0,0,2.006-6.544c.119-.545.221-1.094.322-1.643.158-.857.314-1.714.458-2.573.04-.24.024-.489.057-.731.229-1.694.367-3.4.7-5.081a8.336,8.336,0,0,0,.079-.938C336.478,532.136,336.493,532,336.506,531.873Z" transform="translate(-147.904 -344.605)"/>
    <path id="Path_691" data-name="Path 691" d="M132.292,501.088a7.1,7.1,0,0,0-.833,2.994q-.317,2.1-.526,4.212c-.1.973-.09,1.955-.164,2.931a39.538,39.538,0,0,0,.042,4.769c.065,1.465.188,2.929.3,4.391.09,1.132.206,2.262.317,3.392s.224,2.258.342,3.386c.116,1.112.225,2.226.363,3.336q.3,2.419.64,4.833a38.37,38.37,0,0,0,.855,4.689c.327,1.214.694,2.418,1.077,3.616q.6,1.869,1.266,3.716a15.893,15.893,0,0,0,1.922,3.83,7.278,7.278,0,0,0,1.964,2.016c.229.146.473.27.75.425a.616.616,0,0,1-.8.116,4.292,4.292,0,0,1-1.163-.789,11.808,11.808,0,0,1-2.948-4.712c-.725-1.984-1.391-3.99-2.046-6a35.1,35.1,0,0,1-1.337-6.08q-.432-3.112-.818-6.231c-.113-.917-.167-1.841-.254-2.761-.056-.591-.132-1.18-.188-1.771-.124-1.3-.251-2.606-.358-3.911-.11-1.336-.2-2.674-.294-4.011-.023-.313-.058-.626-.068-.939-.04-1.344-.107-2.688-.1-4.031.009-.976.121-1.952.2-2.927.056-.73.116-1.46.195-2.187.081-.743.187-1.484.282-2.226.082-.639.139-1.283.252-1.917s.257-1.264.432-1.884C131.706,500.992,131.8,500.979,132.292,501.088Z" transform="translate(0 -320.533)"/>
    <path id="Path_692" data-name="Path 692" d="M365.939,335.365c0-.15-.012-.32,0-.489a21.212,21.212,0,0,0-.434-6.51c-.378-1.652-.875-3.272-1.407-4.881-.4-1.211-.765-2.435-1.207-3.63-.509-1.375-1.06-2.736-1.639-4.083-.827-1.926-1.692-3.836-2.549-5.749-.228-.51-.5-1-.727-1.512-.325-.714-.614-1.445-.954-2.151-.516-1.069-1.056-2.127-1.6-3.183-.4-.776-.832-1.536-1.23-2.314a23.156,23.156,0,0,0-2.319-3.8c-.064-.081-.117-.171-.166-.243.074-.388.4-.268.69-.325a30.46,30.46,0,0,0-2.444-3.45,20.9,20.9,0,0,0-2.736-3.152c.131-.072.21-.148.3-.158a.585.585,0,0,1,.515.208c.312.354.635.7.927,1.07.9,1.138,1.8,2.275,2.675,3.432.463.612.881,1.259,1.3,1.9.294.451.28.459-.125.807a.461.461,0,0,0-.063.107c.312.491.638.985.943,1.492.243.4.467.82.689,1.236q1.13,2.128,2.25,4.262c.163.309.322.621.467.939,1.074,2.352,2.157,4.7,3.209,7.061.818,1.835,1.635,3.671,2.379,5.536.64,1.605,1.2,3.245,1.751,4.883.446,1.324.853,2.662,1.233,4.006a19.2,19.2,0,0,1,.838,4.368c.049,1.117.04,2.236.036,3.355a3.074,3.074,0,0,1-.142.771C366.348,335.365,366.21,335.463,365.939,335.365Z" transform="translate(-169.5 -155.471)"/>
    <path id="Path_693" data-name="Path 693" d="M208.3,724.193c.157-.131.244-.218.346-.284.307-.2.446-.167.658.173.094.15.191.188.351.086.1-.187.008-.361-.051-.543-.084-.258-.028-.384.176-.47a.361.361,0,0,1,.5.231,1.355,1.355,0,0,1,.058.306c.018.121.027.243.045.364a.411.411,0,0,0,.053.1c.036.017.082.059.128.058a5.254,5.254,0,0,0,2.387-.5.928.928,0,0,0,.587-.891,7.2,7.2,0,0,0-.208-2.492,4.049,4.049,0,0,0-3.449-2.959.8.8,0,0,1-.154-.027,9.53,9.53,0,0,0-4.506-.246,11.355,11.355,0,0,0-3.536.928c-.487.233-.952.513-1.417.789a1.937,1.937,0,0,0-.723.744.473.473,0,0,1-.477.314l-.252-.291a1.541,1.541,0,0,1,.121-.247,5.648,5.648,0,0,1,2.038-1.521,12.337,12.337,0,0,1,3.861-1.1,14.574,14.574,0,0,1,5.006.122,1.7,1.7,0,0,0,.769-.031q1.952-.5,3.851-1.166a12.718,12.718,0,0,0,2.279-1.052,4.367,4.367,0,0,0,.492-.387c.279-.225.407-.2.671.134-.023.041-.036.1-.073.127a11.958,11.958,0,0,1-3.081,1.545c-1.064.343-2.135.665-3.2,1-.112.035-.22.081-.353.13.138.239.368.3.554.421a4.675,4.675,0,0,1,1.934,2.08,4.8,4.8,0,0,1,.4,1.293,5.177,5.177,0,0,1-.057,2.288,1.741,1.741,0,0,0,.018.549,5.425,5.425,0,0,1-1.157.549,6.8,6.8,0,0,1-1.944.4c-.277.029-.551.079-.828.1a2.466,2.466,0,0,1-.358-.036c-.338-.021-.683-.165-1,.11a.279.279,0,0,1-.419-.062.564.564,0,0,0-.513-.2c-.525,0-1.05.006-1.574-.007-1.363-.033-2.726-.081-4.09-.113-1.083-.025-2.167-.038-3.25-.055-.786-.012-1.572-.019-2.358-.03a6.78,6.78,0,0,1-2.884-.877.837.837,0,0,1-.131-.086c-.28-.211-.262-.35.1-.58a7.3,7.3,0,0,0,2.215.987,3.828,3.828,0,0,0,1.028.119c.645.013,1.3-.058,1.937,0,1.328.112,2.656.014,3.983.06C204.639,724.109,206.474,724.145,208.3,724.193Z" transform="translate(-49.3 -486.947)"/>
    <path id="Path_694" data-name="Path 694" d="M356.687,488.623c-.59-.04-.727-.279-.719-1.207-.168-.077-.351-.175-.542-.248-1.158-.441-2.322-.866-3.475-1.32a5.985,5.985,0,0,1-1.112-.572,2.411,2.411,0,0,1-.564-.609c-.284-.391-.234-.637.151-.927a2.83,2.83,0,0,1,.258-.152c-.147-.359.147-.547.336-.757a4.176,4.176,0,0,1,.163-2.49c.065-.18.093-.372.151-.555a.346.346,0,0,1,.457-.229c.163.056.234.226.134.433a6.7,6.7,0,0,0-.52,1.807,1.292,1.292,0,0,0,.01.7c.151-.057.28-.1.4-.153a12.363,12.363,0,0,1,4.508-1.064,18.448,18.448,0,0,1,3.6.207,10.317,10.317,0,0,1,3.117,1.034,19.428,19.428,0,0,1,3.669,2.315,11.75,11.75,0,0,1,2.5,2.8,4.793,4.793,0,0,1,.8,2.25,1.9,1.9,0,0,1,.009.365.372.372,0,0,1-.426.362,1.287,1.287,0,0,1-.205-.038c-1.044-.211-2.088-.419-3.13-.633-1.3-.267-2.6-.539-3.895-.807a.935.935,0,0,0-.148-.009c-.035.025-.074.038-.089.065-.191.347-.356.37-.537.064a3.379,3.379,0,0,1-.16-.37c-.8-.2-1.613-.454-2.42-.575-.247.255.078.422.012.619-.283.109-.519.081-.623-.128a4.177,4.177,0,0,1-.207-.687l-1.494-.456C356.387,487.995,356.674,488.288,356.687,488.623Zm5.422.014a2.8,2.8,0,0,0,.352.123c1.075.221,2.132.521,3.224.675,1.036.146,2.058.385,3.088.578.182.034.373.136.588-.061a2.813,2.813,0,0,0-.066-.579,8.741,8.741,0,0,0-.457-1.224,8.943,8.943,0,0,0-2.166-2.671,17.064,17.064,0,0,0-2.989-2.116,11.3,11.3,0,0,0-3.29-1.337,15.34,15.34,0,0,0-4.435-.28,9.489,9.489,0,0,0-4.086,1.21,2.006,2.006,0,0,0-.446.357c-.245.264-.468.548-.727.855-.038.279.158.48.374.664a4.537,4.537,0,0,0,1.318.745c.845.33,1.692.655,2.538.983a6.411,6.411,0,0,0,.636.243,1.146,1.146,0,0,0,.5.034c.477-.094.546-.065.723.438a5.6,5.6,0,0,0,1.6.454l.28-.558.479.158v.555a6.671,6.671,0,0,0,2.285.5l.042-.642c.464-.016.536.029.588.366C362.088,488.274,362.093,488.447,362.109,488.637Z" transform="translate(-171.746 -303.744)"/>
    <path id="Path_695" data-name="Path 695" d="M170.383,471.159c.173-.149.322-.3.594-.186a4.463,4.463,0,0,0,.564,1.43,8.42,8.42,0,0,0,1.991,2.206,16.832,16.832,0,0,0,2.519,1.694c.547.31,1.1.619,1.647.92a21.2,21.2,0,0,0,5.2,1.9,10.708,10.708,0,0,0,2.741.388,13.278,13.278,0,0,0,3.217-.408,3.71,3.71,0,0,0,2.15-1.734.755.755,0,0,0,.09-.7c-.083-.228-.121-.473-.2-.7a.566.566,0,0,0-.583-.434,1.079,1.079,0,0,1-.41-.073.955.955,0,0,1-.621-.724c-.032-.172-.049-.346-.066-.52-.08-.834-.156-1.669-.239-2.5-.019-.19-.068-.377-.1-.567-.043-.293-.075-.587-.12-.88-.113-.725-.213-1.452-.35-2.172a36.991,36.991,0,0,0-.959-3.749c-.292-.969-.632-1.924-.928-2.892a11,11,0,0,1-.3-1.324.531.531,0,0,1,.243-.62.949.949,0,0,1,.146.244c.3,1.334.771,2.614,1.181,3.914a38.794,38.794,0,0,1,1.664,7.568c.1.938.219,1.874.331,2.81.01.086.034.172.052.257.131.612.144.625.767.735a1.059,1.059,0,0,1,.943.973,4.61,4.61,0,0,0,.088.514,1.211,1.211,0,0,1-.223,1.092,5.092,5.092,0,0,1-1.628,1.532,5.17,5.17,0,0,1-1.122.42,11.791,11.791,0,0,1-4.622.305c-.859-.143-1.7-.371-2.55-.585-.438-.111-.861-.281-1.295-.413a22.709,22.709,0,0,1-4.628-2.194,18.151,18.151,0,0,1-2.591-1.775,9.586,9.586,0,0,1-2-2.2,8.242,8.242,0,0,1-.557-1.184A1.27,1.27,0,0,1,170.383,471.159Z" transform="translate(-31.357 -288.091)"/>
    <path id="Path_696" data-name="Path 696" d="M138.1,339.41c-.082.123-.139.218-.206.306a5.9,5.9,0,0,0-.479.616,29.571,29.571,0,0,0-2.923,7.049,37.083,37.083,0,0,0-1.091,6.609,31.346,31.346,0,0,0-.049,4.191c.053,1.029.157,2.056.261,3.082.1.955.188,1.914.348,2.859.146.859.365,1.708.579,2.554a26.552,26.552,0,0,0,2.144,5.732,24.648,24.648,0,0,0,3.886,5.636c.3.314.628.6.969.916a.307.307,0,0,1-.4.018,4.982,4.982,0,0,1-.794-.593c-.6-.607-1.179-1.23-1.735-1.874a9.616,9.616,0,0,1-.778-1.113c-.335-.522-.648-1.058-.977-1.584a8.071,8.071,0,0,1-.859-1.729c-.086-.259-.265-.486-.378-.738a18.03,18.03,0,0,1-1.374-4.056c-.054-.288-.209-.555-.278-.841-.2-.849-.41-1.7-.575-2.557a11.472,11.472,0,0,1-.219-2.131c0-.52-.112-1.039-.147-1.561-.078-1.132-.138-2.265-.207-3.4a24.906,24.906,0,0,1,.122-3.664,32.216,32.216,0,0,1,.947-5.521,25.312,25.312,0,0,1,.768-2.5,21.514,21.514,0,0,1,1.2-2.837c.413-.744.759-1.525,1.154-2.28a2.719,2.719,0,0,1,.44-.578C137.61,339.253,137.813,339.232,138.1,339.41Z" transform="translate(-1.995 -194.18)"/>
    <path id="Path_697" data-name="Path 697" d="M234.276,132.448a1.313,1.313,0,0,1,.2-.266,12.212,12.212,0,0,0,2.331-2.536,3.171,3.171,0,0,0,.628-1.416,2.345,2.345,0,0,0-.369.051,12.139,12.139,0,0,1-3.3.56c-.366.013-.73.068-1.1.089a.812.812,0,0,0-.534.3c-.555.558-1.1,1.13-1.657,1.682-.423.416-.867.81-1.307,1.209a.793.793,0,0,1-.436.24c-.014-.063-.039-.11-.026-.125a7.147,7.147,0,0,1,1-1.137,3.817,3.817,0,0,0,.506-.526q.471-.525.934-1.059c.133-.154.254-.319.4-.51-.226-.079-.393-.126-.551-.195a.912.912,0,0,1-.58-.684,4.279,4.279,0,0,1,.1-2.525,9.8,9.8,0,0,1,.423-1.063,4.015,4.015,0,0,0,.167-.477,2.526,2.526,0,0,0-.317.182c-1.431,1.2-2.856,2.417-4.292,3.616a6.111,6.111,0,0,1-.788.514,1.039,1.039,0,0,1-.317.044,1.311,1.311,0,0,1,.169-.258c.874-.721,1.759-1.429,2.627-2.157.454-.38.88-.793,1.321-1.19.22-.2.442-.4.666-.588a9.2,9.2,0,0,0,1.766-2.017,1.212,1.212,0,0,0,.876-.565c.573-.7,1.174-1.378,1.768-2.061.218-.25.454-.484.67-.736.294-.343.576-.7.884-1.07.318-.039.318-.039.476.279l-.517.846a.971.971,0,0,0-.642.4,44.854,44.854,0,0,0-3.11,3.685,8.438,8.438,0,0,0-1.392,2.974,3.432,3.432,0,0,0,.053,1.915.841.841,0,0,0,.954.632,4.466,4.466,0,0,1,.977-.007,6.613,6.613,0,0,0,1.462-.084c.689-.1,1.372-.255,2.054-.4a3.189,3.189,0,0,0,.54-.2.939.939,0,0,0,.624-.718,1.022,1.022,0,0,1,.069-.183c.486-.089.618,0,.609.426a2.091,2.091,0,0,1-.073.464,6.526,6.526,0,0,1-1.373,2.626c-.6.707-1.226,1.389-1.846,2.077C234.771,132.771,234.646,132.762,234.276,132.448Z" transform="translate(-74.335 -21.124)"/>
    <path id="Path_698" data-name="Path 698" d="M178,227.617h.476c.25.155.225.371.2.58a9.563,9.563,0,0,0,.009,2.354c.02.185.044.369.068.573-.341-.029-.407-.275-.448-.481a14.285,14.285,0,0,1-.21-1.448c-.031-.329-.006-.663-.006-1.009a2.386,2.386,0,0,0-.233-.208,1.2,1.2,0,0,1-.515-1.085c0-.363,0-.726,0-1.116l-.4.082-.354-.412c.033-.125.061-.259.1-.388.217-.662.487-1.3.675-1.98a10.24,10.24,0,0,1,.622-1.722c.654-1.293,1.414-2.368,2.067-3.661.48-.951.95-1.907,1.431-2.857a1.587,1.587,0,0,1,.268-.383.328.328,0,0,1,.511,0,2.462,2.462,0,0,1-.131.4c-.7,1.351-1.393,2.7-2.1,4.047-.5.8-1,1.5-1.481,2.415-.2.368-.3.849-.5,1.218-.056.106-.076.231-.123.343-.069.168-.147.332-.257.578l.286.126-.516.838a2.052,2.052,0,0,1,.4.064,1.908,1.908,0,0,1,.312.2A9.479,9.479,0,0,0,178,227.617Zm-.939-3.068-.022.03.032.007Z" transform="translate(-36.202 -96.571)"/>
    <path id="Path_699" data-name="Path 699" d="M320.9,213.593a.464.464,0,0,1,.639-.022,1.824,1.824,0,0,1,.322.34,11.423,11.423,0,0,1,1.372,2.225,44.449,44.449,0,0,1,2.745,7.014c.089.3.191.6.275.9.064.231.168.463-.053.687-.054.055-.038.2-.022.3.1.62.211,1.238.318,1.856.074.426.065.439-.379.561a.927.927,0,0,0-.123.059l-.081.561a.25.25,0,0,1-.409-.119,9.414,9.414,0,0,1-.35-1.094.282.282,0,0,1,.247-.343,2.644,2.644,0,0,1,.3-.029,4.841,4.841,0,0,0-.567-2.605l.349-.4c-.109-.375-.215-.777-.342-1.173a38.454,38.454,0,0,0-1.577-4.213c-.368-.81-.744-1.617-1.145-2.411A6.638,6.638,0,0,0,320.9,213.593Z" transform="translate(-148.943 -95.882)"/>
    <path id="Path_700" data-name="Path 700" d="M244.4,239.815c-.056.066-.237.072-.332.071a2.285,2.285,0,0,1-.416-.048.749.749,0,0,0-.814.343c-.017.024-.035.047-.056.071a.246.246,0,0,1-.308.055l0,0a.246.246,0,0,1-.082-.352,2.759,2.759,0,0,0,.375-.655,1.92,1.92,0,0,0,.021-.692.24.24,0,0,0-.126-.2l-.483-.261a.238.238,0,0,1-.126-.174.368.368,0,0,1,.006-.136.237.237,0,0,0-.32-.26,3.52,3.52,0,0,0-1.321.929,2.543,2.543,0,0,0-.506,1.866c.006.116-.2.282-.315.307l-.054-.008c-.082-.02-.1-.134-.107-.181a2.716,2.716,0,0,1,1.657-3.123c.09-.052.192-.085.286-.132a3.554,3.554,0,0,1,3.938.4,5.481,5.481,0,0,1,1.486,1.674,1.682,1.682,0,0,1,.189.485c.018.082-.034.248-.087.263a.383.383,0,0,1-.321-.056,1.61,1.61,0,0,1-.248-.4,4.9,4.9,0,0,0-1.143-1.488c-.237-.19-.488-.361-.763-.551a.238.238,0,0,0-.351.088.94.94,0,0,1-.462.473.259.259,0,0,0-.139.153c-.026.082-.048.152-.065.224a.724.724,0,0,0,.521.982C244.082,239.553,244.415,239.631,244.4,239.815Zm-1.618-2.006c.157.094.437.018.4-.23C243.033,237.48,242.7,237.555,242.779,237.809Z" transform="translate(-85.258 -114.133)"/>
    <path id="Path_701" data-name="Path 701" d="M244.7,669.718c-.261-.139-.24-.394-.209-.633.1-.779.208-1.557.327-2.333a25.353,25.353,0,0,0,.316-3.863c0-.767-.061-1.537-.138-2.3-.109-1.078-.236-2.154-.4-3.225a10.583,10.583,0,0,0-.724-2.729.729.729,0,0,1-.029-.2c.343-.093.412-.084.489.175a22.019,22.019,0,0,1,.605,2.224c.216,1.167.377,2.345.517,3.524a23.5,23.5,0,0,1-.225,7.31c-.11.566-.181,1.139-.263,1.71C244.949,669.543,244.933,669.7,244.7,669.718Z" transform="translate(-88.748 -440.333)"/>
    <path id="Path_702" data-name="Path 702" d="M311.28,626.443a.44.44,0,0,1,.478.248,8.883,8.883,0,0,0-1.156,1.97,36.253,36.253,0,0,1-3.075,4.923c-.414.562-.818,1.132-1.235,1.692a1.529,1.529,0,0,1-.415.371,1.912,1.912,0,0,1,.325-.939c.859-1.242,1.745-2.467,2.561-3.738.6-.936,1.115-1.928,1.651-2.9.234-.427.422-.878.641-1.313A2.187,2.187,0,0,1,311.28,626.443Z" transform="translate(-137.204 -418.505)"/>
    <path id="Path_703" data-name="Path 703" d="M309.868,720.382c.315-.085.4.1.452.319.147.592.317,1.18.433,1.779.227,1.164.421,2.334.633,3.5.042.232.106.461.16.689-.477.117-.617.064-.7-.3a11,11,0,0,1-.229-1.287,32.339,32.339,0,0,0-.721-3.908A1.011,1.011,0,0,1,309.868,720.382Z" transform="translate(-140.264 -491.874)"/>
    <path id="Path_704" data-name="Path 704" d="M259.539,147.522a5.032,5.032,0,0,1-.224.741.925.925,0,0,1-1.209.621c-.172-.028-.344-.059-.514-.095a1.056,1.056,0,0,1-.914-1.333,1.777,1.777,0,0,1,.531-1,1.345,1.345,0,0,1,1.473-.215,1.157,1.157,0,0,1,.8,1.061c0,.07,0,.14,0,.21Zm-.619-.056a3.766,3.766,0,0,0-.216-.606.611.611,0,0,0-.842-.281,1.032,1.032,0,0,0-.575.7c-.175.546-.089,1.007.631,1.168.537.12.843-.057.957-.588C258.9,147.758,258.9,147.653,258.919,147.466Z" transform="translate(-98.75 -43.276)"/>
    <path id="Path_705" data-name="Path 705" d="M199.567,186.426a.97.97,0,0,1-.61-.692.579.579,0,0,0-.671-.441,1.8,1.8,0,0,0-1.106.413.759.759,0,0,0-.278.839,1.32,1.32,0,0,0,.447.751,1.255,1.255,0,0,1,.239.2.278.278,0,0,1,.056.231c-.043.079-.16.184-.226.172a1.144,1.144,0,0,1-.521-.2,1.828,1.828,0,0,1-.679-1.415,1.069,1.069,0,0,1,.449-.9,2.847,2.847,0,0,1,2.124-.55.826.826,0,0,1,.78.664,4.332,4.332,0,0,0,.16.5A.338.338,0,0,1,199.567,186.426Z" transform="translate(-51.538 -73.502)"/>
    <path id="Path_706" data-name="Path 706" d="M299.728,344.132c-.2.017-.289-.05-.291-.2,0-.243-.009-.487,0-.73.012-.261.034-.521.065-.781a6.476,6.476,0,0,0-.224-2.482c-.046-.167-.067-.34-.1-.533a.975.975,0,0,1,.251-.167c.244-.066.355.01.405.261a9.468,9.468,0,0,1,.049,3.9C299.828,343.646,299.777,343.9,299.728,344.132Z" transform="translate(-131.97 -194.126)"/>
    <path id="Path_707" data-name="Path 707" d="M280.879,314.154c.519-.289.574-.878,1.119-1.073,0,.15.036.274-.006.359-.179.358-.37.711-.579,1.052a.5.5,0,0,1-.573.273.6.6,0,0,1-.483-.494c-.087-.619-.161-1.24-.238-1.848.464-.174.606-.1.643.294C280.8,313.166,280.835,313.615,280.879,314.154Z" transform="translate(-117.082 -173.126)"/>
    <path id="Path_708" data-name="Path 708" d="M161.064,294.184c-.49-.222-.786.06-1.119.344a5.688,5.688,0,0,0-.765.832,25.634,25.634,0,0,0-1.982,3.013,12.443,12.443,0,0,0-1.1,2.2c-.077.226-.185.645-.272.9a2.506,2.506,0,0,1-.159-.369,4.86,4.86,0,0,1,.56-1.67c.139-.266.249-.457.386-.678.21-.462.514-.874.742-1.317a21.3,21.3,0,0,1,1.375-2.1,4.292,4.292,0,0,1,1.344-1.368.666.666,0,0,1,.947.072C161.042,294.07,161.042,294.112,161.064,294.184Z" transform="translate(-19.861 -158.661)"/>
    <path id="Path_709" data-name="Path 709" d="M290.7,328.253c-.308,0-.365-.2-.408-.378-.1-.389-.166-.784-.236-1.179-.119-.669-.229-1.339-.348-2.041.223-.235.46-.219.588.086a1.062,1.062,0,0,1,.061.254c.089.605.191,1.209.258,1.816C290.663,327.276,290.669,327.746,290.7,328.253Z" transform="translate(-124.571 -182.625)"/>
    <path id="Path_710" data-name="Path 710" d="M268.393,132.158a.878.878,0,0,1,.909-.919.79.79,0,0,1,.762.533.706.706,0,0,1-.3.819c-.094.077-.188.155-.287.225-.306.218-.543.206-.761-.083A4.114,4.114,0,0,1,268.393,132.158Zm.681.285a.566.566,0,0,0,.364-.325.284.284,0,0,0-.079-.4.3.3,0,0,0-.388.148C268.843,132.06,268.861,132.161,269.074,132.443Z" transform="translate(-107.922 -31.653)"/>
    <path id="Path_711" data-name="Path 711" d="M355.518,759.832c-.311.328-.618.653-.927.977a.885.885,0,0,1-.668.237c-.056,0-.112-.06-.175-.1a.672.672,0,0,1,.076-.156c.34-.369.667-.753,1.033-1.095C355.144,759.428,355.316,759.487,355.518,759.832Z" transform="translate(-174.6 -522.471)"/>
    <path id="Path_712" data-name="Path 712" d="M368.679,759.666c-.311.293-.578.558-.861.8a.635.635,0,0,1-.323.134c-.067.008-.145-.07-.23-.115a2.338,2.338,0,0,1,.413-.894c.116-.206.355-.207.556-.221A.411.411,0,0,1,368.679,759.666Z" transform="translate(-185.161 -522.35)"/>
    <path id="Path_713" data-name="Path 713" d="M241.987,362.218c.254,1.006.27,1.028.88,1.258a.724.724,0,0,1-.791-.009,1.131,1.131,0,0,1-.563-.84C241.44,362.246,241.529,362.164,241.987,362.218Z" transform="translate(-86.906 -212.083)"/>
    <path id="Path_714" data-name="Path 714" d="M236.9,350.272c.212-.231.4-.278.573-.151a2.608,2.608,0,0,1,.871.869c.012.024-.006.063-.015.129-.061-.005-.144.014-.181-.019C237.776,350.775,237.278,350.635,236.9,350.272Z" transform="translate(-83.318 -202.591)"/>
    <path id="Path_715" data-name="Path 715" d="M237.787,356.078c.225-.212.375-.274.522-.156.29.233.558.493.846.752-.135.154-.275.06-.39.027A1.9,1.9,0,0,1,237.787,356.078Z" transform="translate(-84.013 -207.131)"/>
    <path id="Path_716" data-name="Path 716" d="M242.7,231.694a.23.23,0,0,1,.038-.306.358.358,0,0,1,.576.191.21.21,0,0,1-.119.246.477.477,0,0,1-.189.051C242.879,231.874,242.814,231.835,242.7,231.694Z" transform="translate(-87.819 -109.827)"/>
    <path id="Path_717" data-name="Path 717" d="M265.178,229.446a.169.169,0,0,1-.04-.205c.107-.215.248-.28.415-.2.149.071.181.183.1.424a.168.168,0,0,1-.17.118A.564.564,0,0,1,265.178,229.446Z" transform="translate(-105.365 -108.032)"/>
  </g>
</svg>
