<svg id="Group_790" data-name="Group 790" xmlns="http://www.w3.org/2000/svg" width="91.897" height="131.512" viewBox="0 0 91.897 131.512">
  <path id="Path_34" data-name="Path 34" d="M130.655,284.374a14.031,14.031,0,0,1-1.122.9,1.143,1.143,0,0,1-.783.253c-.146-.039-.257-.478-.292-.751-.1-.8-.182-.874-.9-.643-.346.111-.682.267-1.034.347a4.575,4.575,0,0,1-.822.043,4.132,4.132,0,0,1,.056-.954c.13-.445.373-.846.526-1.285a13,13,0,0,0,.673-6.171c-.11-.794-.107-1.608-.164-2.412q-.363-5.245-.732-10.491c-.175-2.528-.351-5.057-.506-7.586-.028-.46.068-.927.057-1.389a1.244,1.244,0,0,0-.195-.693,4.822,4.822,0,0,1-.953-2.556,3.567,3.567,0,0,0-1.648-2.633c-.843-.534-1.806-.828-2.652-1.358a6.533,6.533,0,0,1-2.812-3.59,16.251,16.251,0,0,1-.747-2.552c-.208-1.348-.249-2.727-.391-4.089a7.8,7.8,0,0,1,1.549-5.523,1.019,1.019,0,0,0,.057-.8,10.58,10.58,0,0,1-.013-7.1c.593-2.128,1.987-3.464,3.265-4.945a3.424,3.424,0,0,0,1.151-2.648c-.142-2.455,1.061-4.423,2.006-6.525a10.079,10.079,0,0,1,3.187-3.9c.919-.718,1.908-1.331,2.8-2.091,1.627-1.39,3.145-2.946,4.815-4.262a12,12,0,0,1,6.235-2.984,11.36,11.36,0,0,1,5.446.827,5,5,0,0,0,4.585-.03c1.754-.685,3.545-1.255,5.324-1.862a4.11,4.11,0,0,1,3.227.393,19.63,19.63,0,0,1,3.459,1.943,12.368,12.368,0,0,1,3.112,3.154,19.184,19.184,0,0,0,2.017,2.429,1.9,1.9,0,0,0,1.822.6c.609-.094,1.219-.2,1.821-.339a3.317,3.317,0,0,1,2.4.341,4.251,4.251,0,0,1,2.251,1.936,2.03,2.03,0,0,0,2.425,1.067,3.652,3.652,0,0,1,3.69,1.356c.281.347.664.589.962.921q.981,1.091,1.921,2.229c.616.745.772.808,1.574.331a6.7,6.7,0,0,1,2.851-1.052,2.475,2.475,0,0,1,2.548,1.547c.313.562.625.87,1.263.681a2.15,2.15,0,0,1,2.375.779,8.325,8.325,0,0,1,2.045,3.907c.065.37.146.737.176,1.111a4.451,4.451,0,0,0,1.017,2.128,12.082,12.082,0,0,1,1.025,2.553,2.7,2.7,0,0,0,1.547,1.891,2.014,2.014,0,0,1,1.315,1.753.716.716,0,0,0,.575.431,2.153,2.153,0,0,1,1.876.833,2.662,2.662,0,0,0,.489.452,4.019,4.019,0,0,1,1.586,3.289c.059.66.033,1.33.07,1.994a2.817,2.817,0,0,1-.909,2.3,6.1,6.1,0,0,0-.887,1.169.845.845,0,0,0-.047.622,12.08,12.08,0,0,1,.574,6.126,10.459,10.459,0,0,1-2.472,4.867c-.186.226-.391.434-.572.666a2.262,2.262,0,0,1-2.346,1.036c-1.272-.238-2.562-.35-3.847-.489-.131-.014-.3.147-.411.266a.736.736,0,0,0-.1.332,5.381,5.381,0,0,1-3.023,3.687c-1.589.932-3.072.688-4.659.317a7.759,7.759,0,0,1-3.27-1.652,3.119,3.119,0,0,0-.8-.431,1.09,1.09,0,0,0-1.57.587,20.166,20.166,0,0,0-1.041,2.255,1.6,1.6,0,0,1-1.331,1.16,22.824,22.824,0,0,1-3.421.047,3.788,3.788,0,0,1-1.334-.58c-1.171-.6-2.333-1.225-3.5-1.836-.7-.369-1.122-.023-1.487.662a2.956,2.956,0,0,1-3.038,1.593c-.73-.151-1.458-.317-2.187-.474-.122-.026-.247-.039-.389-.061a10.573,10.573,0,0,0-.474,3.99,6.215,6.215,0,0,1-.285,2.055c-.308.958-1.139,1.117-1.93,1.234-.71.106-1.425.156-2.134.268-.127.019-.258.2-.34.339a18.22,18.22,0,0,0-1.609,4.649c-.388,1.484-.929,2.916-1.4,4.372-.332,1.019-1.2.96-1.769.243a10.413,10.413,0,0,1-1.121-2.188c-.741-1.648-1.457-3.311-2.18-4.969a4.237,4.237,0,0,1-.189-.524c-.085-.3-.146-.509-.531-.534-.3-.019-.566-.377-.864-.548a2.6,2.6,0,0,0-2.629.268,4.588,4.588,0,0,0-2.367,3.75c-.251,1.915.648,3.3,1.486,4.738.285.491.57.981.87,1.46.166.267.382.5.542.767a2.282,2.282,0,0,1,.324.77c.016.1-.263.382-.375.362a1.191,1.191,0,0,1-.758-.371c-.428-.642-.774-1.352-1.157-2.032-.109-.193-.236-.373-.467-.733-.925,1.335-1.8,2.565-2.641,3.817-.941,1.393-1.887,2.784-2.775,4.22-.452.73-.763,1.568-1.175,2.332-.134.249-.4.407-.577.629a5.468,5.468,0,0,1-4.393,2,17.145,17.145,0,0,0-3.343.316c-.428.1-.806.739-1.107,1.213-1.649,2.6-3.269,5.213-4.893,7.828-.442.711-.87,1.434-1.3,2.158-.247.42-.592.486-.923.233-.079-.06,0-.552.123-.742,1.882-2.82,3.81-5.6,5.666-8.442a21.771,21.771,0,0,0,1.6-3.117C131.012,285.323,130.775,284.893,130.655,284.374Zm26.271-12.114a9.288,9.288,0,0,0,1.332-3.572,26.331,26.331,0,0,1,1.8-5.575,1.272,1.272,0,0,1,1.137-.839c.78-.066,1.561-.117,2.343-.172a1.172,1.172,0,0,0,1.155-1.175c.157-1.733.265-3.473.376-5.211.071-1.113.2-1.177,1.172-.856a16.743,16.743,0,0,0,2.483.58c1.282.215,2-.664,2.535-1.787.258-.542.57-.883,1.156-.729a13.385,13.385,0,0,1,4.609,2.156c1.366,1.012,2.8.686,4.23.467.272-.042.574-.416.728-.722.455-.9.805-1.869,1.28-2.755a1.414,1.414,0,0,1,.873-.639c1.123-.229,2.02.423,2.972.993,2.379,1.424,4.765,2.326,7.4.455a4.1,4.1,0,0,0,1.716-2.613c.29-1.232.521-1.381,1.678-1.206q1.917.289,3.846.458a1.332,1.332,0,0,0,.95-.268,11.445,11.445,0,0,0,3.1-4.682,8.348,8.348,0,0,0-.331-6.115,1.8,1.8,0,0,1,.106-1.871,4.253,4.253,0,0,1,.7-.906,2.92,2.92,0,0,0,.962-3.18,1.427,1.427,0,0,1-.021-.284,4.439,4.439,0,0,0-2.221-3.908,1.459,1.459,0,0,0-1.513-.005,6.8,6.8,0,0,1-.724.2,3.45,3.45,0,0,1-.1-.871,1.644,1.644,0,0,0-1.187-1.988,1.131,1.131,0,0,1-.943-.715c-.331-.786-.66-1.573-1.006-2.351a5.252,5.252,0,0,0-.758-1.517,4.108,4.108,0,0,1-1.111-2.54,7.808,7.808,0,0,0-1.845-4.444,1.562,1.562,0,0,0-1.96-.524c-.92.382-1,.338-1.535-.6-.092-.159-.185-.317-.276-.477a1.935,1.935,0,0,0-2.531-1.149c-.561.177-1.07.553-1.62.785a3.493,3.493,0,0,1-1.638.512,2.1,2.1,0,0,1-1.3-1.023c-.866-1.6-2.271-2.537-3.447-3.746a2.62,2.62,0,0,0-1.459-.587,7.84,7.84,0,0,0-1.522.1,2.182,2.182,0,0,1-2.116-.855c-.171-.249-.2-.626-.392-.85a4.2,4.2,0,0,0-3.62-1.677c-.823.059-1.635.289-2.455.412a2.28,2.28,0,0,1-2.164-.938c-.829-1.005-1.6-2.068-2.454-3.048a14.662,14.662,0,0,0-2.247-2.265,19.475,19.475,0,0,0-3.369-1.953,4.227,4.227,0,0,0-3.895-.122,9.129,9.129,0,0,1-1.258.488c-1.393.482-2.8.921-4.18,1.443a4.19,4.19,0,0,1-3.574-.11,7.8,7.8,0,0,0-1.573-.65,11.072,11.072,0,0,0-5.3-.1,10.817,10.817,0,0,0-4.006,2.227c-.95.727-1.758,1.681-2.671,2.475-1.183,1.03-2.395,2.02-3.617,2.99-.719.572-1.477,1.085-2.23,1.6a9.36,9.36,0,0,0-2.859,4.142c-.382.835-.8,1.649-1.155,2.5A9.853,9.853,0,0,0,123,216.65a2.07,2.07,0,0,1-.284,1.122c-.83,1.06-1.69,2.1-2.609,3.06a8.617,8.617,0,0,0-2.011,4.29,7.307,7.307,0,0,0,.552,4.942c.27.517.527,1.184-.193,1.722a2.358,2.358,0,0,0-.831,1.22,16.634,16.634,0,0,0-.681,3.963,22.846,22.846,0,0,0,.689,4.582,10.607,10.607,0,0,0,.989,2.568,6.715,6.715,0,0,0,3.609,2.987,4.378,4.378,0,0,1,2.833,3.163,8.147,8.147,0,0,0,1.329,3.145,1.335,1.335,0,0,1,.269.773,20.266,20.266,0,0,0,.6,5.337,2.458,2.458,0,0,0,1.6,2.176,3.1,3.1,0,0,1,1.215.939,20.3,20.3,0,0,1,1.514,1.892,2.178,2.178,0,0,0,2.729.852,2.458,2.458,0,0,1,2.53.466,2.843,2.843,0,0,0,3.265.415,5.921,5.921,0,0,1,5.376.077c.1.053.382-.047.4-.129a4.085,4.085,0,0,1,1.484-1.971,3.639,3.639,0,0,1,4.632-.553.645.645,0,0,0,.35.133c.689-.068.909.524,1.128,1.04.423.994.788,2.019,1.175,3.032a20.647,20.647,0,0,0,.932,2.379C155.961,270.969,156.1,271.9,156.926,272.259Zm-30.613-13.512c.006.161,0,.492.035.819.112,1.149.258,2.294.349,3.445.084,1.063.086,2.133.172,3.2.176,2.19.44,4.372.564,6.564.13,2.3.164,4.6.182,6.9a8.256,8.256,0,0,1-.305,1.925c-.13.548-.35,1.067-.577,1.741.421-.1.682-.176.946-.224,1.238-.227,1.259-.211,1.586,1.087.258-.17.507-.332.753-.5.869-.584,1.567-.324,1.765.768.135.742.522.94,1.075.913.867-.042,1.733-.132,2.6-.223a4.44,4.44,0,0,0,3.641-2.206c.578-.984,1.169-1.96,1.783-2.916,1.343-2.087,2.692-4.169,4.066-6.231a17.988,17.988,0,0,1,1.249-1.5,8.439,8.439,0,0,1-.838-4.227,1.112,1.112,0,0,0-.919-1.251,6.218,6.218,0,0,0-2.139-.173c-1.458.236-2.89.662-4.343.951a1.013,1.013,0,0,1-.891-.263,2.662,2.662,0,0,0-3.177-.93,2.542,2.542,0,0,1-2.965-1.277,16.866,16.866,0,0,0-1.975-2.266c-.23-.238-.616-.278-.909-.452s-.714-.339-.818-.625C126.845,260.756,126.579,259.671,126.313,258.747Z" transform="translate(-116.169 -194.735)"/>
  <path id="Path_35" data-name="Path 35" d="M214.706,310.871a11.881,11.881,0,0,1,.8,1.195,1.317,1.317,0,0,1,.145.833c-.045.163-.386.226-.743.411a8.377,8.377,0,0,0,.009,1.13c.1.835-.114,1.16-.861,1.331a11.631,11.631,0,0,0-1.369.492c.085.409.157.725.215,1.045a1.98,1.98,0,0,1-1.24,2.431.446.446,0,0,1-.541-.542.7.7,0,0,1,.285-.441c.726-.3.776-.806.62-1.585-.118-.59-.313-.653-.724-.492-.279.11-.545.345-.822.355-.255.009-.671-.14-.741-.34-.129-.37.173-.5.51-.6,1.121-.338,2.23-.732,3.331-1.144a.716.716,0,0,0,.337-.509,12.154,12.154,0,0,0,.016-1.344c-.244-.066-.405-.117-.57-.152a13.987,13.987,0,0,1-1.444-.325.754.754,0,0,1-.324-.492c.242-.377.346-.952.921-.929.377.015.754,0,1.176,0a1.588,1.588,0,0,1,1.454-1.567,9.454,9.454,0,0,0,1.269-.439c1.249-.478,1.609-1.254,1.7-2.987a23.431,23.431,0,0,0-.671-6.447c-.119-.522-.052-1.1-.164-1.621-.307-1.437-.664-2.861-1-4.29a1.779,1.779,0,0,1,.522-1.9,15.544,15.544,0,0,1,1.421-1.194,3.461,3.461,0,0,0,1.421-2.836c.155-2.05.308-4.1.393-6.156.114-2.768.157-5.539.242-8.308.014-.447-.122-1.139.47-1.127.611.012.334.71.339,1.092.027,1.947.066,3.9-.015,5.842-.12,2.888-.313,5.772-.521,8.654a4.751,4.751,0,0,1-2.231,3.928c-1.167.734-1.241,1.227-.873,2.695.262,1.04.4,2.118.591,3.18.194,1.083.447,2.158.558,3.251a50.851,50.851,0,0,1,.4,5.719,3.949,3.949,0,0,1-3.172,3.765A11.925,11.925,0,0,0,214.706,310.871Z" transform="translate(-144.572 -211.965)"/>
  <path id="Path_36" data-name="Path 36" d="M202.107,339.624a2.456,2.456,0,0,1,.54.422,1.88,1.88,0,0,1,.18.592c-.169.045-.355.163-.5.119a5.036,5.036,0,0,1-.814-.408,1.059,1.059,0,0,0,.107,1.5c.479.5.454.535,0,1.031l-.878-.781c-.59.466-.246.9-.024,1.379a3.437,3.437,0,0,1,.146.918,4.536,4.536,0,0,1-.717-.424,3.292,3.292,0,0,1-.443-.594c-.758.309-.792.485-.242,1.387.158.261.518.527.117.806-.351.244-.626-.026-.824-.4a2,2,0,0,0-.634-.728,2.817,2.817,0,0,1,.279.781,2.7,2.7,0,0,1-.2.793c-.186-.115-.453-.179-.542-.355a11.6,11.6,0,0,1-.5-1.342l-.18,0a2.125,2.125,0,0,0-.1.494,3.771,3.771,0,0,1,.088.767c-.042.209-.251.377-.387.563-.156-.152-.4-.275-.451-.464a8.033,8.033,0,0,1-.153-1.219l-.205-.019a4.819,4.819,0,0,1-.133.573c-.074.21-.182.4-.276.606-.174-.147-.5-.3-.5-.44.009-.715-.455-.729-.859-.781a5.469,5.469,0,0,0-1.526-.058,9.347,9.347,0,0,1-4.483-.783,4.746,4.746,0,0,0-4.728,1.032,12.773,12.773,0,0,0-3.711,5.722c-.873,2.344-1.582,4.763-2.368,7.147-.05.152-.114.366-.221.413a1.091,1.091,0,0,1-.636.067.82.82,0,0,1-.064-.551q.825-2.443,1.693-4.869c.5-1.392.947-2.816,1.554-4.149a11.528,11.528,0,0,1,3.485-4.754c1.54-1.112,3.18-1.792,5.09-1.052a10,10,0,0,0,4.539.888c1.263-.114,2.54-.026,3.811-.014a3.877,3.877,0,0,0,3.4-1.685c.04-.055.129-.126.118-.157-.29-.868.67-1,.778-1.666a10.132,10.132,0,0,1,.575-1.856,1.988,1.988,0,0,1,.413-.51c.128.187.251.38.387.559.172.227.35.45.534.665.208.241.765.236.529.786-.219.514-.537.107-.812.011-.068-.023-.137-.044-.206-.067Z" transform="translate(-134.408 -226.452)"/>
  <path id="Path_37" data-name="Path 37" d="M214.815,289.15c-1.031.092-2.062.178-3.093.276-.741.071-.98-.114-.914-.917a19.009,19.009,0,0,1,.383-2.285c.1-.489.4-.642.824-.432a.9.9,0,0,0,.363.114c1.73.019,3.46.03,5.191.04.063,0,.127-.016.191-.015,2.074.043,1.744.15,1.736,2.093a.8.8,0,0,1-.356.581,4.12,4.12,0,0,1-1.21.4,15.88,15.88,0,0,1-1.588.091c-.508.029-1.015.065-1.522.1Zm-2.885-2.319c-.075.4-.1.616-.156.819-.142.552-.04.755.542.707,1.077-.087,2.163-.012,3.24-.088a25.528,25.528,0,0,0,2.758-.4c.142-.026.323-.282.355-.461.088-.487-.235-.513-.556-.518-1.251-.018-2.5-.047-3.751-.061C213.554,286.824,212.744,286.831,211.93,286.831Z" transform="translate(-144.901 -214.935)"/>
  <path id="Path_38" data-name="Path 38" d="M216.165,293.547c-.065.7-.114,1.238-.17,1.781a1.1,1.1,0,0,1-.073.272c-.253.671-1.036.929-1.105,1.792-.009.112-.685.233-1.038.2-.132-.013-.3-.454-.326-.716-.052-.478-.326-.468-.633-.508a3.873,3.873,0,0,1-1.281-.262c-.49-.254-.52-.673-.092-1.058a5.5,5.5,0,0,1,3.1-1.637,2.7,2.7,0,0,0,.717-.266c.221-.093.439-.2.658-.3Zm-3.493,1.678.042.3a16.428,16.428,0,0,0,1.7-.012c.643-.066.87-.446.852-1.3A4.979,4.979,0,0,0,212.672,295.225Z" transform="translate(-145.007 -216.521)"/>
  <path id="Path_39" data-name="Path 39" d="M207.841,323.442a1.843,1.843,0,0,0,.174-.342c.21-.819.8-1.14,1.485-.745a.775.775,0,0,1,.21.587,4.734,4.734,0,0,1-.2.95.46.46,0,0,1-.142.2c-.6-.385-1.308.752-1.81-.212-.483.331-.242,1.35-1.049,1.145a8.771,8.771,0,0,1-.744,1.951c-.229.336-.8.393-1.228.529a.669.669,0,0,1-.235-.439,7.608,7.608,0,0,1,.45-.915c.3-.622.589-1.25.878-1.879.038-.082.036-.188.075-.269A2.027,2.027,0,0,1,207.841,323.442Z" transform="translate(-142.926 -223.036)"/>
  <path id="Path_40" data-name="Path 40" d="M203.583,320.72c-.157-.153-.4-.277-.437-.457a.722.722,0,0,1,.211-.594,24.466,24.466,0,0,0,4.5-4.61c.154-.181.443-.219.669-.324-.028.277.032.631-.1.818a20.457,20.457,0,0,1-1.661,2.123c-.9.981-1.863,1.9-2.805,2.834A1.7,1.7,0,0,1,203.583,320.72Z" transform="translate(-142.575 -221.382)"/>
</svg>
