<svg id="Group_792" data-name="Group 792" xmlns="http://www.w3.org/2000/svg" width="75" height="124.54" viewBox="0 0 75 124.54">
  <path id="Path_66" data-name="Path 66" d="M437.281,296.464a24.557,24.557,0,0,1-1.134-4.352c.189.039.3.028.356.078.322.277.722.68,1.055.218.351-.485-.243-.681-.558-.884a9.679,9.679,0,0,1-2.529-1.851.674.674,0,0,0-1.032.076c-.358.407.055.595.37.773a6.114,6.114,0,0,1,.643.42c.363.271.961.483.26,1.042-.15.119-.18.444.043.475.805.112.672.8.717,1.247a10.066,10.066,0,0,0,.712,2.431,15.887,15.887,0,0,1,1.171,3.887,15.38,15.38,0,0,1-1.532,7.46c-1.5,3.453-3.018,6.919-3.235,10.773a15.547,15.547,0,0,1-.439,2.44,29.379,29.379,0,0,0-.886,4,12.5,12.5,0,0,1-.709,3.648,10.545,10.545,0,0,0-.146,1.514c-.193,1.269-.313,2.556-.595,3.8a23.949,23.949,0,0,0-.665,6.018,14.225,14.225,0,0,1-.4,3.5,2.507,2.507,0,0,1-1.855,1.829,33.585,33.585,0,0,1-6.5.906,47.32,47.32,0,0,1-5.165-.247,9,9,0,0,1-6.764-2.471c-.843-.864-1.687-1.722-2.565-2.553a38.454,38.454,0,0,0-4.862-3.833,14.357,14.357,0,0,1-2.769-2.27,67.139,67.139,0,0,0-5.246-5.176,17.748,17.748,0,0,1-2.128-1.776,59.489,59.489,0,0,1-4.136-6.01,22.994,22.994,0,0,1-2.254-6.258q-.986-3.583-2.03-7.15c-.09-.308-.175-.787-.682-.595-.4.154-.348.58-.332.93a2.225,2.225,0,0,0,.142.454c.464,1.687,1,3.361,1.426,5.049a44.435,44.435,0,0,0,1.982,6.679,27.518,27.518,0,0,0,4.443,6.96c.382.449.6,1.027,1.135,1.366a21.833,21.833,0,0,1,5,4.344c2.218,2.634,5.068,4.42,7.718,6.472,1.457,1.129,2.616,2.521,3.936,3.765a10.764,10.764,0,0,0,2.768,2.112c1.8.846,3.686.845,5.595,1.054a38.92,38.92,0,0,0,11.134-.6,3.031,3.031,0,0,0,2.722-1.947,12.745,12.745,0,0,0,.613-2.484c.125-1.534.069-3.074.168-4.6a61.918,61.918,0,0,1,1.335-7.913c.166-.443.042-.945.275-1.375l.288-1.876c.146-.319.039-.7.239-1a26.943,26.943,0,0,1,.3-2.74,30.773,30.773,0,0,0,1.039-4.288c.233-3.874,1.829-7.282,3.338-10.725A12.587,12.587,0,0,0,437.281,296.464Z" transform="translate(-368.698 -222.397)" fill="#1a1311"/>
  <path id="Path_67" data-name="Path 67" d="M382.808,217.01a16.374,16.374,0,0,1,3.782-4.682,29.233,29.233,0,0,1,6.257-3.682,33.287,33.287,0,0,1,6.567-2.528A41.575,41.575,0,0,0,409,202.765a7.1,7.1,0,0,1,6.6.178,33.574,33.574,0,0,0,6.552,2.82,17.955,17.955,0,0,1,5.825,2.256,3.934,3.934,0,0,1,1.941,2.289c.123.521-.191,1.026.1,1.5a1.929,1.929,0,0,1,.052,2.007,1.808,1.808,0,0,0-.078,1.062c.214,1.125.989.318,1.622.385a7.243,7.243,0,0,1-1.357,2.909,1.471,1.471,0,0,0-.49,1.006c.011.208.056.423.225.5.2.091.366-.087.474-.248a8.667,8.667,0,0,0,1.589-3.018c.351-1.69.419-1.675-.887-2.39a1.9,1.9,0,0,0,.127-.951,1.2,1.2,0,0,1-.186-.628,9.946,9.946,0,0,0-.511-2.887c-.7-2.042-2.592-2.761-4.336-3.462-1.791-.719-3.752-1-5.567-1.672a38.171,38.171,0,0,1-4.591-2.183,7.866,7.866,0,0,0-7.768-.25A32.133,32.133,0,0,1,402,204.527a52.05,52.05,0,0,0-7.372,2.487c-3.069,1.417-6.255,2.6-8.806,4.93a16.336,16.336,0,0,0-2.412,2.323c-.9,1.26-1.452,2.758-2.414,3.993a22.455,22.455,0,0,1-5.991,5.623,4.412,4.412,0,0,0-1.543,1.185c-.173.256-.36.537-.148.775.236.264.617.046.777-.116,1.4-1.425,3.319-2.167,4.7-3.639A29.707,29.707,0,0,0,382.808,217.01Z" transform="translate(-366.712 -201.077)" fill="#1a1311"/>
  <path id="Path_68" data-name="Path 68" d="M381.532,298.383c.671-.119.431-.582.419-1.04-.059-2.16-.228-4.321-.079-6.484-.156-.33.083-.673-.03-1,.2-1.222-.087-2.474.223-3.689.209-.365.045-.819.282-1.178a3.181,3.181,0,0,0,.838-1.836,74.213,74.213,0,0,1,1.1-8.281c.231-1.26.077-2.558.225-3.838.075-.644.716-1,.619-1.668-.05-.344-.107-.633-.537-.662a.5.5,0,0,0-.6.469c-.131.691-.322,1.374-.4,2.071-.417,3.567-.776,7.139-1.338,10.692-.17,1.074-1.036,1.806-1.012,2.885a1.948,1.948,0,0,1-.143,1.153c-.147,2.568-.3,5.136-.363,7.738a23.413,23.413,0,0,1-1.336-3.324,28.825,28.825,0,0,0-1.305-4.317,13.7,13.7,0,0,0-3.473-4.523c-.349-.286-.631-.634-1.04-.2-.488.514.176.735.383.93a13.111,13.111,0,0,1,3.934,6.365,40.78,40.78,0,0,0,2.394,6.909,4.168,4.168,0,0,1,.415,1.808C380.692,297.69,380.69,298.532,381.532,298.383Z" transform="translate(-366.755 -217.388)" fill="#1a1311"/>
  <path id="Path_69" data-name="Path 69" d="M449.216,225.814c.335.477.408,1.047.8,1.792.092-.451.2-.656.153-.811-.326-1.04.183-1.129,1.036-1.031a8.963,8.963,0,0,1,7.218,6.284,15.8,15.8,0,0,1,.757,4.487c-.03,1.341-.015,2.682-.036,4.023,0,.174.039.411-.18.5-.175.073-.313-.04-.393-.193a14.3,14.3,0,0,0-1.867-2.137c-.219-.273-.56-.616-.874-.428s-.212.615-.046.966a4.631,4.631,0,0,1,.319,2.418c-.039.477,0,1.028-.514,1.269-.567.263-.96-.143-1.346-.491a3.739,3.739,0,0,0-.395-.276.55.55,0,0,0-.709-.027.462.462,0,0,0-.067.621c.28.518.627,1,.931,1.5.9,1.491,1.117,2.688.095,3.978a3.527,3.527,0,0,0-.731,2.5c.053,1.147.354,2.279-.418,3.326a.51.51,0,0,0,.233.747c.289.153.451-.039.635-.256a3.729,3.729,0,0,0,.628-2.756,6.589,6.589,0,0,1,.55-3.269,4.143,4.143,0,0,0,.47-3.2,11.065,11.065,0,0,0-.637-1.277c-.183-.391-.034-.467.285-.463,1.7.02,2.047-.47,1.758-2.137-.08-.463-.361-1.294.189-1.5.377-.141.663.643.9,1.085.061.112.081.249.152.354.25.37.5.793,1.036.678.5-.109.634-.5.726-.994a32.385,32.385,0,0,0,.121-4.5,11.99,11.99,0,0,0-.837-4.931,11.313,11.313,0,0,0-6.236-6.5,3.93,3.93,0,0,0-3.264-.146C449.279,225.188,448.99,225.492,449.216,225.814Z" transform="translate(-385.024 -206.78)" fill="#1a1311"/>
  <path id="Path_70" data-name="Path 70" d="M370.125,269.078a32.366,32.366,0,0,1-2.466-3.788c-.13-.2-.278-.338-.162-.673a1.91,1.91,0,0,0-.949-2.524c-.886-.42-.755-.985-.54-1.628.092-.275.152-.553.238-.824.6-1.861.844-3.84,1.892-5.55a9.6,9.6,0,0,0,1.042-1.918,11.807,11.807,0,0,0-.329-8.046,5.1,5.1,0,0,1,.209-4.126,23.611,23.611,0,0,1,2.181-3.474c.184-.278.435-.615.132-.845-.36-.272-.758-.042-.982.315-.132.212-.248.429-.392.639a13.771,13.771,0,0,0-2.495,4.795,1.7,1.7,0,0,0-.094.957,5.9,5.9,0,0,0,.713,2.524,13.423,13.423,0,0,1,.588,4.774,8.4,8.4,0,0,1-1.546,3.952,9.232,9.232,0,0,0-1.458,3.035,22.792,22.792,0,0,1-.818,3.865c-.461,1.393-.348,1.741.983,2.339.677.3.889.72.445,1.329a.9.9,0,0,0-.007,1.129,20.55,20.55,0,0,0,3.453,4.083c.117.121.248.214.413.067S370.224,269.194,370.125,269.078Z" transform="translate(-364.644 -209.395)" fill="#1a1311"/>
  <path id="Path_71" data-name="Path 71" d="M451.608,270.016c.527.073.558-.49.681-.863a1.584,1.584,0,0,0,.061-.479c0-2.2.033-4.391-.023-6.585-.074-2.895-.237-5.787-.324-8.682a10.648,10.648,0,0,0-.189-2.359c-.077-.3-.094-.586-.543-.4-.3.125-.546.116-.385.615a8.311,8.311,0,0,1,.513,2.78c-.05,1.9.123,3.79.105,5.693-.023,2.384.088,4.769-.088,7.152a1.694,1.694,0,0,1-.116,1.083c.02.383.015.769.067,1.149C451.409,269.434,451.1,269.947,451.608,270.016Z" transform="translate(-385.434 -213.02)" fill="#1a1311"/>
  <path id="Path_72" data-name="Path 72" d="M425.6,333.455a38.932,38.932,0,0,1-3.885-3.97c-.29-.379-.578-.7-1.09-.272-.539.444-.128.75.15,1.016,1.028.983,1.9,2.106,2.957,3.07a5.921,5.921,0,0,0,3.814,1.913,1.522,1.522,0,0,0,1.275-.084,6,6,0,0,0,2.284-1.86c.3-.363.549-.708,1.092-.59.2.043.4.021.441-.237a.424.424,0,0,0-.184-.5c-.47-.3-.92-.483-1.364.041-.289.341-.634.642-.886,1.008A2.855,2.855,0,0,1,425.6,333.455Z" transform="translate(-378.083 -231.937)" fill="#1a1311"/>
  <path id="Path_73" data-name="Path 73" d="M433.073,324.942a.769.769,0,0,0-1.1.083,1.543,1.543,0,0,1-1.082.481,49.227,49.227,0,0,1-5.678.5c-1.795.046-3.581.53-5.388.039-.392-.106-.5.274-.559.624a.409.409,0,0,0,.319.511,18.231,18.231,0,0,0,2.724,0c3.047-.462,6.136-.392,9.185-.8.277-.037.64-.147.671.405.055,1,.557.409.917.209s.261-.628.433-.934C433.769,325.609,433.492,325.234,433.073,324.942Z" transform="translate(-377.817 -230.909)" fill="#1a1311"/>
  <path id="Path_74" data-name="Path 74" d="M444.842,287.516c.406-.156.371-.135.3-.584-.156-1.043-1.119-.779-1.615-1.232a3.166,3.166,0,0,0-3.553-.326c-.542.212-1.276.316-1.36.97a9.119,9.119,0,0,0,.06,1.119c.1.536.9.958,1.321.654a3.479,3.479,0,0,1,1.626-.42C442.69,287.51,443.773,287.927,444.842,287.516Z" transform="translate(-382.487 -221.318)" fill="#1a1311"/>
  <path id="Path_75" data-name="Path 75" d="M417.57,286.995c-.377-.822-1.369-.575-1.846-1.2-.816.379-1.837-.3-2.273.165-.574.605-1.479.836-1.832,1.672-.082.195-.292.348-.207.588.1.285.36.336.628.352.8.049,1.631.053,2.4.045a11.482,11.482,0,0,0,3.473-.244c.242-.078.634.011.661-.417a.554.554,0,0,0-.559-.642A.532.532,0,0,1,417.57,286.995Z" transform="translate(-375.92 -221.512)" fill="#1a1311"/>
  <path id="Path_76" data-name="Path 76" d="M376.755,300.45a21.42,21.42,0,0,1-2.859-3.9c-.807-1.311-.253-2.362,1.043-2.465a.9.9,0,0,1,.759.308c.25.24.629.329.832-.02a.629.629,0,0,0-.319-.877,2.991,2.991,0,0,0-.815-.194c-2.647.049-3.567.687-2.744,3.069a10.739,10.739,0,0,0,3.437,4.842c.351.283.738.517,1.041.181C377.484,301,377.008,300.708,376.755,300.45Z" transform="translate(-366.505 -223.322)" fill="#1a1311"/>
  <path id="Path_77" data-name="Path 77" d="M398.151,300.354c.2-.068.394-.1.454-.4a8.163,8.163,0,0,1,2.009-3.751,12.731,12.731,0,0,1,5.14-3.677c.291-.108.662-.247.641-.628-.018-.355-.392-.24-.638-.315a1.8,1.8,0,0,0-.366,0c-.42.082-.719.411-1.09.571-3.2,1.379-4.953,4.109-6.574,6.973a.936.936,0,0,0-.062.9C397.752,300.238,397.855,300.452,398.151,300.354Z" transform="translate(-372.588 -222.905)" fill="#1a1311"/>
  <path id="Path_78" data-name="Path 78" d="M449.094,239.894a22.051,22.051,0,0,1-2.061-1.707c-.2-.223-.535-.423-.83-.1a.38.38,0,0,0,.071.6c1.232.7,2.2,1.792,3.54,2.327.275.11.54.338.77.064a.741.741,0,0,0-.011-.9,13.759,13.759,0,0,1-.738-1.4c-.2-.432-.646-.85-.505-1.313.157-.516.788-.42,1.232-.543.2-.055.381-.183.375-.383a.325.325,0,0,0-.392-.322,9.174,9.174,0,0,1-1.722-.025c-.51.048-.9.157-.527.911a30.548,30.548,0,0,0,1.464,2.992A.6.6,0,0,1,449.094,239.894Z" transform="translate(-384.29 -209.545)" fill="#1a1311"/>
  <path id="Path_79" data-name="Path 79" d="M430.729,338.463c.206.024.364.094.458.044q2.007-1.086,3.993-2.21a.334.334,0,0,0,.135-.5c-.158-.186-.344-.432-.633-.355a3.059,3.059,0,0,0-.772.341,10.241,10.241,0,0,1-3.218,1.737c-.288.055-.394.284-.411.573C430.257,338.515,430.583,338.421,430.729,338.463Z" transform="translate(-380.476 -233.485)" fill="#1a1311"/>
  <path id="Path_80" data-name="Path 80" d="M430.8,332.839a14.225,14.225,0,0,0,3.3-1.181c.244-.1.193-.354.071-.581a.377.377,0,0,0-.528-.231c-.96.3-1.933.565-2.895.862-.359.111-.4.376-.332.734C430.461,332.707,430.51,332.867,430.8,332.839Z" transform="translate(-380.502 -232.371)" fill="#1a1311"/>
  <path id="Path_81" data-name="Path 81" d="M406.266,289.128c-.568.053-1.293.092-2.007.2-.492.074-1.04.375-.912.879.089.351.694.266,1.11.125a3.762,3.762,0,0,1,1.868-.219c.382.065.932.26,1-.37S406.8,289.24,406.266,289.128Z" transform="translate(-373.975 -222.316)" fill="#1a1311"/>
  <path id="Path_82" data-name="Path 82" d="M406.944,287.024a20.037,20.037,0,0,0-2.3-.143c-.177,0-.354.247-.532.379.147.166.267.425.448.479a6.623,6.623,0,0,0,1.145.152l0,.032c.353.04.7.082,1.058.121.325.036.46-.162.533-.435A.432.432,0,0,0,406.944,287.024Z" transform="translate(-374.165 -221.774)" fill="#1a1311"/>
  <path id="Path_83" data-name="Path 83" d="M449.288,287.708a1.248,1.248,0,0,1,.622.036c.33.131.907.477,1.059-.039s-.48-.655-.887-.813a1.974,1.974,0,0,0-.475-.061l0-.011c-.1-.011-.191-.03-.287-.031-.319-.006-.75-.226-.756.384C448.561,287.681,448.914,287.731,449.288,287.708Z" transform="translate(-384.887 -221.742)" fill="#1a1311"/>
  <path id="Path_84" data-name="Path 84" d="M433.327,318.439a3.084,3.084,0,0,0,1.343-1.543.666.666,0,0,0-.1-.271.289.289,0,0,0-.431.013,7.317,7.317,0,0,1-1.329,1.03c-.237.153-.186.382-.051.593A.4.4,0,0,0,433.327,318.439Z" transform="translate(-381.045 -228.927)" fill="#1a1311"/>
  <path id="Path_85" data-name="Path 85" d="M396.479,257.078c.912-.725,1.315-.576,1.709.543a6.078,6.078,0,0,1,.317,1.1c.116.762.564.9,1.115.382a2.709,2.709,0,0,0,.568-.761,11.867,11.867,0,0,1,4.637-5.14,4.973,4.973,0,0,0,2.688-3.731c.173-.329.072-.726.263-1.05a9.594,9.594,0,0,1,.453-1.562c1.369-2.869,3.986-4.043,6.8-4.911,1.546-.476,3.182-.526,4.718-1.116a46.713,46.713,0,0,0,8.445-4.114c2.877-1.837,5.236-4.138,5.447-7.867.014-.258.235-.651-.175-.739-.377-.08-.46.268-.6.589a24.111,24.111,0,0,0-.633,2.66c-.646,2.015-2.366,3.12-3.935,4.233a34.8,34.8,0,0,1-8.917,4.359c-2.331.8-4.872.871-7.1,2.047-.086.046-.241-.035-.543-.09a28.051,28.051,0,0,0,5.11-3.49,11.038,11.038,0,0,0,2.722-3.745.716.716,0,0,0-.322-.954c-.318-.146-.395.285-.458.568a1.369,1.369,0,0,1-.152.448,16.513,16.513,0,0,1-4.672,4.818c-3.109,2.086-6.353,3.936-9.558,5.855a28.11,28.11,0,0,0-6,4.723,24.733,24.733,0,0,0-4.46,7.469,6.028,6.028,0,0,0-.636,3.2c.074.53-.178,1.406.52,1.467.757.066.671-.851.859-1.394.189-.381.06-.832.271-1.209A4.254,4.254,0,0,1,396.479,257.078ZM410.954,242.6c.145-.383.467-.4.882-.491a1.226,1.226,0,0,1-.833.561,1.4,1.4,0,0,1-.866.532C410.4,242.79,410.579,242.58,410.954,242.6Zm-15.807,14.64c-.159-.558.257-.811.407-1.158a22.073,22.073,0,0,1,9.24-9.981q1.755-1.074,3.534-2.109a1.632,1.632,0,0,1,.986-.329l.39-.341.109.122-.508.395h0a6.238,6.238,0,0,0-2.377,4.447,5.818,5.818,0,0,1-3.229,4.578,11.63,11.63,0,0,0-3.887,4.051c-.134.208-.187.546-.457.561-.345.019-.285-.359-.386-.577-.61-1.316-1.77-1.528-2.984-.528A10.79,10.79,0,0,0,395.147,257.239Z" transform="translate(-371.551 -207.595)" fill="#1a1311"/>
  <path id="Path_86" data-name="Path 86" d="M445.566,277.97c.077-.167,0-.3-.2-.349a8.506,8.506,0,0,1-2.45-1.4,3.915,3.915,0,0,0-2.468-.886,15.616,15.616,0,0,0-4.833,1.012c-.4.185-.863-.03-1.257.352a9.061,9.061,0,0,0-2.694,6.14,52.238,52.238,0,0,0,.6,8.7c.376,3.462,1.347,6.853,1.25,10.375a.639.639,0,0,0,.706.721c.366-.042.444-.319.42-.713-.171-2.954-.892-5.827-1.242-8.75-.278-2.33-.558-4.665-.673-7.017-.052-1.063.094-2.11.042-3.165.22-.415.024-.926.307-1.327.03-.256-.023-.568.1-.76.393-.593.116-1.6,1.081-1.829a19.526,19.526,0,0,1,6.659-.248,9.789,9.789,0,0,0,3.993-.259A.969.969,0,0,0,445.566,277.97Zm-6.047-.127c.443-.322.867-.712,1.54-.451C440.65,278.064,440.033,277.77,439.519,277.843Z" transform="translate(-380.8 -218.984)" fill="#1a1311"/>
  <path id="Path_87" data-name="Path 87" d="M420.61,278.138c.165.425.481.606.811.423.42-.233.036-.633-.094-.825-.592-.871-1.164-1.831-2.458-1.717-.414.036-.586-.115-.524-.558.085-.616-.185-.805-.834-.822a9.813,9.813,0,0,1-4.381-.93,1.647,1.647,0,0,0-1.988.152.914.914,0,0,1-.421.215c-1.584.142-2.9,1.1-4.409,1.445-.26.06-.437.19-.424.432.011.2.237.3.428.32.86.1,1.675.4,2.529.55a18.559,18.559,0,0,1,3.923.831,11.487,11.487,0,0,0,6.432.906c.209-.036.5.121.609-.137.127-.288-.179-.446-.32-.642a6.32,6.32,0,0,0-.53-.563A1.529,1.529,0,0,1,420.61,278.138Zm-9.728-1.957a5.892,5.892,0,0,1,2.839-.206A4.527,4.527,0,0,1,410.881,276.181Zm5.755-.181c-.123-.015-.263-.11-.189-.241a.423.423,0,0,1,.492-.169.206.206,0,0,1,.187.262C417.01,276.04,416.816,276.021,416.636,276Z" transform="translate(-374.592 -218.534)" fill="#1a1311"/>
</svg>
