<svg xmlns="http://www.w3.org/2000/svg" width="210.977" height="57.641" viewBox="0 0 210.977 57.641">
  <g id="Group_828" data-name="Group 828" transform="translate(-25.503 -37.945)">
    <path id="Path_96" data-name="Path 96" d="M25.5,88.489V45.755h9.4V79.942H56.21v8.546Z" transform="translate(0 5.921)" fill="#1a1311"/>
    <path id="Path_97" data-name="Path 97" d="M88.894,88.489V45.755H99.027l11.234,18.071,11.233-18.071h10.135V88.489h-9.341V60.59L110.261,78.843h-.244l-11.9-18.071V88.489Z" transform="translate(48.059 5.921)" fill="#1a1311"/>
    <path id="Path_98" data-name="Path 98" d="M135.669,67.306h7.447a7.77,7.77,0,0,0,5.433-1.832,6,6,0,0,0,2.015-4.64V60.71a5.887,5.887,0,0,0-2.015-4.791,8.517,8.517,0,0,0-5.615-1.679h-7.265Zm-9.4,21.182V45.755h17.46q7.571,0,11.966,4.06a13.891,13.891,0,0,1,4.4,10.712v.123q0,7.144-4.884,11.082T142.81,75.668h-7.142v12.82Z" transform="translate(76.393 5.921)" fill="#1a1311"/>
    <path id="Path_99" data-name="Path 99" d="M72.039,40.357h-.4a3.907,3.907,0,0,0-.839.142,2.7,2.7,0,0,0-.313.1h-.009a4.008,4.008,0,0,0-1.292.8l-.107.1v.007a4.052,4.052,0,0,0-.285.316,3.823,3.823,0,0,0-.86,2.3v.3a3.578,3.578,0,0,0,.141.893c.032.111.067.222.107.324a3.845,3.845,0,0,0,.9,1.4v0l.007.009a4.11,4.11,0,0,0,.309.28c.111.083.232.172.341.246a3.93,3.93,0,0,0,1.964.61H72a3.93,3.93,0,0,0,.891-.141c.1-.032.216-.065.313-.1a3.916,3.916,0,0,0,1.4-.907v0c.1-.105.2-.214.283-.315s.176-.227.248-.338a3.886,3.886,0,0,0,.608-1.915v-.4a4.034,4.034,0,0,0-.132-.835c-.033-.1-.067-.213-.105-.318a3.984,3.984,0,0,0-.765-1.259l-.137-.141-.007,0a2.931,2.931,0,0,0-.316-.28,3.136,3.136,0,0,0-.336-.246,4,4,0,0,0-1.913-.617m5.174,17.177H66.481l-1.248,1c-.833,2.544-5.048,15.428-6.855,22.761a12.291,12.291,0,0,0-.508,4.33c.121.707.659,1.162,2.034.921l.047-.005.037-.005.019,0,.06-.007H60.1l.049-.005h.014l.22-.012.035,0,.053,0h.051l.037,0,.076-.005h.019l.1,0v0l.105,0,.019,0,.132,0,.065,0,.214,0h.023l.121,0,0,0h.253l.058,0h.009l.232,0,.251,0H63.3l.278,0c.955.005,1.946.014,2.767.026h.04l.257,0h.014l.8.011.063,0,.146.005h.028V84H76v2.514h.028l.146-.005.062,0,.8-.011h.014l.258,0h.035c.823-.012,1.814-.021,2.771-.026l.276,0h1.067l.251,0,.236,0h.007l.06,0h.251l0,0,.123,0h.021l.214,0,.065,0,.128,0,.023,0,.1,0,0,0,.1,0h.018l.077.005.035,0h.055l.051,0,.033,0,.218.012h.016l.051.005h.025l.062.007.021,0,.035.005.047.005c1.38.241,1.913-.214,2.034-.921a12.213,12.213,0,0,0-.51-4.33c-1.806-7.333-6.02-20.217-6.855-22.761ZM61.525,54.528h3.066l.772-3H63.969v-3h3.205c-.09-.1-.176-.2-.258-.311a6.657,6.657,0,0,1-.4-.549,6.264,6.264,0,0,1-.971-2.89h-.033v-1.02h.032a6.5,6.5,0,0,1,.3-1.5c.051-.148.105-.3.171-.457a6.376,6.376,0,0,1,1.354-2.01l.148-.142h.012a3.286,3.286,0,0,1,.357-.309,6.061,6.061,0,0,1,.547-.4,6.212,6.212,0,0,1,2.9-.97v-.026h1.016v.026a6.3,6.3,0,0,1,1.494.3c.153.053.3.105.455.172A6.367,6.367,0,0,1,76.325,39.8l.142.144v.009c.105.114.207.236.311.362a5.3,5.3,0,0,1,.389.554,6.2,6.2,0,0,1,.976,2.894h.026v1.007h-.026a6.242,6.242,0,0,1-.3,1.507c-.053.149-.113.3-.172.454a6.241,6.241,0,0,1-1.16,1.8H79.72v3H78.437l.679,3h3.05v3.006H80.775l.011.033.183.566.018.044.014.049.011.028.1.324.037.113.777,2.4.011.035.049.146.069.214.033.113.086.262.023.07.22.691,0,.014.111.343.019.06.095.3.035.109.084.265.049.155.07.218.065.214.053.171.5,1.588.007.023.121.385.021.076.107.336.186.6.072.237.2.649.021.069.039.13.109.35.025.077.047.158.164.543.049.158.007.032.123.4.026.088.011.039.207.679.148.494.076.255.053.179.093.306.037.127.105.36.271.928.014.039.032.106.107.376.1.332.042.146.077.274.12.42.07.25.113.4.019.069.032.113.1.348.016.058.169.614.127.454.336,1.266,0,.009.164.636.025.09.077.311.011.044.088.345a15.316,15.316,0,0,1,.561,5.8c-.39,2.282-1.693,3.822-4.784,3.284l-.079-.009-.009,0-.095-.009h-.016l-.127-.009H83.1l-.063,0h-.019l-.447-.016h-.056l-.179,0h-.316v2.667h2.423v3.457h-25.2V92.129h2.432V89.462H61.36l-.183,0h-.055l-.448.016h-.019l-.063,0h-.019l-.054,0H60.5l-.019,0-.032.005h-.019l-.044,0h-.012l-.014,0-.025,0-.009,0-.079.009c-3.094.538-4.388-1-4.779-3.284a15.2,15.2,0,0,1,.55-5.8l.088-.345.011-.044.079-.311.025-.09.069-.269.037-.142.058-.23.051-.19.049-.183.063-.244.039-.139.079-.3.026-.091.188-.691.026-.1,0-.007.04-.144c.656-2.363,1.426-4.967,2.194-7.491l.009-.026c.782-2.57,1.57-5.058,2.228-7.122l.011-.032.874-2.715.011-.028.635-1.964H61.525Zm7.393,20.108c.668-2.229,3.771-5.619,2-8.165C75.443,69.293,76.7,78.6,71.947,80.865,69.862,79.81,68.118,77.319,68.918,74.636ZM71.845,83.3c-13.365.213-8.984-9.782-4.858-24.53H76.7C80.831,73.516,85.209,83.511,71.845,83.3Z" transform="translate(22.637 0)" fill="#1a1311" fill-rule="evenodd"/>
  </g>
</svg>
