<svg xmlns="http://www.w3.org/2000/svg" width="334.377" height="372.842" viewBox="0 0 334.377 372.842">
  <g id="Group_902" data-name="Group 902" transform="translate(1566.477 294.604)">
    <path id="Path_436" data-name="Path 436" d="M-1402.782-124.321c-.1-.221-.3-.455-.278-.659.081-.619.063-1.516.438-1.761a2.181,2.181,0,0,1,1.819.21c2.141,1.2,4.209,2.532,6.322,3.784.943.558,1.549.54,2.065-.74a16.318,16.318,0,0,1,2.495-4.031c.913-1.13.513-2.312.252-3.318-.776-2.982-1.749-5.92-2.782-8.826a15.98,15.98,0,0,0-4.513-6.147,32.737,32.737,0,0,1-4.3-4.855c-.474-.668-.134-1.89-.238-2.851-.044-.411-.213-1.107-.43-1.151-1.2-.243-2.449-.257-3.655-.488a3.282,3.282,0,0,1-1.955-.86c-.312-.435-.083-1.343.077-2,.118-.486.625-.874.756-1.361a1.851,1.851,0,0,1,2.243-1.558c1.2.155,1.58.978,1.556,2.079-.005.24,0,.479,0,.547l21.9,10c.68-.712,1.259-1.335,1.857-1.94,5.34-5.4,8.844-11.611,8.516-19.468a2.269,2.269,0,0,0-1.084-1.473c-4.243-2.515-8.545-4.933-12.793-7.44a68.154,68.154,0,0,1-5.85-3.783,16.323,16.323,0,0,1-2.674-2.836c-1.236-1.491-2.407-3.037-3.59-4.571-.53-.688-.939-1.471-2.083-1.121-.249.076-.915-.371-.981-.667-.617-2.773-2.858-4.113-4.942-5.461-4.585-2.965-9.271-5.778-13.95-8.595a6.736,6.736,0,0,0-2.729-.765,12.066,12.066,0,0,0,4.587,3.522,2.626,2.626,0,0,1,1.226,1.163c.1.212-.407,1.029-.7,1.062a2.283,2.283,0,0,1-1.485-.51c-3.533-2.74-6.437-6.288-10.638-8.179a6.169,6.169,0,0,1-1.923-1.511c-.315-.346-.624-1.134-.447-1.412.7-1.1.061-1.809-.488-2.607q-4.2-6.1-8.379-12.214a7.148,7.148,0,0,1-.626-1.138c-.856-1.937-.348-2.974,2.083-3.607l-16.737-7.7a6.293,6.293,0,0,0,.386,1.854,1.347,1.347,0,0,1-.26,2.039c-4.5,3.422-7.9,7.833-11.234,12.319a24.578,24.578,0,0,0-1.76,2.124c-1.746,3.03-5.183,2.313-7.471,1.121a22.676,22.676,0,0,1-4.354-3.37c-.405-.361-.443-1.136-.649-1.721.675,0,1.491-.247,2,.045,1.461.839,2.761,1.955,4.194,2.849a3.525,3.525,0,0,0,4.562-.372,59.857,59.857,0,0,0,5.089-5.548c2.612-3.229,5.085-6.569,7.629-9.877-1.254-3.621-5.057-3.7-8.152-4.975-1.606,1.756-3.153,3.552-4.813,5.239a53.561,53.561,0,0,1-14.26,10.151,88.97,88.97,0,0,0-8.619,5.6c-.282.187-.536.575-.811.583a10.643,10.643,0,0,1-1.833-.24c.093-.565-.014-1.35.318-1.651a13.87,13.87,0,0,1,2.976-2.056c3.23-1.647,6.554-3.113,9.759-4.807a44.539,44.539,0,0,0,16.418-14.464,1.481,1.481,0,0,1,1.99-.628c.362.136.709.31,1.064.464a2.194,2.194,0,0,0,1.25.226c-.318-.545-.592-1.122-.961-1.63q-11.883-16.353-23.8-32.682c-1.944-2.656-4.091-5.164-6.033-7.821a49.127,49.127,0,0,1-2.553-4.347c-.854,1.059-1.757,2.162-2.642,3.279q-7,8.833-14.007,17.664a16.161,16.161,0,0,1-1.89,2.013c-1.839,1.633-3.812,3-6.945,2.458,2.123,3.37,3.944,6.316,5.845,9.208.235.357.887.487,1.374.623a1.664,1.664,0,0,1,1.255,2.288,1.975,1.975,0,0,0,.166,1.438q6.981,10.372,14.052,20.683c.513.749,1.306,1.3,1.855,2.032a4.822,4.822,0,0,1,.766,1.736c.036.15-.635.7-.788.63a3.438,3.438,0,0,1-1.453-1.036q-6.142-9.006-12.207-18.065c-1.191-1.769-2.36-3.552-3.546-5.323-1.061-1.585-1.856-1.78-3.678-1.122-3.629,1.311-7.256,2.635-10.931,3.806a32.5,32.5,0,0,1-4.444.73c-3.018.51-4.522,3.137-3.042,5.811,2.712,4.9,5.706,9.644,8.478,14.512,1.454,2.553,2.69,5.231,4.022,7.854.329.647.65,1.3.977,1.946.486.963.657,1.944-.5,2.486s-1.69-.41-2.077-1.246c-.954-2.058-1.665-4.246-2.782-6.207-1.693-2.972-3.779-5.721-5.457-8.7-2.1-3.73-4.366-7.45-5.8-11.447-1.336-3.727.868-6.141,4.089-7.27,1.977-.693,4.2-.665,6.213-1.279,3.641-1.11,7.213-2.45,10.806-3.716.825-.291,1.029-.767.39-1.529-1.431-1.709-2.792-3.478-4.216-5.194-.935-1.127-1.459-2.269-.6-3.688a.97.97,0,0,0-.036-.791c-.673-1.335.134-1.81,1.188-1.7,2.6.277,4.538-.939,6.162-2.645q5.714-6,11.212-12.211c1.959-2.211,3.75-4.578,5.518-6.948.8-1.069,1.29-2.36,2.05-3.462a5.68,5.68,0,0,1,1.492-1.1c.276.5.574.98.818,1.491.117.245.038.642.207.8,2.882,2.641,5.58,5.6,9.286,7.082,4.84,1.938,9.728,3.8,14.959,4.483,2.637.346,5.272.721,7.888,1.2a2.419,2.419,0,0,1,1.668,1.076c.159.414-.586,1.118-.779,1.741-.277.891-.829,1.991-.538,2.708a44.926,44.926,0,0,0,3.241,6.311A205.558,205.558,0,0,0-1436-238.2c.954,1.085,2.144,1.961,3.137,3.016a4.855,4.855,0,0,1,.981,1.776c.049.148-.687.811-.882.74a3.952,3.952,0,0,1-1.7-1.071c-2.106-2.589-4.087-5.281-6.2-7.865a226.673,226.673,0,0,1-15.8-22.29c-1.867-2.942-4.01-5.708-5.955-8.6-1-1.482-2.114-3.016-.64-5.142a135.1,135.1,0,0,1-24.9-7.011,11.382,11.382,0,0,0,.781,1.6c2.847,3.862,5.771,7.668,8.569,11.566,5.794,8.074,11.524,16.193,17.281,24.293a16.007,16.007,0,0,0,2.5,3.375,25.8,25.8,0,0,0,5.146,3.126c6.126,2.9,12.316,5.669,18.461,8.532,1.752.816,3.435,1.781,5.146,2.683.256.135.5.293.746.451.846.549,1.309,1.312.615,2.182s-1.43.351-2.15-.178c-1.981-1.456-4-2.866-6.007-4.282a6.01,6.01,0,0,0-1.034-.379,13.971,13.971,0,0,0,.608,3.372c1.171,2.491,2.5,4.912,3.874,7.3a2.385,2.385,0,0,0,1.558.985c2.486.342,4.991.549,7.49.8,1.684.17,3.369.322,5.052.5,5.831.617,10.979,2.66,14.87,7.24a3.339,3.339,0,0,1,.916,1.9c-.026,2.954,1.261,5.538,2.1,8.248.187.6.433,1.185.562,1.8.638,3.021,2.509,5.1,4.9,6.922a16.332,16.332,0,0,1,3.622,3.75,22.914,22.914,0,0,0,7.635,6.749c4.9,2.915,9.779,5.873,14.7,8.756.856.5,1.932.62,2.806,1.1,1.36.745,1.349,1.731.129,2.722a1.713,1.713,0,0,0-.615.871c-.5,2.541-.957,5.093-1.436,7.7,2.87-.22,5.245,1.766,7.965,2.72,6.853,2.4,13.814,4.195,21.12,4.053a22.155,22.155,0,0,1,9.753,2.284,34.072,34.072,0,0,0,5.02,1.3c4.918,1.359,9.961,2.125,14.884,3.561,7.916,2.309,15.481,5.157,22.116,10.153.155.117.311.232.465.351.786.605,1.7,1.31,1.219,2.359-.247.533-1.235.724-1.941,1.1,1.817,1.607,3.839,3.3,5.75,5.109a30.98,30.98,0,0,1,6.612,8.419,10.99,10.99,0,0,1,.783,1.871,1.685,1.685,0,0,1-1.965,2.3c-.186-.02-.448-.15-.545-.07-1.741,1.424-3.977.9-5.9,1.551a1.863,1.863,0,0,0-1.073,1.365c.26,4.057.592,8.112,1.019,12.155.35,3.318.966,6.609,1.269,9.93.427,4.675,1.063,9.384.844,14.042-.122,2.591-1.6,5.21-2.842,7.627a32.1,32.1,0,0,1-3.617,4.711c-.979,1.253-1.911,2.545-2.927,3.766a16.179,16.179,0,0,1-1.746,1.554c.378.573.822,1.184,1.2,1.832,1.469,2.5,2.878,5.043,4.405,7.51.311.5,1.032.756,1.577,1.1a5.753,5.753,0,0,1,1.414.868c2.3,2.793,3.429,6.129,4.308,9.573a7.077,7.077,0,0,1,.5,1.793c-.017.5-.453.988-.7,1.482-.387-.338-.969-.6-1.126-1.027-.585-1.578-1.016-3.213-1.534-4.817-.321-.994-.546-2.067-2.043-1.922-.271.027-.653-.628-.914-1.016-2.971-4.416-5.911-8.851-8.913-13.245a2.748,2.748,0,0,0-1.428-.9,51.789,51.789,0,0,1-15.813-8.47c-7.135-5.284-14.209-10.694-20.312-17.166-4.214-4.469-7.961-9.376-11.915-14.09-.093-.11-.219-.241-.224-.367-.032-.762-.034-1.525-.046-2.287.724.24,1.714.261,2.124.76a57.327,57.327,0,0,1,4.467,6.08,61.433,61.433,0,0,0,13.427,15.378c5.192,4.217,10.4,8.431,15.831,12.33,2.923,2.1,6.319,3.541,9.516,5.254a8.573,8.573,0,0,0,1.628.4c-1.343-1.886-2.407-3.417-3.508-4.921-2.8-3.828-5.472-7.764-8.471-11.432-3.15-3.852-6.325-7.69-10.324-10.8-6.69-5.2-13.09-10.768-19.854-15.861-2.412-1.817-5.46-2.872-8.333-3.975-3.866-1.484-7.808-2.8-11.786-3.949a37.484,37.484,0,0,0-6.307-.948,52.26,52.26,0,0,1-14.357-3.326c-3.657-1.5-7.46-2.662-11.227-3.885a1.545,1.545,0,0,0-1.342.651c-.456.939-.608,2.021-1.013,2.992a5.181,5.181,0,0,1-1.165,1.626c-.1.1-1-.313-1.006-.5a5.477,5.477,0,0,1,.377-1.824c.1-.3.438-.521.595-.817,1.438-2.7,1.275-2.958-1.477-4.275-2.123-1.016-4.13-2.273-6.188-3.423Zm43.284,10.369c3.98,1.466,7.874,2.733,11.628,4.33,3.674,1.562,7.5,3.044,10.733,5.3,5.625,3.926,10.925,8.332,16.214,12.716a78.736,78.736,0,0,1,9.216,8.621c4.034,4.623,7.645,9.615,11.424,14.46,1.09,1.4,1.351,1.462,2.792.376q1.915-1.444,3.784-2.947c.37-.3.845-.649.954-1.059.64-2.413,1.583-4.833,1.69-7.283.382-8.688-2.1-16.934-4.366-25.2a51.484,51.484,0,0,1-1.411-6.3c-.134-.932-.278-1.253-1.233-1.242-2.376.028-4.754-.051-7.132-.058-.309,0-.615.221-.929.246a5.681,5.681,0,0,1-2.546.06,10.15,10.15,0,0,1-2.365-2.052c-1.709-1.605-3.152-3.763-5.167-4.713a64.12,64.12,0,0,0-10.834-3.6c-5.315-1.419-10.239-4.021-15.791-4.774-5.775-.784-11.516-.413-17.276-.251-1.122.031-1.723.622-1.453,1.8.626,2.727,1.123,5.5,1.989,8.148C-1359.158-116.087-1358.459-115.02-1359.5-113.952Zm67-22.6.12-.279a2.845,2.845,0,0,0-.617-.508c-4.6-1.977-9.091-4.348-13.859-5.791-5.14-1.556-10.3-3.249-15.7-3.87-1.373-.158-2.674-.889-4.047-1.093-3.078-.458-6.108-.976-8.731-2.817a1.583,1.583,0,0,0-.673-.245c-3.022-.416-6.034-.967-9.071-1.19a64.076,64.076,0,0,1-12.227-2.287c-3.569-.975-7.184-1.778-10.761-2.726a4.641,4.641,0,0,1-1.485-1.016,5.235,5.235,0,0,1-.646-.724l-8.139,12.122c.353.224.787.509,1.231.778a45.453,45.453,0,0,1,5.068,3.112c4.932,3.97,10.709,5.111,16.8,5.411,1.3.064,2.6.3,3.9.39,2.948.21,5.926.721,8.842.49a41.894,41.894,0,0,1,12.855.521,1.428,1.428,0,0,0,1.21-.535,2.273,2.273,0,0,1,2.574-1.158,8.737,8.737,0,0,0,2.025.016c4.625-.391,9.2-.311,13.6,1.421,1.22.48,2.452.927,3.772,1.424-.686-2.385-.25-3.644,1.452-3.771a17.342,17.342,0,0,1,4.742.323C-1297.65-138.011-1295.082-137.231-1292.494-136.551Zm14.414,19.574a4.186,4.186,0,0,0-.177-1.438c-1.127-1.839-2.038-3.931-3.552-5.384-2.714-2.6-5.814-4.8-8.727-7.2-.427-.352-.974-.85-1.014-1.319-.1-1.149-.867-1.442-1.71-1.67-2.419-.654-4.843-1.294-7.283-1.863a9.262,9.262,0,0,0-2.045-.023,17.334,17.334,0,0,1,.972,3.192,2.612,2.612,0,0,1-.682,2.018,2.736,2.736,0,0,1-2.023.1,6.608,6.608,0,0,1-1.775-.946,25.49,25.49,0,0,0-15.784-3.841c-.773.067-1.324.119-1.649,1.03a1.965,1.965,0,0,1-1.529.964,17.211,17.211,0,0,1-3.433-.51c-3.4-.709-6.747-1.72-10.31-1.438-3.136.248-6.289.278-9.434.421a11.782,11.782,0,0,0-1.444.3,12.867,12.867,0,0,0,1.251.557c1.81.524,3.643.974,5.435,1.553a139.4,139.4,0,0,0,20.667,4.572c1.807.293,4.022.185,4.727,2.558,1.943-.2,2.747.059,4.659,1.353q3.486,2.36,7,4.673a45.787,45.787,0,0,1,5.678,3.739,4.3,4.3,0,0,0,3.56,1c2.9-.177,5.8-.437,8.7-.618,1.194-.075,1.592-.667,1.516-1.8-.122-1.838-.233-3.681-.213-5.52,0-.4.582-.8.9-1.2.329.388.925.766.939,1.165.058,1.645-.081,3.3-.1,4.944a13.844,13.844,0,0,0,.179,1.684C-1282.484-116.149-1280.658-117.93-1278.08-116.978Zm-121.1-36.884a6.339,6.339,0,0,0,2.709,4.738c2.192,1.882,4.219,3.952,5.195,6.71,1.658,4.686,3.149,9.432,4.646,14.173a1.915,1.915,0,0,1-1.087,2.452c-1.714.683-2.368,2.179-3.2,3.583-.444.747-.166,1.178.519,1.486,1.673.751,3.313,1.593,5.033,2.215a70.191,70.191,0,0,0,9.7,3.185,75.961,75.961,0,0,0,10.113.854c1.225.081,1.048-.613.688-1.414-1.667-3.705-3.293-7.43-4.966-11.132-1.393-3.082-2.895-6.116-4.223-9.225-.615-1.441-1.373-3-.551-4.605a1.251,1.251,0,0,0-.521-1.932q-4.318-2.516-8.649-5.009a6.644,6.644,0,0,0-1.248-.35c.406,1.722.689,3.216,1.112,4.669q2.29,7.869,4.664,15.714c.925,3.047,1.954,6.062,2.892,9.105a4.109,4.109,0,0,1,.179,1.887c-.043.23-.991.587-1.182.439a3.221,3.221,0,0,1-1.2-1.587c-.681-2.918-1-5.937-1.88-8.787-1.593-5.165-3.582-10.207-5.221-15.359-.707-2.222-3.132-4.244-.932-7.034Zm104.729,93.131c1.624-1.877,3.192-3.741,4.817-5.554,2.287-2.552,4.474-5.219,4.76-8.765.3-3.7.952-7.412.155-11.144a23.054,23.054,0,0,1-.423-3.462q-.654-11.189-1.24-22.382c-.055-1.065-.4-1.518-1.49-1.35-1.675.258-3.359.454-5.034.716-1.054.165-1.243.689-.464,1.452a2.206,2.206,0,0,1,.329,2.9,2.7,2.7,0,0,0-.265,1.647c.682,3.258,1.5,6.487,2.165,9.748.769,3.779,1.637,7.557,2.076,11.381a35.768,35.768,0,0,1-.679,12.861,6.132,6.132,0,0,1-2.479,3.932,31.242,31.242,0,0,0-4.106,3.464,1.7,1.7,0,0,0-.361,1.552A30.8,30.8,0,0,0-1294.451-60.73Zm-77.526-79.056a10.652,10.652,0,0,0,.187,2.095c.931,2.894,1.782,5.827,2.928,8.637,1.859,4.561,3.9,9.049,5.938,13.534.268.591.972.984,1.474,1.468-.389-2.219-1.106-4.151-1.605-6.138-.6-2.378-1.091-4.79-1.462-7.213a1.839,1.839,0,0,1,1.821-2.188,41.826,41.826,0,0,1,5.486-.6c3.336.034,6.685.179,10,.539a54.2,54.2,0,0,1,7.982,1.513c2.607.69,5.092,1.837,7.692,2.564,5.3,1.482,10.644,2.822,15.976,4.2a5.089,5.089,0,0,0,1.252.013c-1.427-1.065-2.746-2.053-4.072-3.029a1.392,1.392,0,0,0-.4-.116c-.817-.256-1.634-.51-2.448-.771-2.205-.707-4.379-1.541-6.622-2.1-3.145-.782-6.365-1.266-9.512-2.045-6.006-1.486-11.965-3.164-17.982-4.6a41.454,41.454,0,0,0-5.563-.459,2.194,2.194,0,0,1-1.433-.537,2.641,2.641,0,0,0-2.436-.932,3.235,3.235,0,0,1-1.51-.4C-1368.085-137.391-1369.842-138.49-1371.978-139.786Zm-58.428-77.327-.342.479c1.156,1.489,2.245,3.038,3.5,4.439a4.808,4.808,0,0,0,2.181,1.338,48.939,48.939,0,0,1,17.231,8.96c1.484,1.17,3.033,2.259,4.552,3.385a1.237,1.237,0,0,0,.061-1c-1.034-2.59-2.087-5.173-3.114-7.767-.453-1.143-.574-2.556-1.333-3.415a15.41,15.41,0,0,0-10.114-5.091q-4.537-.525-9.079-1.011C-1428.041-216.929-1429.225-217.011-1430.406-217.113Zm118.9,97.2a16.777,16.777,0,0,0,4.058,5.44,1.086,1.086,0,0,0,.809.16c.923-.189,1.832-.444,3.043-.748C-1305.962-117.353-1308.79-118.51-1311.506-119.916Z" transform="translate(-19.777 0)" fill="#272520"/>
    <path id="Path_437" data-name="Path 437" d="M-1472.055,137l16.37,15.436a8.006,8.006,0,0,0,.135-1.265c-.071-1.453-.169-2.905-.285-4.355-.158-1.977.235-4.259-.621-5.871-2.664-5.015-5.7-9.793-10.42-13.328a58.521,58.521,0,0,1-15.011-16.828,8.321,8.321,0,0,1-.992-3.523,1.389,1.389,0,0,1,1.664-1.56c.994.158,1.045.971.974,1.81-.181,2.17,1.213,3.724,2.24,5.377a61.12,61.12,0,0,0,16.073,16.817,30.6,30.6,0,0,1,3.646,3.72c.322.337.611.706,1.108,1.285.148-1.079.216-1.875.375-2.652a1.882,1.882,0,0,1,2.446-1.728,1.894,1.894,0,0,0,.962-.1c2.758-1.151,5.518-2.3,8.251-3.507,4.027-1.78,7.94-3.864,12.067-5.361,8.138-2.95,16.386-5.6,24.6-8.344,2.559-.855,5.141-1.646,7.734-2.391a2.173,2.173,0,0,1,1.463.249,1.054,1.054,0,0,1,.167,1.025,2.013,2.013,0,0,1-1.131.744c-2.718.6-5.53.9-8.163,1.756-8.145,2.637-16.286,5.31-24.31,8.289a94.69,94.69,0,0,0-19.422,10.072c-.08.053-.149.152-.234.168-2.3.412-2.364,2.1-2.292,3.915.226,5.623.4,11.249.677,16.87a3.357,3.357,0,0,0,.849,1.932c4.289,4.681,8.638,9.306,12.942,13.972.323.35.743,1.086.6,1.313-.825,1.3.224,1.775.941,2.3q8.186,6.038,16.418,12.012c4.271,3.1,8.395,6.564,13.415,8.318,6.126,2.141,11.062,6.3,16.754,9.126,2.5,1.24,5.231,2.021,7.681,3.339,4,2.149,7.972,4.384,11.729,6.918,5.192,3.5,10.176,7.314,15.239,11.005a5.521,5.521,0,0,1,.743.9,9.766,9.766,0,0,1-5.569-1.824c-2.9-2.252-5.949-4.331-9.053-6.3a6.287,6.287,0,0,0-3.417-.788c-6.5.241-12.986.622-19.479.939-1,.049-2-.252-2.019-1.384-.014-1.036.87-1.382,1.875-1.337,4.894.22,9.788.443,14.683.62,1.1.04,2.214-.1,3.5-.167-.208-.368-.269-.65-.437-.746-3.471-1.984-6.906-4.038-10.449-5.886-2.99-1.559-6.189-2.724-9.147-4.337-3.135-1.71-5.935-4.09-9.16-5.566-8.217-3.759-14.738-9.973-22.215-14.786-4.513-2.9-9.089-5.711-13.2-8.286a28.866,28.866,0,0,1-3.3.635,43.207,43.207,0,0,1-4.368.024c-1.035-.036-1.4.455-1.046,1.322,1.4,3.39,2.872,6.751,4.33,10.117a4.772,4.772,0,0,0,.534.762c1.575-1.168,2.559-.585,3.908.44,6.9,5.237,13.32,11.117,20.839,15.53a48.311,48.311,0,0,1,4.039,3.085c1.684,1.246,1.4,3.288,2.073,4.944.433,1.071.854,2.149,1.234,3.24.3.873.711,1.893-.369,2.46-1.224.643-1.75-.379-2.179-1.261a40.507,40.507,0,0,1-2.084-4.615c-1.285-3.791-4.145-6.3-7.11-8.6-3.592-2.789-7.436-5.254-11.191-7.83-1.916-1.315-3.865-2.582-5.821-3.835a7.586,7.586,0,0,0-1.373-.547l-.366.306a26.737,26.737,0,0,0,1.085,2.516c1.754,3.172,3.618,6.283,5.314,9.485.9,1.7,1.55,3.535,2.293,5.317,1.828,4.381,4.09,8.475,8.091,11.26a7.2,7.2,0,0,0,3.215,1.1c4.765.53,9.545.914,14.316,1.391.9.09,1.828.426,1.708,1.57-.117,1.116-1.034,1.326-1.972,1.215-1.534-.181-3.054-.5-4.591-.648-2.793-.27-5.6-.405-8.389-.7a23.79,23.79,0,0,1-4.966-.882c-2.566-.851-3.978-3.136-5.55-5.14-3.117-3.972-4.533-8.807-6.655-13.288-1.612-3.4-3.509-6.672-5.158-10.06-2.493-5.121-4.882-10.293-7.316-15.443-.083-.175-.194-.338-.264-.517-1.042-2.664-1.041-2.664-3.856-2.663-1.915,0-3.83,0-5.874,0a218.513,218.513,0,0,0,14.046,24.861c1.978,3.1,4.311,5.962,6.32,9.039,2.563,3.925,5,7.937,7.417,11.952,1.4,2.318,2.452,4.867,4.034,7.041,1.674,2.3,3.9,3.987,7.077,3.881,2.568-.086,5.144.065,7.716.124a17.583,17.583,0,0,0,11.129-3.561,4.662,4.662,0,0,1,1.9-.979c.525-.078,1.129.371,1.7.586-.232.574-.3,1.443-.721,1.678a36.747,36.747,0,0,1-24.628,4.521,8.447,8.447,0,0,1-6.218-4.077q-5.94-10.292-11.892-20.578-3.124-5.4-6.272-10.788c-.29-.5-.649-.95-.967-1.411-2.709.647-3.44,2.914-4.009,4.988-1.814,6.613-3.558,13.254-5.031,19.95-1.341,6.1-2.361,12.273-3.386,18.437-.465,2.8-.6,5.646-.9,8.614.809,0,1.372,0,1.935,0,.886-.009,1.7.366,1.619,1.252a2.268,2.268,0,0,1-1.24,1.657,5.173,5.173,0,0,1-3.127.031,2.583,2.583,0,0,1-1.116-2.189c.962-6.367,2.05-12.715,3.165-19.058.83-4.72,1.7-9.434,2.649-14.133q1.72-8.536,3.613-17.037c.5-2.248,1.721-3.54,4.4-5-1.2-1.971-2.307-3.992-3.6-5.889-2.782-4.083-5.6-8.142-8.507-12.139-6.111-8.412-12.18-16.859-18.491-25.119-2.282-2.986-5.232-5.458-7.829-8.21-1.454-1.541-2.809-3.174-4.349-4.926-.465.574-1.043,1.2-1.512,1.893-.531.786-1.219,1.537-2.109,1.022a3.188,3.188,0,0,1-1.259-2.01c-.348-1.88-.461-3.8-.689-5.91-2.136.775-4.03,1.437-5.905,2.151-1.191.454-2.391.711-3.421-.21a2.783,2.783,0,0,1-.492-3.359,5.743,5.743,0,0,1,.5-1.193c1.807-2.621,2.354-5.7,3.084-8.687.6-2.471-.555-4.46-2.433-5.964a15.254,15.254,0,0,0-4.022-2.566c-3.4-1.257-3.374-3.763-2.95-6.689.492-3.4,1.1-6.773,1.657-10.159.68-4.149,1.37-8.3,2.029-12.448.227-1.432.4-2.873.551-4.316.183-1.8-.022-3.714,1.871-5.163-1.407-.51-2.279-1.9-3.925-.832-.268.173-1.421-.46-1.7-.974a6.193,6.193,0,0,1,.388-6.135,91.221,91.221,0,0,1,6.334-10.047,114.423,114.423,0,0,0,9.809-15.77c.169-.329.829-.406,1.261-.6.066.467.355,1.073.164,1.379-3.256,5.213-6.512,10.429-9.894,15.56a44.438,44.438,0,0,0-5.573,11.114,2.342,2.342,0,0,0,1.1,3.061c6.942,4.428,13.759,9.056,20.731,13.437,3.706,2.329,2.87,2.133,5.242-1.2.419-.588.636-1.329,1.095-1.875.285-.339.85-.444,1.289-.654.089.474.4,1.052.227,1.4A30.719,30.719,0,0,1-1485.725,87c-.685,1.046-.492,1.6.758,1.772a17.4,17.4,0,0,1,2.423.4,1.965,1.965,0,0,1,1.18.844,1.338,1.338,0,0,1-.367,1.245,1.786,1.786,0,0,1-1.445.2A20.042,20.042,0,0,1-1485.9,90.1a1.307,1.307,0,0,0-2.059.53c-.958,1.68-2.142,3.25-2.937,5-1.762,3.876-.558,7.487,1.484,10.862a17.257,17.257,0,0,0,2.971,3.559,55.764,55.764,0,0,1,12.379,16.883c1.094,2.306,2.172,4.62,3.292,6.914C-1470.036,135.357-1470.539,136.348-1472.055,137Zm-37.09-60.857c0,.594.017.82,0,1.043-.211,2.5-.27,5.017-.689,7.477-.4,2.322-1.389,4.547-1.737,6.872-.853,5.692-1.519,11.413-2.16,17.134a3.113,3.113,0,0,0,.809,2.016,17.48,17.48,0,0,0,2.278,2.007c1.839,1.554,3.616,3.192,5.544,4.626,1.588,1.182,1.9,2.4,1.285,4.3-.96,2.977-1.507,6.085-2.317,9.114a22.12,22.12,0,0,1-1.3,2.976c.493-.145.716-.194.928-.275,1.988-.754,3.969-1.53,5.964-2.266a1.651,1.651,0,0,1,2.4,1.143,11.079,11.079,0,0,1,.379,2.122c.1.926.14,1.86.212,2.879,2.482-.7,2.815-2.437,3.014-4.363.062-.6.577-1.51,1.048-1.628a2.7,2.7,0,0,1,2,.65,6.044,6.044,0,0,1,1.133,1.824c.935,1.683,1.8,3.41,2.817,5.041.353.565,1.073.9,1.922,1.577.109-1.656.543-2.681,1.931-2.48a21.855,21.855,0,0,1,3.2,1,36.257,36.257,0,0,0-.308-4.829c-.172-.913-.7-1.746.077-2.551a2.745,2.745,0,0,1,3.1-.6c.884.311,1.75.672,2.625,1.011a13.934,13.934,0,0,0-1.2-3,51.92,51.92,0,0,0-12.512-17.284c-3.092-2.878-5.317-6.33-5.705-10.627a11.689,11.689,0,0,1,.52-5.373,30.455,30.455,0,0,1,3.79-5.794c.576-.792.515-1.213-.284-1.729-4.066-2.629-8.1-5.308-12.167-7.933C-1504.646,78.877-1506.79,77.6-1509.145,76.147Zm17.166,61.228-.333.079c.338.745.617,1.523,1.022,2.229,2.336,4.072,5.84,7.211,8.7,10.854q7.451,9.48,14.359,19.382a7.826,7.826,0,0,0,6.5,3.386c6.281.349,12.589,1.088,18.831-.4a15.108,15.108,0,0,0,2.231-.973c-3.033-3.491-5.717-6.607-8.446-9.683-.3-.338-.947-.717-1.281-.608a14.956,14.956,0,0,0-2.776,1.338c-4.115,2.372-8.757,2.629-13.287,3.321a1.674,1.674,0,0,1-1.919-1.7,1.585,1.585,0,0,1,1.873-1.712,12.567,12.567,0,0,1,2.011.3c4.81,1.037,9.031-.347,13.191-3.111l-1.055-1.206c-.843.408-1.737,1.085-1.972.9a3.965,3.965,0,0,1-1.011-1.895c-.146-.439.052-.986-.07-1.44a5.11,5.11,0,0,0-.831-2.093c-4.237-4.666-8.549-9.265-13.776-12.874-1.672-1.155-3.428-2.191-5.051-3.41a2.217,2.217,0,0,1-.827-1.73c.243-1.376-.034-1.838-1.721-1.886,0,.523.036,1.046-.006,1.563-.166,2.017-.239,4.051-.577,6.04a1.765,1.765,0,0,1-3.1.895,14.826,14.826,0,0,1-1.263-1.544,5.758,5.758,0,0,0-.544.5c-1.812,2.433-2.924,2.56-5.049.287C-1489.549,140.691-1490.713,138.985-1491.98,137.375Z" transform="translate(-35.379 -237.965)" fill="#272520"/>
    <path id="Path_438" data-name="Path 438" d="M-968.72,584.108c2.417-1.6,4.809-3.048,7.062-4.689a50.756,50.756,0,0,0,11.676-11.46,25.841,25.841,0,0,0,4.34-8.45c.328-1.264,1.725-2.473,2.931-3.248a20.081,20.081,0,0,1,13.448-3.111c2.554.289,5.983,3.34,6.516,5.814a1.587,1.587,0,0,1,.062.86,16.306,16.306,0,0,1-.912,1.622,5.413,5.413,0,0,1-1.544-.987c-.607-.792-.944-1.787-1.526-2.6a5.111,5.111,0,0,0-4.419-2.12,16.969,16.969,0,0,0-10.481,3.27,5.433,5.433,0,0,0-1.54,2.368c-2.422,6.463-7.327,11-12.168,15.521-3.1,2.9-6.538,5.436-9.875,8.072a12.429,12.429,0,0,1-2.344,1.182l1.9,8.349a9.64,9.64,0,0,0,6.067-.783,51.53,51.53,0,0,0,18.67-15.364c2.232-2.865,4.538-5.673,6.844-8.479.423-.514.956-1.154,1.531-1.268a2.361,2.361,0,0,1,1.948.559,1.968,1.968,0,0,1-.259,1.854c-2.507,2.8-5.316,5.34-7.66,8.26-5.843,7.28-13.346,12.465-21.151,17.3-2.007,1.244-3.641,1.308-6.287.521a13.2,13.2,0,0,0,.019,2.3c.763,4.124,1.455,8.268,2.435,12.342.617,2.566,1.815,4.987,2.535,7.535a61.75,61.75,0,0,1,1.389,6.817c.183,1.118.339,1.369,1.628,1,6.919-2,13.893-3.818,20.846-5.708a9.422,9.422,0,0,1,1.5-.5,3.645,3.645,0,0,1,1.242.35c-.278.389-.483,1.006-.849,1.124a29.3,29.3,0,0,1-3.267.7,72.9,72.9,0,0,0-19.536,6.746,3.269,3.269,0,0,0-1.936,2.81c-.48,4.566-4.926,8.591-9.919,7.786a14.912,14.912,0,0,1-7.327-3.662c-3.268-2.68-5.323-6.2-7.869-9.394-3.587-4.506-7.609-8.665-11.256-13.126a87.215,87.215,0,0,1-4.924-7.334,12.935,12.935,0,0,0-.908-1.477c-1.818-2.069-2.359-4.715-3.336-7.168-.786-1.971-1.587-3.937-2.453-5.875a2.967,2.967,0,0,0-1.114-1.381c-5.978-3.2-11.983-6.345-17.988-9.49-1.023-.536-2.082-1-2.964-1.425-2.3.779-3.177,2.842-4.473,4.465a11.451,11.451,0,0,1-8.7,4.567c-2.755.151-5.505.429-8.261.5a10.1,10.1,0,0,1-3.268-.58,3.087,3.087,0,0,1-2.175-2.31,4.239,4.239,0,0,0-1.458-2.222c-3.14-2.271-6.351-4.447-9.6-6.555a2.131,2.131,0,0,0-1.9.032,42.041,42.041,0,0,1-16.915,6.229c-3.97.627-7.922,1.387-11.906,1.9-3.951.507-7.829.612-11.695-1.112-1.876-.837-4.266-.652-6.425-.671a2.991,2.991,0,0,1-2.511-1.038c-.924-1.031-2.087-1.847-3.008-2.88a16.445,16.445,0,0,1-2.315-3.254c-.216-.413.259-1.189.419-1.8a8.823,8.823,0,0,1,1.618.531,9.839,9.839,0,0,1,1.7,1.244,5.2,5.2,0,0,1,1.237,1.352,7.179,7.179,0,0,0,3.759,3.729c4.652,2.025,9.5,2.292,14.338,2.45a53.128,53.128,0,0,0,10.96-1.1,101.518,101.518,0,0,0,12.419-2.964c2.677-.837,5.13-2.39,7.769-3.664l-2.3-3.382.381-.386c.769.5,1.512,1.047,2.319,1.475a3.211,3.211,0,0,0,1.428.311,11.253,11.253,0,0,0,1.688-.221q.094.913.188,1.826l-.343.171c2.374,1.656,4.718,3.356,7.132,4.951,1.525,1.007,3.161,1.844,4.73,2.785.366.22.837.49.962.843.5,1.4,1.593,1.481,2.8,1.464,2.66-.037,5.338.146,7.974-.111a8.706,8.706,0,0,0,7.3-4.835c.251-.489.662-1.237,1.036-1.259,1.422-.087,1.83-1.2,2.552-2.062,1.365-1.628,2.941-3.092,4.2-4.795,3.042-4.125,5.947-8.351,8.913-12.532,1.624-2.29,3.226-4.6,4.9-6.85a23.054,23.054,0,0,0,3.089-6.973c.78-2.427,2.081-4.682,2.948-7.087a27.633,27.633,0,0,0,1.156-5.026c.3-1.858.221-3.792.675-5.6a6.71,6.71,0,0,1,1.965-2.871c.3-.289,1.435-.108,1.845.251a1.775,1.775,0,0,1-.111,1.743,5.122,5.122,0,0,0-1.512,4.072,25.327,25.327,0,0,1-2.9,11.7c-1.354,2.527-1.967,5.439-3.073,8.112a44.667,44.667,0,0,1-2.413,4.422c2.926,1.412,5.779,2.787,8.631,4.166.305.148.746.246.867.493.222.453.5,1.179.3,1.461a1.518,1.518,0,0,1-1.443.348c-2.6-2.154-5.867-2.657-8.9-3.743a10.262,10.262,0,0,1-1.147-.6c-1.674,2.163-3.446,4.222-4.959,6.457-2.812,4.154-4.951,8.783-9.019,12.232a148.719,148.719,0,0,0,19.458,11.527l.45-.361c-.669-2.591-1.278-5.2-2.023-7.769a17.713,17.713,0,0,1-.913-7.863c.43-2.58,2.217-4.414,4.267-5.838a23.231,23.231,0,0,1,13.964-4.589,16.585,16.585,0,0,1,8.582,2.754,33.094,33.094,0,0,1,9.653,9.337c1.795,2.574,3.537,5.185,5.312,7.772C-969.434,583.248-969.088,583.641-968.72,584.108Zm-14-13.377a23.142,23.142,0,0,1,1.038,3.48,1.651,1.651,0,0,1-.915,1.346,1.759,1.759,0,0,1-1.494-.723c-1.964-3.459-5.717-4.761-9.2-2.811a38.745,38.745,0,0,0-6.784,4.693,17.845,17.845,0,0,0-5.93,10.4,4.37,4.37,0,0,0,2.409,4.59,14.26,14.26,0,0,1,2.649,2.341c.176.171.133.549.242.81a6.269,6.269,0,0,0,.985,2.137,104.12,104.12,0,0,1,11.747,13.222,20.372,20.372,0,0,1,3.071,5.329c.759,2.211.842,4.646,1.337,6.958.752,3.51,3.065,6.233,5.051,9.038a23.107,23.107,0,0,0,5.044,4.556c2.27,1.735,6.458,2.535,8.961-.319a9.253,9.253,0,0,0,2.181-6.574,48.424,48.424,0,0,0-1.486-9.838c-.724-2.982-2.013-5.822-2.962-8.754a44.258,44.258,0,0,1-1.891-12.732c-.111-5.11-.838-9.82-3.793-14.3a121.91,121.91,0,0,0-8.165-10.895A23.152,23.152,0,0,0-982.718,570.732Zm-24.761,12.134.536-.021a2.605,2.605,0,0,0,.267-.327,8.873,8.873,0,0,0,.484-.895c2.255-5.115,6.13-8.747,10.757-11.658a8.944,8.944,0,0,1,8.309-1.072,21.837,21.837,0,0,0,2.468.63l.151-.42c-1.422-.775-2.815-1.61-4.272-2.313-2.839-1.37-5.853-1.138-8.81-.619a21.035,21.035,0,0,0-7.761,3.42c-2,1.3-3.642,3-3.457,5.508A76.858,76.858,0,0,0-1007.478,582.865Zm6.874,17.081-.684.331a5.406,5.406,0,0,0,.338,1.678c1.253,2.17,2.467,4.38,3.928,6.409,2.481,3.445,5.137,6.764,7.717,10.137.563.736,1.118,1.479,1.676,2.219l.569-.221c-.373-1.79-.39-3.765-1.2-5.327a36.128,36.128,0,0,0-4.435-6.231C-995.249,605.873-997.961,602.938-1000.6,599.946Z" transform="translate(-313.074 -581.839)" fill="#272520"/>
    <path id="Path_439" data-name="Path 439" d="M-1017.834,763.16a4.757,4.757,0,0,1,3.924,1.3,10.784,10.784,0,0,1,2.049,2.435c.811,1.5,1.911,1.694,3.351,1.192,1.171-.409,2.348-.8,3.864-1.32l-8.067-11.4-3.383,1.974q.025.232.05.464c.88-.058,1.759-.143,2.64-.161a2.523,2.523,0,0,1,1.3.208,1.039,1.039,0,0,1,.118,1,2.271,2.271,0,0,1-1.328.567c-2.03.047-4.074-.136-6.089.038-1.264.109-1.931-.223-2.228-1.223l7.467-4.992c-1.063-1.426-1.927-2.759-2.986-3.913a2.715,2.715,0,0,0-1.86-.538c-2.96.047-5.918.19-8.877.295-.78.027-1.578.071-1.869-1.341l10.686-.4a12.089,12.089,0,0,0-4.79-4.206,1.963,1.963,0,0,0-1.238.146,1.417,1.417,0,0,1-2-.888,1.689,1.689,0,0,1,.7-2.279,2.865,2.865,0,0,1,3.4.4,74.136,74.136,0,0,1,5.439,5.586,3.84,3.84,0,0,0,2.825,1.406,64.22,64.22,0,0,1,6.556,1.108c.906.181,1.376.852.92,1.738-.44.854-1.129.642-1.85.207a11.411,11.411,0,0,0-6.014-1.662,12.785,12.785,0,0,0,.733,1.47c3.376,4.853,6.632,9.8,10.238,14.477,1.091,1.415,3.073,2.13,2.662,4.417,4.515,8.236,9.008,16.484,13.558,24.7,1.356,2.449,2.924,4.782,4.271,7.236a2.617,2.617,0,0,1-.017,2.015,1.559,1.559,0,0,1-1.448.562,3.065,3.065,0,0,1-1.281-1.527c-.677-1.691-1.008-3.547-1.842-5.146-4.589-8.8-9.3-17.529-13.936-26.3a2.539,2.539,0,0,0-3-1.612c-1.639.295-3.31.413-5.433.664,1.368,1.639,2.4,2.885,3.44,4.119a119.692,119.692,0,0,1,15.833,23.953c1.423,2.855,3.171,5.55,4.815,8.291a14.768,14.768,0,0,0,1.45,1.753c.725-.843,1.257-1.529,1.86-2.146.7-.712,1.563-1.17,2.437-.4.854.749.182,1.487-.275,2.172-.078.117-.131.252-.248.48a4.848,4.848,0,0,0,4.292-.507,32.519,32.519,0,0,1,10.777-3.238c6.652-.817,12.928-2.969,19.191-5.1,4.43-1.509,8.627-3.691,12.963-5.487,4.5-1.866,9.053-3.629,13.581-5.438a4.532,4.532,0,0,1,1.472-.563,4.008,4.008,0,0,1,1.405.592c-.268.432-.453,1.131-.82,1.245-1.146.356-2.379.422-3.546.723-4.958,1.281-9.5,3.589-14.057,5.831a109.649,109.649,0,0,1-17.471,6.662q-9.1,2.684-18.168,5.51a31.955,31.955,0,0,0-3.318,1.432,12.588,12.588,0,0,1-9,.9,4.519,4.519,0,0,1-3-2.414c-4.233-7.34-8.276-14.8-12.835-21.935-2.8-4.383-6.364-8.289-9.684-12.327-1.125-1.367-2.746-2.34-3.8-3.748C-1014.933,768.041-1016.252,765.662-1017.834,763.16Z" transform="translate(-380.278 -732.854)" fill="#272520"/>
    <path id="Path_440" data-name="Path 440" d="M-629.557,606.465a12.843,12.843,0,0,0-2.937.936,32.133,32.133,0,0,0-4.178,3.1c-.411.35-.449,1.109-.732,1.643-.254.48-.523,1.131-.943,1.291a1.729,1.729,0,0,1-1.52-.376c-.6-.626-1.023-.535-1.741-.214a37.462,37.462,0,0,1-4.982,1.877,3.749,3.749,0,0,1-3.964-1.181c-1.022-1.128-.737-2.339-.084-3.5,1.088-1.936,2.222-3.847,3.341-5.765.31-.532.638-1.053.958-1.58l-.3-.366c-1.393.937-2.808,1.842-4.173,2.818-1.734,1.24-3.425,2.54-5.14,3.807-1.015.749-2.181,1.109-3.2.251s-.677-1.974-.158-3.061c.734-1.537,1.373-3.119,2.052-4.683l-.554-.334c-1.078,1.586-2.2,3.145-3.216,4.768-.582.927-.932,2.413-2.334,1.747-1.331-.632-.792-1.993-.14-2.89,1.785-2.456,3.677-4.835,5.572-7.208a16.585,16.585,0,0,1,1.8-1.663c-.519-.183-.97-.212-1.2-.452a2.122,2.122,0,0,1-.689-1.3,1.658,1.658,0,0,1,.858-1.15,65.031,65.031,0,0,1,6.1-2.54c3.835-1.291,6.164.287,6.527,4.272a1.351,1.351,0,0,1-1.235,1.66c-1,.128-1.527-.459-1.729-1.378-.533-2.421-1.178-2.714-3.43-1.512-1.1.585-2.178,1.2-3.46,1.908,2.115,1.584,1.18,3.385.442,5.132-.507,1.2-1.158,2.34-1.732,3.513a2.485,2.485,0,0,0-.28,1.522,8.805,8.805,0,0,0,1.055-.5c2.527-1.616,5.04-3.252,7.565-4.87a4.672,4.672,0,0,0,2.309-2.245,2.586,2.586,0,0,1,2.212-.957,43.42,43.42,0,0,1,6.19,1.393c3.237.946,6.412,2.111,9.66,3.012a33.273,33.273,0,0,0,4.164.439,2.317,2.317,0,0,1,1.277.7,1.055,1.055,0,0,1-.176,1,2.529,2.529,0,0,1-1.417.15c-2.24-.375-4.489-.731-6.7-1.241-3.011-.695-6-1.483-8.98-2.31-1.4-.389-2.44-.338-3.357,1.049-1.784,2.7-3.749,5.279-5.634,7.911a2.908,2.908,0,0,0-.354.634c-.738,1.909-.341,2.459,1.7,2.424a10.2,10.2,0,0,0,5.729-2.172c3.753-2.631,7.5-5.282,12.107-6.27,1.271-.272,2.548-.39,3.37.935.566.913.069,2.189-1.134,3.3-2.084,1.923-4.517,3.524-5.616,6.363-.146.376-1.3.7-1.8.523a1.207,1.207,0,0,1-.531-1.94c1.094-1.473,2.273-2.886,3.447-4.3.482-.579,1.044-1.091,1.57-1.633Z" transform="translate(-639.296 -626.765)" fill="#272520"/>
    <path id="Path_441" data-name="Path 441" d="M-1226.887-17.239c.176-.757.4-1.506.521-2.271.444-2.718.768-5.459,1.326-8.152a7.586,7.586,0,0,1,1.476-2.919c.307-.4,1.155-.389,1.758-.564.09.615.407,1.308.23,1.833-.829,2.453-2.038,4.8-2.649,7.3a94.941,94.941,0,0,0-1.518,9.427,4.514,4.514,0,0,0,.31,1.688c.344,1.27.813,2.515,1.034,3.8.066.382-.527.877-.818,1.32-.4-.386-.98-.7-1.161-1.172-.648-1.682-.876-3.583-1.773-5.1-3.325-5.616-6.644-11.258-10.4-16.587a23.082,23.082,0,0,0-6.8-6.2A21.394,21.394,0,0,1-1254-44.648c-1.913-4.21-3.511-8.476-3.427-13.2a3.012,3.012,0,0,1,1.542-2.91,1.774,1.774,0,0,1,1.54.209,1.451,1.451,0,0,1,.391,1.347c-1.432,2.036-.636,4.238-.244,6.213a36.661,36.661,0,0,0,2.653,7.63,16.382,16.382,0,0,0,7.122,7.759A26.818,26.818,0,0,1-1234.314-27q1.993,3.578,3.969,7.166l.355-.113c-.251-.8-.48-1.616-.755-2.412-3.276-9.511-8.034-18.323-12.817-27.122-.206-.38-.362-.788-.555-1.175-.384-.769-.331-1.6.517-1.774a2.1,2.1,0,0,1,1.757.792,23.383,23.383,0,0,1,1.152,2.952c2.11,4.668,4.361,9.274,6.361,13.988,2.342,5.52,4.476,11.129,6.7,16.7.1.252.238.489.359.733Z" transform="translate(-218.969 -165.616)" fill="#272520"/>
    <path id="Path_442" data-name="Path 442" d="M-1285.34,401.162c1.339.585,2.468,1.119,3.627,1.579,6.194,2.459,12.381,4.939,18.6,7.334,5.193,2,10.4,3.963,15.65,5.81,6.891,2.426,13.855,4.649,20.739,7.1,6.792,2.415,13.513,5.033,20.288,7.5,3.4,1.238,6.865,2.317,10.288,3.5,1.151.4,2.545.585,2.318,2.429-.042.341.577.841.981,1.148,4.126,3.138,8.285,6.232,12.407,9.375,6.666,5.082,13.366,10.122,19.942,15.318,3.725,2.943,7.222,6.173,10.846,9.245.771.654,1.714,1.113,2.45,1.8.321.3.321.943.467,1.43-.537-.019-1.28.187-1.582-.089a328.23,328.23,0,0,0-30.2-24.588c-4.99-3.581-10.274-6.749-15.372-10.184-1.359-.916-2.947-1.7-3.25-3.691-.071-.464-.948-.929-1.544-1.169-3.59-1.448-7.187-2.882-10.819-4.223-6.992-2.581-13.99-5.145-21.018-7.624-7.437-2.624-14.929-5.093-22.364-7.721-5.066-1.791-10.047-3.822-15.119-5.59-4.789-1.67-9.651-3.127-14.474-4.7a17.089,17.089,0,0,1-3.226-1.277,2.086,2.086,0,0,1-.78-1.591C-1286.481,401.921-1285.783,401.567-1285.34,401.162Z" transform="translate(-198.385 -492.969)" fill="#272520"/>
    <path id="Path_443" data-name="Path 443" d="M-1535.221-22.61c-.365-.759-.86-1.309-.833-1.832.057-1.119.863-1.217,1.8-.927,1.291.4,2.586.79,3.9,1.107a4.594,4.594,0,0,0,1.7.059c.9-.13,1.616.029,1.71,1.033.1,1.061-.629,1.289-1.527,1.221-.281-.022-.565,0-.969,0,.312,1.921-.918,1.719-2.186,1.87a36.8,36.8,0,0,0-6.783,1.308c-5.614,1.783-11.155,3.8-16.741,5.67-2.148.721-4.331,1.344-6.513,1.955a2.267,2.267,0,0,0-1.893,2.412c.142,2.01.472,4.012.813,6q.749,4.36,1.634,8.7a29.2,29.2,0,0,0,5.566,12.474c.645.815,1.688,1.307,2.376,2.1a2.171,2.171,0,0,1,.538,1.775c-.378.9-1.27.633-1.812.083a17.6,17.6,0,0,1-2.719-3.175,58.4,58.4,0,0,1-6.372-16.135c-.689-2.8-1.917-5.479-2.567-8.29a19.847,19.847,0,0,1-.3-5.751c.1-1.379,1.325-2.086,2.615-2.408,1.733-.433,3.5-.717,5.226-1.188,3.954-1.082,7.93-2.111,11.817-3.4,3.659-1.215,7.219-2.733,10.814-4.138A3.092,3.092,0,0,0-1535.221-22.61Z" transform="translate(0 -190.661)" fill="#272520"/>
    <path id="Path_444" data-name="Path 444" d="M-1426.509-90.959c1.423-.036,1.667.651,1.576,1.526-.786,7.582.193,15.1.828,22.629a58.5,58.5,0,0,0,.824,5.884,11.583,11.583,0,0,0,.985,2.011,27.322,27.322,0,0,0,1.286,3.338c2.988,5.145,5.852,10.382,9.171,15.31,2.691,3.995,5.982,7.584,8.953,11.395.268.344.142,1,.2,1.505-.508-.176-1.187-.2-1.5-.551-5.857-6.578-10.57-13.969-15.194-21.427-1.2-1.932-2.691-3.683-3.858-5.632a12.656,12.656,0,0,1-1.184-3.458,23.136,23.136,0,0,1-.51-3.294c-.646-6.512-1.237-13.029-1.922-19.537-.166-1.581-.772-3.12-.892-4.7a17.564,17.564,0,0,1,.344-4.22C-1427.34-90.549-1426.683-90.817-1426.509-90.959Z" transform="translate(-98.274 -144.287)" fill="#272520"/>
    <path id="Path_445" data-name="Path 445" d="M-1336.7,753.7c.945.076,1.526.066,2.083.177a31.586,31.586,0,0,0,11.571.072c5.014-.855,10.054-1.577,15.037-2.588,3.216-.652,6.314-1.882,9.527-2.562,5.158-1.091,10.365-1.954,15.557-2.885,1.334-.24,2.686-.394,4.033-.554a3.91,3.91,0,0,1,1.725-.024c.492.187.84.754,1.252,1.154-.428.371-.835,1.025-1.29,1.062a39.845,39.845,0,0,1-4.364-.028c-5.295-.16-10.4.973-15.491,2.233-6.717,1.663-13.4,3.49-20.151,4.983a116.24,116.24,0,0,1-12.593,1.926C-1332.31,756.937-1334.388,755.859-1336.7,753.7Z" transform="translate(-162.803 -736.76)" fill="#272520"/>
    <path id="Path_446" data-name="Path 446" d="M-1332.384-35.477c.677-.746,1.057-1.533,1.6-1.661a2.572,2.572,0,0,1,2.031.516,16.646,16.646,0,0,1,2.017,2.648c3.842,5.287,7.763,10.519,11.5,15.877a83.924,83.924,0,0,1,12.575,27.26c.155.6.608,1.161.626,1.749.013.442-.449.9-.7,1.349-.346-.324-.948-.612-1-.979-.8-5.478-2.935-10.5-5.147-15.5-4.424-10-11.1-18.476-18.163-26.68a27.076,27.076,0,0,0-3.6-2.865C-1331.194-34.216-1331.664-34.762-1332.384-35.477Z" transform="translate(-165.861 -182.39)" fill="#272520"/>
    <path id="Path_447" data-name="Path 447" d="M-1367.272,614.789a5.184,5.184,0,0,1-.221-1.98c1.846-5.856,3.824-11.67,5.664-17.527,1.926-6.13,3.826-12.271,5.561-18.457.7-2.5.756-5.171,1.441-7.672a18.479,18.479,0,0,1,2.385-4.888c.291-.457,1.39-.4,2.119-.579-.1.686.032,1.55-.337,2.029-1.747,2.269-2.209,5.007-3.007,7.621-1.934,6.331-3.765,12.693-5.757,19.006-2.3,7.281-4.722,14.522-7.094,21.78-.071.216-.169.423-.254.635Z" transform="translate(-140.946 -608.121)" fill="#272520"/>
    <path id="Path_448" data-name="Path 448" d="M-696.665,579.627c-1.4-1.075-2.348-1.9-3.391-2.575-2.6-1.675-5.226-3.313-7.887-4.889a2.873,2.873,0,0,0-2.863-.371,2.054,2.054,0,0,1-1.948-.44,2.251,2.251,0,0,1,.354-1.992c.824-1.087,2.57-1.169,4.115-.182,1.585,1.012,3.036,2.234,4.56,3.343,3.131,2.279,6.283,4.529,9.392,6.836a1.835,1.835,0,0,1,.722,1.266c0,.293-.65.572-1,.867a49.89,49.89,0,0,0-3.8,3.262c-1.984,2.053-3.825,4.244-5.745,6.359-.616.679-1.36,1.281-2.226.432-.917-.9-.29-1.645.4-2.351C-702.95,586.089-699.928,582.978-696.665,579.627Z" transform="translate(-604.802 -611.523)" fill="#272520"/>
    <path id="Path_449" data-name="Path 449" d="M-1315.885,722.706c2.595.251,5.2.453,7.783.763,6.894.826,13.233-1.095,19.374-3.912,2.088-.958,4.056-2.177,6.111-3.211a1.758,1.758,0,0,1,1.355-.039,1.235,1.235,0,0,1,.546,1.051,1.612,1.612,0,0,1-.833,1.047c-2.952,1.158-5.991,2.111-8.895,3.375a50.12,50.12,0,0,1-20.524,3.916c-2.6-.012-5.214-.23-7.806-.494-.479-.049-.891-.767-1.333-1.176.435-.416.817-1.088,1.317-1.192a14.462,14.462,0,0,1,2.9-.055Z" transform="translate(-174.558 -716.174)" fill="#272520"/>
    <path id="Path_450" data-name="Path 450" d="M-847.026,875.168c.61-.8.9-1.485,1.419-1.784a9.94,9.94,0,0,1,3.056-1.251c7.082-1.324,14.2-2.479,21.265-3.864,3.353-.657,6.622-1.734,9.954-2.52.414-.1.974.426,1.466.662-.339.431-.615,1.162-1.026,1.248-6.853,1.434-13.73,2.749-20.586,4.172-3.4.705-6.775,1.52-10.127,2.417-.662.177-1.122,1.017-1.748,1.445-.578.4-1.288.946-1.877.878S-846.323,875.754-847.026,875.168Z" transform="translate(-509.75 -822.133)" fill="#272520"/>
    <path id="Path_451" data-name="Path 451" d="M-1358.782,57.871c.623-.687,1.014-1.5,1.554-1.615a2.649,2.649,0,0,1,2.034.6c2,1.828,3.79,3.9,5.835,5.673,5.191,4.51,10.433,8.967,15.756,13.318a41.387,41.387,0,0,0,4.868,2.849,3.843,3.843,0,0,1,1.11,1.185c.063.1-.36.731-.529.718a3.556,3.556,0,0,1-1.427-.447c-7.906-4.423-13.976-11.181-21.119-16.573-2.028-1.531-4.348-2.672-6.49-4.058A10.87,10.87,0,0,1-1358.782,57.871Z" transform="translate(-147.157 -248.571)" fill="#272520"/>
    <path id="Path_452" data-name="Path 452" d="M-1360.285,10.732c-.36,1.159-.966,1.181-1.764.841A90.618,90.618,0,0,1-1378.986,1.51c-4.957-3.539-9.622-7.49-14.384-11.3a5.441,5.441,0,0,1-1.437-1.8c-.181-.368.093-.961.162-1.452.448.092,1.022.043,1.319.306.717.638,1.289,1.435,1.946,2.144a76.427,76.427,0,0,0,15.651,12.67c3.848,2.414,7.771,4.711,11.7,6.987a20.047,20.047,0,0,0,2.723.937A4.924,4.924,0,0,1-1360.285,10.732Z" transform="translate(-121.59 -199.498)" fill="#272520"/>
    <path id="Path_453" data-name="Path 453" d="M-489.21,725.088a8.357,8.357,0,0,1,1.848,1.411c2.467,3.408,5.058,6.751,7.225,10.346,3.5,5.805,6.7,11.789,10.028,17.7.164.291.458.621.416.89-.063.4-.314,1.005-.593,1.072a1.311,1.311,0,0,1-1.117-.555c-1.921-3.62-3.707-7.312-5.677-10.9-1.816-3.311-3.792-6.534-5.734-9.774a27.15,27.15,0,0,0-6.868-7.632,2.727,2.727,0,0,1-.745-1.689C-490.454,725.753-489.741,725.449-489.21,725.088Z" transform="translate(-762.41 -722.479)" fill="#272520"/>
    <path id="Path_454" data-name="Path 454" d="M-564.157,797.613c-.254-.261-.964-.71-.9-.984a2.115,2.115,0,0,1,1.063-1.417c2.76-.874,5.578-1.556,8.351-2.391,4.352-1.311,8.685-2.686,13.023-4.044,1.609-.5,3.195-1.093,4.825-1.507.4-.1.928.336,1.4.526-.285.374-.5.974-.867,1.089-5.162,1.618-10.368,3.1-15.515,4.762-3.443,1.113-6.808,2.467-10.211,3.7A11.59,11.59,0,0,1-564.157,797.613Z" transform="translate(-709.529 -766.526)" fill="#272520"/>
    <path id="Path_455" data-name="Path 455" d="M-1116.121,198.846c-.152-.494-.494-1.017-.426-1.478.507-3.433,1.036-6.864,1.678-10.273.417-2.217,1.026-4.4,1.577-6.589.08-.317.25-.761.491-.857a14.3,14.3,0,0,1,2.026-.506,4.54,4.54,0,0,1,.117,1.8c-.615,1.61-1.606,3.1-2.073,4.739-.722,2.54-1.175,5.161-1.656,7.763-.272,1.469-.339,2.975-.576,4.452-.055.345-.427.639-.654.957Z" transform="translate(-318.781 -335.662)" fill="#272520"/>
    <path id="Path_456" data-name="Path 456" d="M-782.291,696.252c.69.437,1.33.846,1.974,1.247,1.914,1.19,3.807,2.414,5.758,3.539.511.295,1.278.148,1.787.445a5.429,5.429,0,0,1,1.163,1.337c-.541.226-1.241.792-1.6.624-3.124-1.47-6.191-3.062-9.259-4.647a1.807,1.807,0,0,1-.79-.814,1.641,1.641,0,0,1-.073-1.185C-783.212,696.542-782.713,696.458-782.291,696.252Z" transform="translate(-554.825 -702.048)" fill="#272520"/>
    <path id="Path_457" data-name="Path 457" d="M-1450.342,25.384c-.377-.366-1.15-.772-1.26-1.313a2.4,2.4,0,0,1,.581-2,13.872,13.872,0,0,1,3.262-1.772,1.447,1.447,0,0,1,1.3.22,1.359,1.359,0,0,1,.241,1.279c-.967,1.164-2.052,2.232-3.124,3.305C-1449.491,25.248-1449.794,25.237-1450.342,25.384Z" transform="translate(-81.368 -223.067)" fill="#272520"/>
    <path id="Path_458" data-name="Path 458" d="M-1357.717,744.39c-2.04-2.2-2.123-2.823-.36-4.763.4-.44,1.31-.418,1.985-.609.083.619.4,1.329.2,1.839A33.8,33.8,0,0,1-1357.717,744.39Z" transform="translate(-146.77 -732.348)" fill="#272520"/>
    <path id="Path_459" data-name="Path 459" d="M-1083.246,288.3c-.439,2.261-1.534,2.859-3.327,1.724-.426-.27-.638-.879-.948-1.331.455-.311.913-.887,1.363-.88a17.137,17.137,0,0,1,2.949.52Z" transform="translate(-339.353 -412.661)" fill="#272520"/>
  </g>
</svg>
