<svg xmlns="http://www.w3.org/2000/svg" width="440.619" height="44" viewBox="0 0 440.619 44">
  <g id="Group_1004" data-name="Group 1004" transform="translate(-5153.69 -8981.771)">
    <text id="ONLINE_STORE" data-name="ONLINE STORE" transform="translate(5445.31 9016.771)" fill="#fff" font-size="36" font-family="Montserrat-Bold, Montserrat" font-weight="700" letter-spacing="0.04em"><tspan x="-148.896" y="0">ONLINE STORE</tspan></text>
    <g id="Group_1002" data-name="Group 1002" transform="translate(5128.188 8944.966)">
      <path id="Path_96" data-name="Path 96" d="M25.5,72.054v-26.3h5.786V66.794H44.4v5.259Z" transform="translate(0 0.64)" fill="#fff"/>
      <path id="Path_97" data-name="Path 97" d="M88.894,72.054v-26.3H95.13l6.914,11.121,6.913-11.121h6.237v26.3h-5.749V54.884l-7.4,11.234h-.15L94.567,55V72.054Z" transform="translate(1.016 0.64)" fill="#fff"/>
      <path id="Path_98" data-name="Path 98" d="M132.052,59.018h4.583a4.782,4.782,0,0,0,3.343-1.127,3.693,3.693,0,0,0,1.24-2.855v-.077a3.623,3.623,0,0,0-1.24-2.948,5.242,5.242,0,0,0-3.456-1.033h-4.471Zm-5.786,13.036v-26.3h10.745a10.433,10.433,0,0,1,7.364,2.5,8.549,8.549,0,0,1,2.7,6.593v.076a8.26,8.26,0,0,1-3.006,6.82,11.757,11.757,0,0,1-7.627,2.423h-4.4v7.89Z" transform="translate(2.407 0.64)" fill="#fff"/>
      <path id="Path_99" data-name="Path 99" d="M65.625,39.429h-.246a2.4,2.4,0,0,0-.516.088,1.665,1.665,0,0,0-.193.062h-.005a2.467,2.467,0,0,0-.8.491l-.066.063v0a2.5,2.5,0,0,0-.175.195,2.353,2.353,0,0,0-.529,1.413v.184a2.2,2.2,0,0,0,.087.55c.019.068.041.136.066.2a2.366,2.366,0,0,0,.552.86h0l0,.005a2.532,2.532,0,0,0,.19.172c.068.051.143.106.21.151a2.419,2.419,0,0,0,1.209.375H65.6a2.419,2.419,0,0,0,.549-.087c.063-.019.133-.04.193-.06a2.41,2.41,0,0,0,.865-.558v0c.064-.065.124-.132.174-.194s.108-.14.153-.208a2.392,2.392,0,0,0,.374-1.178v-.249a2.484,2.484,0,0,0-.081-.514c-.021-.064-.041-.131-.065-.2a2.452,2.452,0,0,0-.471-.775l-.084-.087,0,0a1.8,1.8,0,0,0-.195-.172,1.932,1.932,0,0,0-.207-.151,2.461,2.461,0,0,0-1.177-.38M68.809,50H62.2l-.768.612c-.513,1.566-3.106,9.494-4.219,14.007a7.564,7.564,0,0,0-.313,2.665c.075.435.406.715,1.252.567l.029,0,.023,0,.012,0,.037,0h.017l.03,0h.009l.135-.008.022,0h.087l.047,0h.271l.132,0h.246l.036,0h1.131c.588,0,1.2.009,1.7.016h.025l.158,0h.009l.492.007h.039l.09,0h.017V66.289H68.06v1.547h.017l.09,0h.038l.493-.007h.009l.159,0h.022c.506-.008,1.117-.013,1.705-.016h1.131l.037,0h.245l.132,0h.269l.048,0h.087l.021,0,.134.008h.01l.031,0h.015l.038,0,.013,0,.022,0,.029,0c.849.148,1.177-.132,1.252-.567a7.516,7.516,0,0,0-.314-2.665c-1.111-4.513-3.7-12.442-4.219-14.007Zm-9.655-1.85h1.887l.475-1.846h-.858V44.46h1.972c-.055-.061-.108-.126-.159-.192a4.1,4.1,0,0,1-.245-.338,3.855,3.855,0,0,1-.6-1.779h-.021v-.628h.019a4,4,0,0,1,.186-.924c.031-.091.065-.184.1-.281a3.924,3.924,0,0,1,.833-1.237l.091-.088h.008a2.022,2.022,0,0,1,.22-.19,3.731,3.731,0,0,1,.336-.246,3.823,3.823,0,0,1,1.785-.6v-.016h.625v.016a3.874,3.874,0,0,1,.92.184c.094.032.187.065.28.106a3.919,3.919,0,0,1,1.244.834l.088.089v.005c.065.07.128.145.192.223a3.259,3.259,0,0,1,.239.341,3.817,3.817,0,0,1,.6,1.781H69.4v.62h-.016a3.842,3.842,0,0,1-.186.927c-.032.092-.069.185-.106.279a3.841,3.841,0,0,1-.714,1.109h1.977V46.3h-.79l.418,1.846h1.877V50H71l.006.021.113.348.011.027.009.03.006.017.064.2.023.069.478,1.476.006.022.03.09.042.132.021.069.053.161.014.043.135.425,0,.009.068.211.012.037.058.186.022.067.052.163.03.1.043.134.04.132.032.1.308.977,0,.014.075.237.013.047.066.207.115.369.044.146.122.4.013.042.024.08.067.215.015.048.029.1.1.334.03.1,0,.019.076.246.016.054.006.024.128.418.091.3.047.157.032.11.057.188.023.078.065.222.167.571.009.024.019.065.066.232.06.2.026.09.048.169.074.259.043.154.069.243.012.042.019.069.061.214.01.036.1.378.078.279.207.779,0,.005.1.392.015.055.048.192.006.027.054.212a9.425,9.425,0,0,1,.345,3.569,2.23,2.23,0,0,1-2.944,2.021l-.049-.005h-.005l-.058-.005h-.01l-.078-.005h-.011l-.039,0h-.012l-.275-.01h-.035l-.11,0h-.195v1.641h1.491v2.127H57.75V71.291h1.5V69.649h-.194l-.113,0h-.034l-.276.01h-.012l-.039,0h-.067l-.019,0h-.047l-.009,0-.015,0h-.005l-.049.005a2.227,2.227,0,0,1-2.941-2.021,9.357,9.357,0,0,1,.339-3.569l.054-.212.006-.027.049-.192.015-.055.042-.166.023-.088.036-.142.031-.117.03-.113.039-.15.024-.085.049-.182.016-.056.116-.425.016-.062v0l.025-.089c.4-1.454.877-3.057,1.35-4.61l.005-.016c.481-1.582.966-3.113,1.371-4.383l.006-.019.538-1.671.006-.017L60.007,50h-.853ZM63.7,60.525c.411-1.372,2.321-3.458,1.231-5.025,2.784,1.737,3.56,7.464.633,8.858A3.357,3.357,0,0,1,63.7,60.525Zm1.8,5.331c-8.225.131-5.529-6.02-2.99-15.1h5.975C71.036,59.836,73.73,65.987,65.506,65.856Z" transform="translate(1.612 0)" fill="#fff" fill-rule="evenodd"/>
    </g>
  </g>
</svg>
