<?xml version="1.0" standalone="no"?>
<!DOCTYPE svg PUBLIC "-//W3C//DTD SVG 20010904//EN"
 "http://www.w3.org/TR/2001/REC-SVG-20010904/DTD/svg10.dtd">
<svg version="1.0" xmlns="http://www.w3.org/2000/svg"
 width="700.000000pt" height="700.000000pt" viewBox="0 0 700.000000 700.000000"
 preserveAspectRatio="xMidYMid meet">
<metadata>
Created by potrace 1.14, written by Peter Selinger 2001-2017
</metadata>
<g transform="translate(0.000000,700.000000) scale(0.100000,-0.100000)"
fill="#000000" stroke="none">
<path d="M0 6961 l0 -38 98 -6 c106 -6 176 -28 248 -77 93 -65 175 -189 205
-310 11 -45 13 -464 13 -2355 0 -2161 -1 -2304 -18 -2358 -29 -99 -68 -168
-126 -227 -110 -113 -199 -147 -392 -150 -26 0 -28 -3 -28 -39 l0 -39 803 0
804 0 0 39 0 39 -46 1 c-169 3 -254 34 -356 133 -68 65 -110 135 -141 231 -18
58 -19 124 -19 2380 0 2241 1 2322 19 2375 78 230 248 360 471 360 l70 0 2 40
2 40 -805 0 -804 0 0 -39z"/>
<path d="M2769 6997 c-1 -1 -2 -17 -4 -34 l-2 -33 51 -1 c92 -1 145 -20 193
-71 57 -59 74 -160 42 -242 -10 -25 -127 -200 -162 -241 -9 -11 -568 -779
-607 -835 -14 -19 -27 -37 -30 -40 -3 -3 -38 -50 -77 -105 -39 -55 -95 -132
-125 -172 -29 -39 -60 -82 -68 -94 -8 -12 -24 -34 -35 -48 -11 -14 -31 -42
-45 -61 -13 -19 -118 -163 -233 -320 -237 -325 -370 -510 -380 -527 -4 -6 -1
-17 6 -25 7 -7 41 -47 76 -88 35 -41 85 -100 111 -130 94 -110 494 -576 539
-629 63 -74 174 -203 186 -217 6 -6 30 -35 55 -64 25 -30 107 -126 183 -214
77 -89 148 -172 160 -186 29 -35 131 -154 137 -160 3 -3 30 -34 60 -70 30 -36
57 -67 60 -70 3 -3 27 -32 55 -65 27 -33 52 -62 55 -65 3 -3 30 -34 60 -70 30
-36 57 -67 60 -70 3 -3 30 -34 60 -70 30 -35 60 -70 65 -76 17 -19 109 -125
206 -239 51 -60 103 -121 115 -135 12 -14 80 -92 150 -175 219 -255 416 -453
634 -639 468 -398 995 -646 1500 -703 81 -10 394 -9 475 0 57 7 76 10 135 22
14 2 39 7 55 10 120 20 125 23 125 66 0 21 -3 39 -7 40 -5 0 -42 2 -83 4 -436
21 -884 180 -1315 468 -86 57 -299 214 -327 240 -7 7 -38 32 -67 57 -64 52
-64 53 -207 191 -158 155 -212 213 -388 419 -87 102 -170 199 -185 215 -15 17
-130 152 -256 300 -126 149 -232 272 -235 275 -3 3 -28 32 -55 65 -28 33 -52
62 -56 65 -3 3 -57 66 -120 140 -206 241 -541 634 -573 671 -17 20 -51 60 -76
89 -25 30 -55 65 -68 79 -13 14 -35 40 -50 59 -15 19 -32 40 -39 47 -11 12
-572 668 -657 769 -23 27 -47 55 -54 63 -12 11 -9 19 15 49 15 20 39 51 53 69
24 31 267 338 296 374 7 9 52 66 99 126 48 61 94 119 103 130 9 11 42 52 72
90 30 38 60 77 67 85 25 31 346 436 368 465 640 816 722 913 850 996 179 118
354 171 588 178 14 1 17 8 15 36 l-2 34 -773 0 c-425 1 -774 0 -774 -2z"/>
<path d="M4116 6438 c1 -13 3 -26 3 -29 1 -3 20 -4 44 -3 50 3 123 -29 149
-66 9 -14 21 -43 26 -65 19 -86 38 -56 -641 -984 -61 -84 -124 -170 -138 -190
-14 -20 -130 -180 -259 -356 -128 -176 -247 -340 -265 -365 l-33 -45 150 -175
c82 -96 167 -195 188 -220 21 -25 48 -56 60 -70 12 -14 31 -36 42 -50 33 -39
192 -224 203 -236 6 -6 30 -35 55 -64 37 -45 140 -165 219 -255 9 -11 97 -114
196 -230 98 -115 183 -214 189 -220 6 -5 29 -32 51 -60 22 -27 45 -54 51 -60
6 -5 35 -39 65 -75 30 -36 57 -67 60 -70 3 -3 72 -84 154 -180 209 -245 202
-238 380 -416 434 -434 843 -662 1310 -729 87 -13 356 -13 420 -1 17 3 70 13
118 22 l88 17 -3 30 c-3 31 -4 31 -63 34 -372 18 -747 167 -1125 447 -52 39
-108 83 -125 97 -186 162 -296 272 -461 464 -93 108 -290 340 -310 364 -10 13
-26 31 -35 40 -8 9 -67 77 -130 151 -63 74 -126 149 -140 165 -15 17 -123 143
-240 280 -117 138 -218 255 -224 261 -5 6 -30 36 -55 65 -25 30 -88 104 -140
165 -52 61 -115 135 -140 164 -25 29 -50 58 -55 64 -6 6 -62 72 -125 146 -63
74 -117 137 -120 140 -3 3 -34 40 -69 82 l-63 77 53 68 c30 37 58 73 64 79 5
6 37 46 70 88 33 43 89 115 125 160 36 45 79 99 95 120 17 21 35 44 40 50 6 6
51 63 100 126 49 63 109 140 133 170 82 101 100 124 206 260 59 74 112 142
119 150 21 26 241 304 257 324 143 185 357 300 571 308 68 3 69 3 69 31 l0 27
-583 0 -584 0 3 -22z"/>
</g>
</svg>
