<svg xmlns="http://www.w3.org/2000/svg" width="120" height="32.785" viewBox="0 0 120 32.785">
  <g id="Group_828" data-name="Group 828" transform="translate(-25.503 -37.945)">
    <path id="Path_96" data-name="Path 96" d="M25.5,70.061V45.755h5.348V65.2H42.969v4.861Z" fill="#1a1311"/>
    <path id="Path_97" data-name="Path 97" d="M88.894,70.061V45.755h5.764l6.39,10.278,6.389-10.278H113.2V70.061h-5.313V54.193l-6.84,10.382h-.139L94.137,54.3V70.061Z" fill="#1a1311"/>
    <path id="Path_98" data-name="Path 98" d="M131.614,58.013h4.236a4.42,4.42,0,0,0,3.09-1.042,3.413,3.413,0,0,0,1.146-2.639v-.071a3.348,3.348,0,0,0-1.146-2.725,4.844,4.844,0,0,0-3.194-.955h-4.132Zm-5.348,12.048V45.755H136.2A9.642,9.642,0,0,1,143,48.064a7.9,7.9,0,0,1,2.5,6.093v.07a7.634,7.634,0,0,1-2.778,6.3,10.866,10.866,0,0,1-7.049,2.239h-4.062v7.292Z" fill="#1a1311"/>
    <path id="Path_99" data-name="Path 99" d="M64.847,39.317H64.62a2.222,2.222,0,0,0-.477.081,1.537,1.537,0,0,0-.178.057H63.96a2.28,2.28,0,0,0-.735.454l-.061.058v0a2.308,2.308,0,0,0-.162.18,2.174,2.174,0,0,0-.489,1.306v.17a2.034,2.034,0,0,0,.08.508c.018.063.038.126.061.184a2.187,2.187,0,0,0,.51.795h0l0,.005a2.339,2.339,0,0,0,.176.159c.063.047.132.1.194.14a2.235,2.235,0,0,0,1.117.347h.171a2.236,2.236,0,0,0,.507-.08c.058-.018.123-.037.178-.055a2.228,2.228,0,0,0,.8-.516v0c.059-.06.115-.122.161-.179s.1-.129.141-.192a2.211,2.211,0,0,0,.346-1.089v-.23a2.3,2.3,0,0,0-.075-.475c-.019-.059-.038-.121-.06-.181a2.266,2.266,0,0,0-.435-.716l-.078-.08,0,0a1.666,1.666,0,0,0-.18-.159,1.784,1.784,0,0,0-.191-.14,2.275,2.275,0,0,0-1.088-.351m2.943,9.77h-6.1l-.71.566C60.5,51.1,58.1,58.428,57.077,62.6a6.991,6.991,0,0,0-.289,2.463c.069.4.375.661,1.157.524l.027,0,.021,0,.011,0,.034,0h.016l.028,0h.008l.125-.007.02,0h.08l.043,0h.25l.122,0h.227l.033,0h1.045c.543,0,1.107.008,1.574.015h.023l.146,0h.008l.455.006h.036l.083,0h.016v-1.43H67.1v1.43h.016l.083,0h.035l.456-.006H67.7l.147,0h.02c.468-.007,1.032-.012,1.576-.015h1.045l.034,0h.226l.122,0h.249l.044,0h.08l.019,0,.124.007h.009l.029,0h.014l.035,0,.012,0,.02,0,.027,0c.785.137,1.088-.122,1.157-.524a6.946,6.946,0,0,0-.29-2.463c-1.027-4.171-3.424-11.5-3.9-12.946Zm-8.923-1.71h1.744l.439-1.706h-.793V43.966H62.08c-.051-.056-.1-.116-.147-.177a3.787,3.787,0,0,1-.226-.312,3.563,3.563,0,0,1-.552-1.644h-.019v-.58h.018a3.7,3.7,0,0,1,.172-.854c.029-.084.06-.17.1-.26A3.627,3.627,0,0,1,62.193,39l.084-.081h.007a1.868,1.868,0,0,1,.2-.176,3.448,3.448,0,0,1,.311-.227,3.533,3.533,0,0,1,1.65-.552v-.015h.578v.015a3.58,3.58,0,0,1,.85.17c.087.03.173.06.259.1a3.622,3.622,0,0,1,1.15.771l.081.082v0c.06.065.118.134.177.206a3.012,3.012,0,0,1,.221.315,3.528,3.528,0,0,1,.555,1.646h.015v.573h-.015a3.551,3.551,0,0,1-.172.857c-.03.085-.064.171-.1.258a3.55,3.55,0,0,1-.66,1.025h1.827v1.705h-.73l.386,1.706h1.735v1.71h-.791l.006.019.1.322.01.025.008.028.006.016.059.184.021.064.442,1.364.006.02.028.083.039.122.019.064.049.149.013.04.125.393,0,.008.063.195.011.034.054.172.02.062.048.151.028.088.04.124.037.122.03.1.285.9,0,.013.069.219.012.043.061.191.106.341.041.135.113.369.012.039.022.074.062.2.014.044.027.09L72,56l.028.09,0,.018.07.227.015.05.006.022.118.386.084.281.043.145.03.1.053.174.021.072.06.2.154.528.008.022.018.06.061.214.055.189.024.083.044.156.068.239.04.142.064.225.011.039.018.064.056.2.009.033.1.349.072.258.191.72,0,.005.093.362.014.051.044.177.006.025.05.2a8.711,8.711,0,0,1,.319,3.3,2.061,2.061,0,0,1-2.721,1.868l-.045,0h-.005l-.054,0H71.22l-.072,0h-.01l-.036,0h-.011l-.254-.009h-.032l-.1,0h-.18v1.517H71.9V70.73H57.569V68.764h1.383V67.247h-.179l-.1,0h-.031l-.255.009h-.011l-.036,0h-.062l-.018,0h-.043l-.008,0-.014,0h-.005l-.045,0a2.058,2.058,0,0,1-2.718-1.868,8.648,8.648,0,0,1,.313-3.3l.05-.2.006-.025.045-.177.014-.051.039-.153.021-.081.033-.131.029-.108.028-.1.036-.139.022-.079L56.1,60.7l.015-.052.107-.393.015-.057v0l.023-.082c.373-1.344.811-2.825,1.248-4.261l.005-.015c.445-1.462.893-2.877,1.267-4.051l.006-.018.5-1.544.006-.016.361-1.117h-.788Zm4.2,11.437c.38-1.268,2.145-3.2,1.138-4.644,2.573,1.605,3.29,6.9.585,8.187A3.1,3.1,0,0,1,63.072,58.814Zm1.665,4.927c-7.6.121-5.11-5.564-2.763-13.952H67.5C69.848,58.177,72.338,63.862,64.737,63.741Z" fill="#1a1311" fill-rule="evenodd"/>
  </g>
</svg>
