<svg width="450" height="330" viewBox="0 0 450 330" fill="none" xmlns="http://www.w3.org/2000/svg">
<path d="M260.379 92H238.317V97.5H245.031V150.5H237.837V156.5H260.858V150.5H253.664V132L258.94 125.5H260.379L278.124 156.5H291.553V150H284.359L264.695 119.5L282.441 97.5H288.676V92H268.532V97.5H274.767L253.664 123V97.5H260.379V92Z" fill="white" stroke="white"/>
<path d="M272.849 186C305.078 187.2 334.558 180.5 343.351 177C328.963 179.846 281.865 182.431 248.868 176C207.622 167.962 228.725 172.5 209.061 167.5C193.33 163.5 161.58 151.667 152.947 148C142.587 144.4 130.085 136.5 125.129 133V74H314.095V168C323.303 168.4 330.402 166.833 332.8 166V54.5H106.425V120.5C102.748 118.333 93.1876 111 84.3628 99C75.538 87 73.3318 74.6667 73.3318 70C72.8522 66.1667 73.9073 56.2 81.9647 47C90.0222 37.8 101.309 31.1667 105.945 29C77.1687 36.5 62.7804 44 56.5455 55C50.3106 66 47.9126 87 61.3416 103C74.7706 119 76.2095 119 92.5161 132C108.823 145 127.048 152 144.314 159.5C161.58 167 172.131 171.5 202.826 178C233.521 184.5 232.562 184.5 272.849 186Z" fill="white" stroke="white"/>
<path d="M129.926 198.5L100.669 251H336.636L321.769 208C335.965 204.8 354.222 198 361.576 195C376.156 189 388.754 178.167 393.23 173.5C402.439 163.5 403.462 149 402.822 143C402.439 133.4 394.669 122.667 390.832 118.5C377.787 106.1 364.933 99 360.137 97C374.334 107.8 380.441 119.5 381.72 124C385.94 138.4 382.199 149.333 379.801 153C370.593 168.2 354.862 177.333 348.147 180C332.8 190 296.669 197.833 280.522 200.5C252.226 203 231.602 202 219.133 201.5C206.663 201 182.203 198.5 153.906 192.5C131.268 187.7 106.744 178.5 97.3122 174.5C118.895 187 115.537 184 137.12 194C154.386 202 182.363 207 194.193 208.5L190.836 218.5H180.284L182.203 208.5L176.927 218.5H164.457L166.855 208.5L162.059 218.5H150.069L151.508 208.5L145.753 218.5H128.007L129.926 198.5Z" fill="#CCCCCC" stroke="#CCCCCC"/>
<path d="M240.715 219.5L241.674 214.5H234L232.562 219.5H240.715Z" fill="#131313" stroke="#CCCCCC"/>
<path d="M225.847 212.5H217.694L215.775 219H223.929L225.847 212.5Z" fill="#131313" stroke="#CCCCCC"/>
<path d="M210.02 211.5L202.346 210L199.469 219H207.622L210.02 211.5Z" fill="#131313" stroke="#CCCCCC"/>
<path d="M296.349 219L293.951 212.5L303.544 211L305.942 219H296.349Z" fill="#131313" stroke="#CCCCCC"/>
<path d="M300.186 232.5L299.227 227.5H308.819L310.738 232.5H300.186Z" fill="#131313" stroke="#CCCCCC"/>
<path d="M281.002 219L279.084 213.5H285.798L287.237 219H281.002Z" fill="#131313" stroke="#CCCCCC"/>
<path d="M285.318 232.5L283.4 228H290.115L292.033 232.5H285.318Z" fill="#131313" stroke="#CCCCCC"/>
<path d="M276.686 232L274.767 227H267.573L269.971 232H276.686Z" fill="#131313" stroke="#CCCCCC"/>
<path d="M271.889 219L270.93 214H267.093L265.175 219H271.889Z" fill="#131313" stroke="#CCCCCC"/>
<path d="M257.022 219L255.583 214.5H250.787L248.389 219H257.022Z" fill="#131313" stroke="#CCCCCC"/>
<path d="M244.072 231.5L245.991 227H254.624L252.226 231.5H244.072Z" fill="#131313" stroke="#CCCCCC"/>
<path d="M227.766 231.5L229.684 227H238.317L235.919 231.5H227.766Z" fill="#131313" stroke="#CCCCCC"/>
<path d="M210.5 231.5L212.418 227H221.051L218.653 231.5H210.5Z" fill="#131313" stroke="#CCCCCC"/>
<path d="M194.193 231.5L196.111 227H204.744L202.346 231.5H194.193Z" fill="#131313" stroke="#CCCCCC"/>
<path d="M162.539 231.5L164.457 227H173.09L170.692 231.5H162.539Z" fill="#131313" stroke="#CCCCCC"/>
<path d="M147.191 231.5L149.11 227H157.743L155.345 231.5H147.191Z" fill="#131313" stroke="#CCCCCC"/>
<path d="M176.927 231.5L178.846 227H187.478L185.08 231.5H176.927Z" fill="#131313" stroke="#CCCCCC"/>
<path d="M126.089 231.5V227H141.436L139.997 231.5H126.089Z" fill="#131313" stroke="#CCCCCC"/>
<path d="M31.5003 306H23.4163L14.6273 291.853L11.6193 294.015V306H4.52227V272.442H11.6193V287.811C12.0893 287.153 12.5593 286.495 13.0293 285.837C13.4993 285.179 13.9693 284.521 14.4393 283.863L23.5103 272.442H31.4063L19.7033 287.294L31.5003 306ZM40.1042 270.28C41.1382 270.28 42.0312 270.531 42.7832 271.032C43.5352 271.502 43.9112 272.395 43.9112 273.711C43.9112 274.996 43.5352 275.889 42.7832 276.39C42.0312 276.891 41.1382 277.142 40.1042 277.142C39.0389 277.142 38.1302 276.891 37.3782 276.39C36.6575 275.889 36.2972 274.996 36.2972 273.711C36.2972 272.395 36.6575 271.502 37.3782 271.032C38.1302 270.531 39.0389 270.28 40.1042 270.28ZM43.5822 280.338V306H36.5792V280.338H43.5822ZM62.8845 279.868C66.4252 279.868 69.2295 280.886 71.2975 282.923C73.3655 284.928 74.3995 287.795 74.3995 291.524V294.908H57.8555C57.9182 296.882 58.4979 298.433 59.5945 299.561C60.7225 300.689 62.2735 301.253 64.2475 301.253C65.9082 301.253 67.4122 301.096 68.7595 300.783C70.1069 300.438 71.5012 299.921 72.9425 299.232V304.637C71.6892 305.264 70.3575 305.718 68.9475 306C67.5689 306.313 65.8925 306.47 63.9185 306.47C61.3492 306.47 59.0775 306 57.1035 305.06C55.1295 304.089 53.5785 302.632 52.4505 300.689C51.3225 298.746 50.7585 296.302 50.7585 293.357C50.7585 290.349 51.2599 287.858 52.2625 285.884C53.2965 283.879 54.7222 282.375 56.5395 281.372C58.3569 280.369 60.4719 279.868 62.8845 279.868ZM62.9315 284.85C61.5842 284.85 60.4562 285.289 59.5475 286.166C58.6702 287.043 58.1532 288.406 57.9965 290.255H67.8195C67.7882 288.688 67.3809 287.404 66.5975 286.401C65.8142 285.367 64.5922 284.85 62.9315 284.85ZM96.0581 279.868C98.8154 279.868 101.024 280.62 102.685 282.124C104.346 283.597 105.176 285.978 105.176 289.268V306H98.1731V291.007C98.1731 289.158 97.8441 287.78 97.1861 286.871C96.5281 285.931 95.4784 285.461 94.0371 285.461C91.9064 285.461 90.4494 286.197 89.6661 287.67C88.8827 289.111 88.4911 291.195 88.4911 293.921V306H81.4881V280.338H86.8461L87.7861 283.628H88.1621C88.9767 282.312 90.0891 281.356 91.4991 280.761C92.9404 280.166 94.4601 279.868 96.0581 279.868ZM124.598 300.877C125.381 300.877 126.133 300.799 126.854 300.642C127.574 300.485 128.295 300.297 129.016 300.078V305.295C128.264 305.608 127.324 305.875 126.196 306.094C125.099 306.345 123.893 306.47 122.577 306.47C121.041 306.47 119.663 306.219 118.441 305.718C117.25 305.217 116.294 304.355 115.574 303.133C114.884 301.88 114.54 300.156 114.54 297.963V285.602H111.203V282.641L115.057 280.291L117.078 274.886H121.543V280.338H128.734V285.602H121.543V297.963C121.543 298.934 121.825 299.671 122.389 300.172C122.953 300.642 123.689 300.877 124.598 300.877ZM142.58 277.565C142.58 278.818 142.533 280.025 142.439 281.184C142.376 282.343 142.313 283.158 142.251 283.628H142.627C143.441 282.312 144.491 281.356 145.776 280.761C147.06 280.166 148.486 279.868 150.053 279.868C152.841 279.868 155.066 280.62 156.727 282.124C158.419 283.597 159.265 285.978 159.265 289.268V306H152.262V291.007C152.262 287.31 150.883 285.461 148.126 285.461C146.026 285.461 144.569 286.197 143.755 287.67C142.971 289.111 142.58 291.195 142.58 293.921V306H135.577V270.28H142.58V277.565ZM191.423 280.338V306H186.065L185.125 302.71H184.749C183.935 304.026 182.807 304.982 181.365 305.577C179.955 306.172 178.451 306.47 176.853 306.47C174.096 306.47 171.887 305.734 170.226 304.261C168.566 302.757 167.735 300.36 167.735 297.07V280.338H174.738V295.331C174.738 297.148 175.067 298.527 175.725 299.467C176.383 300.407 177.433 300.877 178.874 300.877C181.005 300.877 182.462 300.156 183.245 298.715C184.029 297.242 184.42 295.143 184.42 292.417V280.338H191.423ZM210.61 306.47C206.787 306.47 203.826 305.42 201.727 303.321C199.659 301.19 198.625 297.853 198.625 293.31C198.625 290.177 199.158 287.623 200.223 285.649C201.288 283.675 202.761 282.218 204.641 281.278C206.552 280.338 208.746 279.868 211.221 279.868C212.976 279.868 214.495 280.04 215.78 280.385C217.096 280.73 218.24 281.137 219.211 281.607L217.143 287.012C216.046 286.573 215.012 286.213 214.041 285.931C213.101 285.649 212.161 285.508 211.221 285.508C207.586 285.508 205.769 288.093 205.769 293.263C205.769 295.832 206.239 297.728 207.179 298.95C208.15 300.172 209.498 300.783 211.221 300.783C212.694 300.783 213.994 300.595 215.122 300.219C216.25 299.812 217.347 299.263 218.412 298.574V304.543C217.347 305.232 216.219 305.718 215.028 306C213.869 306.313 212.396 306.47 210.61 306.47ZM236.539 300.877C237.322 300.877 238.074 300.799 238.795 300.642C239.515 300.485 240.236 300.297 240.957 300.078V305.295C240.205 305.608 239.265 305.875 238.137 306.094C237.04 306.345 235.834 306.47 234.518 306.47C232.982 306.47 231.604 306.219 230.382 305.718C229.191 305.217 228.235 304.355 227.515 303.133C226.825 301.88 226.481 300.156 226.481 297.963V285.602H223.144V282.641L226.998 280.291L229.019 274.886H233.484V280.338H240.675V285.602H233.484V297.963C233.484 298.934 233.766 299.671 234.33 300.172C234.894 300.642 235.63 300.877 236.539 300.877ZM254.52 277.565C254.52 278.818 254.473 280.025 254.379 281.184C254.317 282.343 254.254 283.158 254.191 283.628H254.567C255.382 282.312 256.432 281.356 257.716 280.761C259.001 280.166 260.427 279.868 261.993 279.868C264.782 279.868 267.007 280.62 268.667 282.124C270.359 283.597 271.205 285.978 271.205 289.268V306H264.202V291.007C264.202 287.31 262.824 285.461 260.066 285.461C257.967 285.461 256.51 286.197 255.695 287.67C254.912 289.111 254.52 291.195 254.52 293.921V306H247.517V270.28H254.52V277.565ZM303.364 280.338V306H298.006L297.066 302.71H296.69C295.875 304.026 294.747 304.982 293.306 305.577C291.896 306.172 290.392 306.47 288.794 306.47C286.037 306.47 283.828 305.734 282.167 304.261C280.506 302.757 279.676 300.36 279.676 297.07V280.338H286.679V295.331C286.679 297.148 287.008 298.527 287.666 299.467C288.324 300.407 289.374 300.877 290.815 300.877C292.946 300.877 294.403 300.156 295.186 298.715C295.969 297.242 296.361 295.143 296.361 292.417V280.338H303.364ZM318.227 306L308.451 280.338H315.783L320.718 294.955C321 295.832 321.219 296.741 321.376 297.681C321.564 298.621 321.673 299.467 321.705 300.219H321.893C321.987 298.527 322.331 296.772 322.927 294.955L327.862 280.338H335.194L325.418 306H318.227ZM343.811 270.28C344.845 270.28 345.738 270.531 346.49 271.032C347.242 271.502 347.618 272.395 347.618 273.711C347.618 274.996 347.242 275.889 346.49 276.39C345.738 276.891 344.845 277.142 343.811 277.142C342.745 277.142 341.837 276.891 341.085 276.39C340.364 275.889 340.004 274.996 340.004 273.711C340.004 272.395 340.364 271.502 341.085 271.032C341.837 270.531 342.745 270.28 343.811 270.28ZM347.289 280.338V306H340.286V280.338H347.289ZM355.029 302.71C355.029 301.269 355.42 300.266 356.204 299.702C356.987 299.107 357.943 298.809 359.071 298.809C360.167 298.809 361.107 299.107 361.891 299.702C362.674 300.266 363.066 301.269 363.066 302.71C363.066 304.089 362.674 305.091 361.891 305.718C361.107 306.313 360.167 306.611 359.071 306.611C357.943 306.611 356.987 306.313 356.204 305.718C355.42 305.091 355.029 304.089 355.029 302.71ZM394.14 293.122C394.14 297.383 393.012 300.673 390.756 302.992C388.531 305.311 385.492 306.47 381.638 306.47C379.257 306.47 377.126 305.953 375.246 304.919C373.397 303.885 371.94 302.381 370.875 300.407C369.81 298.402 369.277 295.973 369.277 293.122C369.277 288.861 370.389 285.586 372.614 283.299C374.839 281.012 377.894 279.868 381.779 279.868C384.192 279.868 386.322 280.385 388.171 281.419C390.02 282.453 391.477 283.957 392.542 285.931C393.607 287.874 394.14 290.271 394.14 293.122ZM376.421 293.122C376.421 295.66 376.828 297.587 377.643 298.903C378.489 300.188 379.852 300.83 381.732 300.83C383.581 300.83 384.912 300.188 385.727 298.903C386.573 297.587 386.996 295.66 386.996 293.122C386.996 290.584 386.573 288.688 385.727 287.435C384.912 286.15 383.565 285.508 381.685 285.508C379.836 285.508 378.489 286.15 377.643 287.435C376.828 288.688 376.421 290.584 376.421 293.122ZM415.673 279.868C416.017 279.868 416.425 279.884 416.895 279.915C417.365 279.946 417.741 279.993 418.023 280.056L417.506 286.636C417.286 286.573 416.957 286.526 416.519 286.495C416.111 286.432 415.751 286.401 415.438 286.401C414.247 286.401 413.103 286.62 412.007 287.059C410.91 287.466 410.017 288.14 409.328 289.08C408.67 290.02 408.341 291.305 408.341 292.934V306H401.338V280.338H406.649L407.683 284.662H408.012C408.764 283.346 409.798 282.218 411.114 281.278C412.43 280.338 413.949 279.868 415.673 279.868ZM431.951 279.868C435.115 279.868 437.591 281.121 439.377 283.628H439.565L440.129 280.338H446.051V306.047C446.051 309.713 444.97 312.502 442.808 314.413C440.646 316.324 437.45 317.28 433.22 317.28C431.402 317.28 429.71 317.17 428.144 316.951C426.608 316.732 425.104 316.34 423.632 315.776V310.183C426.796 311.499 430.133 312.157 433.643 312.157C437.246 312.157 439.048 310.214 439.048 306.329V305.812C439.048 305.279 439.063 304.731 439.095 304.167C439.157 303.603 439.204 303.102 439.236 302.663H439.048C438.17 304.01 437.121 304.982 435.899 305.577C434.677 306.172 433.298 306.47 431.763 306.47C428.723 306.47 426.342 305.311 424.619 302.992C422.927 300.642 422.081 297.383 422.081 293.216C422.081 289.017 422.958 285.743 424.713 283.393C426.467 281.043 428.88 279.868 431.951 279.868ZM434.16 285.555C430.87 285.555 429.225 288.14 429.225 293.31C429.225 298.417 430.901 300.971 434.254 300.971C436.04 300.971 437.356 300.47 438.202 299.467C439.079 298.433 439.518 296.647 439.518 294.109V293.263C439.518 290.506 439.095 288.532 438.249 287.341C437.403 286.15 436.04 285.555 434.16 285.555Z" fill="#FAFAFA"/>
</svg>
