<svg width="450" height="293" viewBox="0 0 450 293" fill="none" xmlns="http://www.w3.org/2000/svg">
<path d="M262.716 64H239.716V69.5H246.716V122.5H239.216V128.5H263.216V122.5H255.716V104L261.216 97.5H262.716L281.216 128.5H295.216V122H287.716L267.216 91.5L285.716 69.5H292.216V64H271.216V69.5H277.716L255.716 95V69.5H262.716V64Z" fill="#2196F3" stroke="#2E4E78"/>
<path d="M275.716 158C309.316 159.2 340.05 152.5 349.216 149C334.216 151.846 285.116 154.431 250.716 148C207.716 139.962 229.716 144.5 209.216 139.5C192.816 135.5 159.716 123.667 150.716 120C139.916 116.4 126.883 108.5 121.716 105V46H318.716V140C328.316 140.4 335.716 138.833 338.216 138V26.5H102.216V92.5C98.3831 90.3333 88.4164 83 79.2164 71C70.0164 59 67.7164 46.6667 67.7164 42C67.2164 38.1667 68.3164 28.2 76.7164 19C85.1164 9.8 96.8831 3.16667 101.716 1C71.7164 8.5 56.7164 16 50.2164 27C43.7164 38 41.2164 59 55.2164 75C69.2164 91 70.7164 91 87.7164 104C104.716 117 123.716 124 141.716 131.5C159.716 139 170.716 143.5 202.716 150C234.716 156.5 233.716 156.5 275.716 158Z" fill="#2196F3" stroke="#2E4E78"/>
<path d="M126.716 170.5L96.2164 223H342.216L326.716 180C341.516 176.8 360.55 170 368.216 167C383.416 161 396.55 150.167 401.216 145.5C410.816 135.5 411.883 121 411.216 115C410.816 105.4 402.716 94.6667 398.716 90.5C385.116 78.1 371.716 71 366.716 69C381.516 79.8 387.883 91.5 389.216 96C393.616 110.4 389.716 121.333 387.216 125C377.616 140.2 361.216 149.333 354.216 152C338.216 162 300.55 169.833 283.716 172.5C254.216 175 232.716 174 219.716 173.5C206.716 173 181.216 170.5 151.716 164.5C128.116 159.7 102.55 150.5 92.7164 146.5C115.216 159 111.716 156 134.216 166C152.216 174 181.383 179 193.716 180.5L190.216 190.5H179.216L181.216 180.5L175.716 190.5H162.716L165.216 180.5L160.216 190.5H147.716L149.216 180.5L143.216 190.5H124.716L126.716 170.5Z" fill="#2E4E78" stroke="#2E4E78"/>
<path d="M242.216 191.5L243.216 186.5H235.216L233.716 191.5H242.216Z" fill="#E5E5E5" stroke="#2E4E78"/>
<path d="M226.716 184.5H218.216L216.216 191H224.716L226.716 184.5Z" fill="#E5E5E5" stroke="#2E4E78"/>
<path d="M210.216 183.5L202.216 182L199.216 191H207.716L210.216 183.5Z" fill="#E5E5E5" stroke="#2E4E78"/>
<path d="M300.216 191L297.716 184.5L307.716 183L310.216 191H300.216Z" fill="#E5E5E5" stroke="#2E4E78"/>
<path d="M304.216 204.5L303.216 199.5H313.216L315.216 204.5H304.216Z" fill="#E5E5E5" stroke="#2E4E78"/>
<path d="M284.216 191L282.216 185.5H289.216L290.716 191H284.216Z" fill="#E5E5E5" stroke="#2E4E78"/>
<path d="M288.716 204.5L286.716 200H293.716L295.716 204.5H288.716Z" fill="#E5E5E5" stroke="#2E4E78"/>
<path d="M279.716 204L277.716 199H270.216L272.716 204H279.716Z" fill="#E5E5E5" stroke="#2E4E78"/>
<path d="M274.716 191L273.716 186H269.716L267.716 191H274.716Z" fill="#E5E5E5" stroke="#2E4E78"/>
<path d="M259.216 191L257.716 186.5H252.716L250.216 191H259.216Z" fill="#E5E5E5" stroke="#2E4E78"/>
<path d="M245.716 203.5L247.716 199H256.716L254.216 203.5H245.716Z" fill="#E5E5E5" stroke="#2E4E78"/>
<path d="M228.716 203.5L230.716 199H239.716L237.216 203.5H228.716Z" fill="#E5E5E5" stroke="#2E4E78"/>
<path d="M210.716 203.5L212.716 199H221.716L219.216 203.5H210.716Z" fill="#E5E5E5" stroke="#2E4E78"/>
<path d="M193.716 203.5L195.716 199H204.716L202.216 203.5H193.716Z" fill="#E5E5E5" stroke="#2E4E78"/>
<path d="M160.716 203.5L162.716 199H171.716L169.216 203.5H160.716Z" fill="#E5E5E5" stroke="#2E4E78"/>
<path d="M144.716 203.5L146.716 199H155.716L153.216 203.5H144.716Z" fill="#E5E5E5" stroke="#2E4E78"/>
<path d="M175.716 203.5L177.716 199H186.716L184.216 203.5H175.716Z" fill="#E5E5E5" stroke="#2E4E78"/>
<path d="M122.716 203.5V199H138.716L137.216 203.5H122.716Z" fill="#E5E5E5" stroke="#2E4E78"/>
<path d="M31.5003 278H23.4163L14.6273 263.853L11.6193 266.015V278H4.52227V244.442H11.6193V259.811C12.0893 259.153 12.5593 258.495 13.0293 257.837C13.4993 257.179 13.9693 256.521 14.4393 255.863L23.5103 244.442H31.4063L19.7033 259.294L31.5003 278ZM40.1042 242.28C41.1382 242.28 42.0312 242.531 42.7832 243.032C43.5352 243.502 43.9112 244.395 43.9112 245.711C43.9112 246.996 43.5352 247.889 42.7832 248.39C42.0312 248.891 41.1382 249.142 40.1042 249.142C39.0389 249.142 38.1302 248.891 37.3782 248.39C36.6575 247.889 36.2972 246.996 36.2972 245.711C36.2972 244.395 36.6575 243.502 37.3782 243.032C38.1302 242.531 39.0389 242.28 40.1042 242.28ZM43.5822 252.338V278H36.5792V252.338H43.5822ZM62.8845 251.868C66.4252 251.868 69.2295 252.886 71.2975 254.923C73.3655 256.928 74.3995 259.795 74.3995 263.524V266.908H57.8555C57.9182 268.882 58.4979 270.433 59.5945 271.561C60.7225 272.689 62.2735 273.253 64.2475 273.253C65.9082 273.253 67.4122 273.096 68.7595 272.783C70.1069 272.438 71.5012 271.921 72.9425 271.232V276.637C71.6892 277.264 70.3575 277.718 68.9475 278C67.5689 278.313 65.8925 278.47 63.9185 278.47C61.3492 278.47 59.0775 278 57.1035 277.06C55.1295 276.089 53.5785 274.632 52.4505 272.689C51.3225 270.746 50.7585 268.302 50.7585 265.357C50.7585 262.349 51.2599 259.858 52.2625 257.884C53.2965 255.879 54.7222 254.375 56.5395 253.372C58.3569 252.369 60.4719 251.868 62.8845 251.868ZM62.9315 256.85C61.5842 256.85 60.4562 257.289 59.5475 258.166C58.6702 259.043 58.1532 260.406 57.9965 262.255H67.8195C67.7882 260.688 67.3809 259.404 66.5975 258.401C65.8142 257.367 64.5922 256.85 62.9315 256.85ZM96.0581 251.868C98.8154 251.868 101.024 252.62 102.685 254.124C104.346 255.597 105.176 257.978 105.176 261.268V278H98.1731V263.007C98.1731 261.158 97.8441 259.78 97.1861 258.871C96.5281 257.931 95.4784 257.461 94.0371 257.461C91.9064 257.461 90.4494 258.197 89.6661 259.67C88.8827 261.111 88.4911 263.195 88.4911 265.921V278H81.4881V252.338H86.8461L87.7861 255.628H88.1621C88.9767 254.312 90.0891 253.356 91.4991 252.761C92.9404 252.166 94.4601 251.868 96.0581 251.868ZM124.598 272.877C125.381 272.877 126.133 272.799 126.854 272.642C127.574 272.485 128.295 272.297 129.016 272.078V277.295C128.264 277.608 127.324 277.875 126.196 278.094C125.099 278.345 123.893 278.47 122.577 278.47C121.041 278.47 119.663 278.219 118.441 277.718C117.25 277.217 116.294 276.355 115.574 275.133C114.884 273.88 114.54 272.156 114.54 269.963V257.602H111.203V254.641L115.057 252.291L117.078 246.886H121.543V252.338H128.734V257.602H121.543V269.963C121.543 270.934 121.825 271.671 122.389 272.172C122.953 272.642 123.689 272.877 124.598 272.877ZM142.58 249.565C142.58 250.818 142.533 252.025 142.439 253.184C142.376 254.343 142.313 255.158 142.251 255.628H142.627C143.441 254.312 144.491 253.356 145.776 252.761C147.06 252.166 148.486 251.868 150.053 251.868C152.841 251.868 155.066 252.62 156.727 254.124C158.419 255.597 159.265 257.978 159.265 261.268V278H152.262V263.007C152.262 259.31 150.883 257.461 148.126 257.461C146.026 257.461 144.569 258.197 143.755 259.67C142.971 261.111 142.58 263.195 142.58 265.921V278H135.577V242.28H142.58V249.565ZM191.423 252.338V278H186.065L185.125 274.71H184.749C183.935 276.026 182.807 276.982 181.365 277.577C179.955 278.172 178.451 278.47 176.853 278.47C174.096 278.47 171.887 277.734 170.226 276.261C168.566 274.757 167.735 272.36 167.735 269.07V252.338H174.738V267.331C174.738 269.148 175.067 270.527 175.725 271.467C176.383 272.407 177.433 272.877 178.874 272.877C181.005 272.877 182.462 272.156 183.245 270.715C184.029 269.242 184.42 267.143 184.42 264.417V252.338H191.423ZM210.61 278.47C206.787 278.47 203.826 277.42 201.727 275.321C199.659 273.19 198.625 269.853 198.625 265.31C198.625 262.177 199.158 259.623 200.223 257.649C201.288 255.675 202.761 254.218 204.641 253.278C206.552 252.338 208.746 251.868 211.221 251.868C212.976 251.868 214.495 252.04 215.78 252.385C217.096 252.73 218.24 253.137 219.211 253.607L217.143 259.012C216.046 258.573 215.012 258.213 214.041 257.931C213.101 257.649 212.161 257.508 211.221 257.508C207.586 257.508 205.769 260.093 205.769 265.263C205.769 267.832 206.239 269.728 207.179 270.95C208.15 272.172 209.498 272.783 211.221 272.783C212.694 272.783 213.994 272.595 215.122 272.219C216.25 271.812 217.347 271.263 218.412 270.574V276.543C217.347 277.232 216.219 277.718 215.028 278C213.869 278.313 212.396 278.47 210.61 278.47ZM236.539 272.877C237.322 272.877 238.074 272.799 238.795 272.642C239.515 272.485 240.236 272.297 240.957 272.078V277.295C240.205 277.608 239.265 277.875 238.137 278.094C237.04 278.345 235.834 278.47 234.518 278.47C232.982 278.47 231.604 278.219 230.382 277.718C229.191 277.217 228.235 276.355 227.515 275.133C226.825 273.88 226.481 272.156 226.481 269.963V257.602H223.144V254.641L226.998 252.291L229.019 246.886H233.484V252.338H240.675V257.602H233.484V269.963C233.484 270.934 233.766 271.671 234.33 272.172C234.894 272.642 235.63 272.877 236.539 272.877ZM254.52 249.565C254.52 250.818 254.473 252.025 254.379 253.184C254.317 254.343 254.254 255.158 254.191 255.628H254.567C255.382 254.312 256.432 253.356 257.716 252.761C259.001 252.166 260.427 251.868 261.993 251.868C264.782 251.868 267.007 252.62 268.667 254.124C270.359 255.597 271.205 257.978 271.205 261.268V278H264.202V263.007C264.202 259.31 262.824 257.461 260.066 257.461C257.967 257.461 256.51 258.197 255.695 259.67C254.912 261.111 254.52 263.195 254.52 265.921V278H247.517V242.28H254.52V249.565ZM303.364 252.338V278H298.006L297.066 274.71H296.69C295.875 276.026 294.747 276.982 293.306 277.577C291.896 278.172 290.392 278.47 288.794 278.47C286.037 278.47 283.828 277.734 282.167 276.261C280.506 274.757 279.676 272.36 279.676 269.07V252.338H286.679V267.331C286.679 269.148 287.008 270.527 287.666 271.467C288.324 272.407 289.374 272.877 290.815 272.877C292.946 272.877 294.403 272.156 295.186 270.715C295.969 269.242 296.361 267.143 296.361 264.417V252.338H303.364ZM318.227 278L308.451 252.338H315.783L320.718 266.955C321 267.832 321.219 268.741 321.376 269.681C321.564 270.621 321.673 271.467 321.705 272.219H321.893C321.987 270.527 322.331 268.772 322.927 266.955L327.862 252.338H335.194L325.418 278H318.227ZM343.811 242.28C344.845 242.28 345.738 242.531 346.49 243.032C347.242 243.502 347.618 244.395 347.618 245.711C347.618 246.996 347.242 247.889 346.49 248.39C345.738 248.891 344.845 249.142 343.811 249.142C342.745 249.142 341.837 248.891 341.085 248.39C340.364 247.889 340.004 246.996 340.004 245.711C340.004 244.395 340.364 243.502 341.085 243.032C341.837 242.531 342.745 242.28 343.811 242.28ZM347.289 252.338V278H340.286V252.338H347.289ZM355.029 274.71C355.029 273.269 355.42 272.266 356.204 271.702C356.987 271.107 357.943 270.809 359.071 270.809C360.167 270.809 361.107 271.107 361.891 271.702C362.674 272.266 363.066 273.269 363.066 274.71C363.066 276.089 362.674 277.091 361.891 277.718C361.107 278.313 360.167 278.611 359.071 278.611C357.943 278.611 356.987 278.313 356.204 277.718C355.42 277.091 355.029 276.089 355.029 274.71ZM394.14 265.122C394.14 269.383 393.012 272.673 390.756 274.992C388.531 277.311 385.492 278.47 381.638 278.47C379.257 278.47 377.126 277.953 375.246 276.919C373.397 275.885 371.94 274.381 370.875 272.407C369.81 270.402 369.277 267.973 369.277 265.122C369.277 260.861 370.389 257.586 372.614 255.299C374.839 253.012 377.894 251.868 381.779 251.868C384.192 251.868 386.322 252.385 388.171 253.419C390.02 254.453 391.477 255.957 392.542 257.931C393.607 259.874 394.14 262.271 394.14 265.122ZM376.421 265.122C376.421 267.66 376.828 269.587 377.643 270.903C378.489 272.188 379.852 272.83 381.732 272.83C383.581 272.83 384.912 272.188 385.727 270.903C386.573 269.587 386.996 267.66 386.996 265.122C386.996 262.584 386.573 260.688 385.727 259.435C384.912 258.15 383.565 257.508 381.685 257.508C379.836 257.508 378.489 258.15 377.643 259.435C376.828 260.688 376.421 262.584 376.421 265.122ZM415.673 251.868C416.017 251.868 416.425 251.884 416.895 251.915C417.365 251.946 417.741 251.993 418.023 252.056L417.506 258.636C417.286 258.573 416.957 258.526 416.519 258.495C416.111 258.432 415.751 258.401 415.438 258.401C414.247 258.401 413.103 258.62 412.007 259.059C410.91 259.466 410.017 260.14 409.328 261.08C408.67 262.02 408.341 263.305 408.341 264.934V278H401.338V252.338H406.649L407.683 256.662H408.012C408.764 255.346 409.798 254.218 411.114 253.278C412.43 252.338 413.949 251.868 415.673 251.868ZM431.951 251.868C435.115 251.868 437.591 253.121 439.377 255.628H439.565L440.129 252.338H446.051V278.047C446.051 281.713 444.97 284.502 442.808 286.413C440.646 288.324 437.45 289.28 433.22 289.28C431.402 289.28 429.71 289.17 428.144 288.951C426.608 288.732 425.104 288.34 423.632 287.776V282.183C426.796 283.499 430.133 284.157 433.643 284.157C437.246 284.157 439.048 282.214 439.048 278.329V277.812C439.048 277.279 439.063 276.731 439.095 276.167C439.157 275.603 439.204 275.102 439.236 274.663H439.048C438.17 276.01 437.121 276.982 435.899 277.577C434.677 278.172 433.298 278.47 431.763 278.47C428.723 278.47 426.342 277.311 424.619 274.992C422.927 272.642 422.081 269.383 422.081 265.216C422.081 261.017 422.958 257.743 424.713 255.393C426.467 253.043 428.88 251.868 431.951 251.868ZM434.16 257.555C430.87 257.555 429.225 260.14 429.225 265.31C429.225 270.417 430.901 272.971 434.254 272.971C436.04 272.971 437.356 272.47 438.202 271.467C439.079 270.433 439.518 268.647 439.518 266.109V265.263C439.518 262.506 439.095 260.532 438.249 259.341C437.403 258.15 436.04 257.555 434.16 257.555Z" fill="#2E4E78"/>
<path d="M31.5003 278V279H33.3132L32.3461 277.467L31.5003 278ZM23.4163 278L22.5668 278.528L22.8603 279H23.4163V278ZM14.6273 263.853L15.4767 263.325L14.9122 262.417L14.0436 263.041L14.6273 263.853ZM11.6193 266.015L11.0356 265.203L10.6193 265.502V266.015H11.6193ZM11.6193 278V279H12.6193V278H11.6193ZM4.52227 278H3.52227V279H4.52227V278ZM4.52227 244.442V243.442H3.52227V244.442H4.52227ZM11.6193 244.442H12.6193V243.442H11.6193V244.442ZM11.6193 259.811H10.6193V262.931L12.433 260.392L11.6193 259.811ZM13.0293 257.837L13.843 258.418L13.843 258.418L13.0293 257.837ZM14.4393 255.863L13.6562 255.241L13.6404 255.261L13.6255 255.282L14.4393 255.863ZM23.5103 244.442V243.442H23.0275L22.7272 243.82L23.5103 244.442ZM31.4063 244.442L32.1917 245.061L33.4674 243.442H31.4063V244.442ZM19.7033 259.294L18.9178 258.675L18.4806 259.23L18.8574 259.827L19.7033 259.294ZM31.5003 277H23.4163V279H31.5003V277ZM24.2657 277.472L15.4767 263.325L13.7778 264.381L22.5668 278.528L24.2657 277.472ZM14.0436 263.041L11.0356 265.203L12.2029 266.827L15.2109 264.665L14.0436 263.041ZM10.6193 266.015V278H12.6193V266.015H10.6193ZM11.6193 277H4.52227V279H11.6193V277ZM5.52227 278V244.442H3.52227V278H5.52227ZM4.52227 245.442H11.6193V243.442H4.52227V245.442ZM10.6193 244.442V259.811H12.6193V244.442H10.6193ZM12.433 260.392C12.903 259.734 13.373 259.076 13.843 258.418L12.2155 257.256C11.7455 257.914 11.2755 258.572 10.8055 259.23L12.433 260.392ZM13.843 258.418C14.313 257.76 14.783 257.102 15.253 256.444L13.6255 255.282C13.1555 255.94 12.6855 256.598 12.2155 257.256L13.843 258.418ZM15.2223 256.485L24.2933 245.064L22.7272 243.82L13.6562 255.241L15.2223 256.485ZM23.5103 245.442H31.4063V243.442H23.5103V245.442ZM30.6208 243.823L18.9178 258.675L20.4887 259.913L32.1917 245.061L30.6208 243.823ZM18.8574 259.827L30.6544 278.533L32.3461 277.467L20.5491 258.761L18.8574 259.827ZM42.7832 243.032L42.2285 243.864L42.2407 243.872L42.2532 243.88L42.7832 243.032ZM42.7832 248.39L42.2285 247.558L42.2285 247.558L42.7832 248.39ZM37.3782 248.39L36.8071 249.211L36.8153 249.217L36.8235 249.222L37.3782 248.39ZM37.3782 243.032L37.9245 243.87L37.9329 243.864L37.3782 243.032ZM43.5822 252.338H44.5822V251.338H43.5822V252.338ZM43.5822 278V279H44.5822V278H43.5822ZM36.5792 278H35.5792V279H36.5792V278ZM36.5792 252.338V251.338H35.5792V252.338H36.5792ZM40.1042 243.28C40.9701 243.28 41.6636 243.487 42.2285 243.864L43.3379 242.2C42.3989 241.574 41.3063 241.28 40.1042 241.28V243.28ZM42.2532 243.88C42.5875 244.089 42.9112 244.56 42.9112 245.711H44.9112C44.9112 244.23 44.4829 242.915 43.3132 242.184L42.2532 243.88ZM42.9112 245.711C42.9112 246.814 42.5957 247.313 42.2285 247.558L43.3379 249.222C44.4747 248.464 44.9112 247.178 44.9112 245.711H42.9112ZM42.2285 247.558C41.6636 247.935 40.9701 248.142 40.1042 248.142V250.142C41.3063 250.142 42.3989 249.848 43.3379 249.222L42.2285 247.558ZM40.1042 248.142C39.2003 248.142 38.493 247.931 37.9329 247.558L36.8235 249.222C37.7674 249.851 38.8775 250.142 40.1042 250.142V248.142ZM37.9493 247.569C37.6068 247.331 37.2972 246.829 37.2972 245.711H35.2972C35.2972 247.162 35.7083 248.446 36.8071 249.211L37.9493 247.569ZM37.2972 245.711C37.2972 244.544 37.615 244.071 37.9245 243.87L36.8319 242.194C35.7 242.933 35.2972 244.246 35.2972 245.711H37.2972ZM37.9329 243.864C38.493 243.491 39.2003 243.28 40.1042 243.28V241.28C38.8775 241.28 37.7674 241.571 36.8235 242.2L37.9329 243.864ZM42.5822 252.338V278H44.5822V252.338H42.5822ZM43.5822 277H36.5792V279H43.5822V277ZM37.5792 278V252.338H35.5792V278H37.5792ZM36.5792 253.338H43.5822V251.338H36.5792V253.338ZM71.2975 254.923L70.5958 255.636L70.6014 255.641L71.2975 254.923ZM74.3995 266.908V267.908H75.3995V266.908H74.3995ZM57.8555 266.908V265.908H56.8233L56.856 266.94L57.8555 266.908ZM59.5945 271.561L58.8775 272.258L58.8874 272.268L59.5945 271.561ZM68.7595 272.783L68.986 273.757L68.9967 273.755L69.0074 273.752L68.7595 272.783ZM72.9425 271.232H73.9425V269.645L72.5111 270.33L72.9425 271.232ZM72.9425 276.637L73.3897 277.531L73.9425 277.255V276.637H72.9425ZM68.9475 278L68.7514 277.019L68.7386 277.022L68.7259 277.025L68.9475 278ZM57.1035 277.06L56.662 277.957L56.6736 277.963L57.1035 277.06ZM52.4505 272.689L51.5857 273.191L51.5857 273.191L52.4505 272.689ZM52.2625 257.884L51.3737 257.426L51.3709 257.431L52.2625 257.884ZM56.5395 253.372L56.0564 252.496L56.0564 252.496L56.5395 253.372ZM59.5475 258.166L58.8529 257.447L58.8466 257.453L58.8404 257.459L59.5475 258.166ZM57.9965 262.255L57.0001 262.171L56.9082 263.255H57.9965V262.255ZM67.8195 262.255V263.255H68.8397L68.8193 262.235L67.8195 262.255ZM66.5975 258.401L65.8004 259.005L65.8049 259.011L65.8095 259.017L66.5975 258.401ZM62.8845 252.868C66.2239 252.868 68.7545 253.822 70.5958 255.635L71.9992 254.211C69.7046 251.951 66.6264 250.868 62.8845 250.868V252.868ZM70.6014 255.641C72.4224 257.407 73.3995 259.982 73.3995 263.524H75.3995C75.3995 259.608 74.3086 256.45 71.9937 254.205L70.6014 255.641ZM73.3995 263.524V266.908H75.3995V263.524H73.3995ZM74.3995 265.908H57.8555V267.908H74.3995V265.908ZM56.856 266.94C56.9245 269.097 57.5658 270.909 58.8775 272.258L60.3115 270.864C59.4299 269.957 58.9119 268.667 58.855 266.876L56.856 266.94ZM58.8874 272.268C60.2454 273.626 62.075 274.253 64.2475 274.253V272.253C62.472 272.253 61.1997 271.752 60.3016 270.854L58.8874 272.268ZM64.2475 274.253C65.9698 274.253 67.5514 274.091 68.986 273.757L68.533 271.809C67.273 272.102 65.8466 272.253 64.2475 272.253V274.253ZM69.0074 273.752C70.4264 273.389 71.8823 272.848 73.374 272.134L72.5111 270.33C71.1201 270.995 69.7873 271.488 68.5117 271.814L69.0074 273.752ZM71.9425 271.232V276.637H73.9425V271.232H71.9425ZM72.4953 275.743C71.3235 276.328 70.0765 276.754 68.7514 277.019L69.1436 278.981C70.6385 278.682 72.0548 278.199 73.3897 277.531L72.4953 275.743ZM68.7259 277.025C67.4422 277.317 65.8449 277.47 63.9185 277.47V279.47C65.9401 279.47 67.6955 279.31 69.1691 278.975L68.7259 277.025ZM63.9185 277.47C61.4721 277.47 59.3516 277.023 57.5335 276.157L56.6736 277.963C58.8034 278.977 61.2263 279.47 63.9185 279.47V277.47ZM57.545 276.163C55.7519 275.28 54.3465 273.963 53.3153 272.187L51.5857 273.191C52.8105 275.301 54.5071 276.897 56.662 277.957L57.545 276.163ZM53.3153 272.187C52.2993 270.437 51.7585 268.179 51.7585 265.357H49.7585C49.7585 268.425 50.3457 271.056 51.5857 273.191L53.3153 272.187ZM51.7585 265.357C51.7585 262.453 52.2436 260.129 53.1541 258.337L51.3709 257.431C50.2761 259.587 49.7585 262.245 49.7585 265.357H51.7585ZM53.1513 258.342C54.1027 256.497 55.394 255.146 57.0226 254.248L56.0564 252.496C54.0503 253.603 52.4903 255.26 51.3737 257.426L53.1513 258.342ZM57.0226 254.248C58.6696 253.339 60.6132 252.868 62.8845 252.868V250.868C60.3305 250.868 58.0441 251.4 56.0564 252.496L57.0226 254.248ZM62.9315 255.85C61.3441 255.85 59.9613 256.376 58.8529 257.447L60.2421 258.885C60.9511 258.201 61.8243 257.85 62.9315 257.85V255.85ZM58.8404 257.459C57.7307 258.569 57.1672 260.199 57.0001 262.171L58.9929 262.339C59.1392 260.613 59.6096 259.518 60.2546 258.873L58.8404 257.459ZM57.9965 263.255H67.8195V261.255H57.9965V263.255ZM68.8193 262.235C68.7847 260.503 68.3304 258.995 67.3855 257.785L65.8095 259.017C66.4313 259.813 66.7917 260.873 66.8197 262.275L68.8193 262.235ZM67.3946 257.797C66.3708 256.446 64.8089 255.85 62.9315 255.85V257.85C64.3755 257.85 65.2576 258.288 65.8004 259.005L67.3946 257.797ZM102.685 254.124L102.014 254.865L102.022 254.872L102.685 254.124ZM105.176 278V279H106.176V278H105.176ZM98.1731 278H97.1731V279H98.1731V278ZM97.1861 258.871L96.3668 259.444L96.3714 259.451L96.3761 259.458L97.1861 258.871ZM89.6661 259.67L90.5447 260.148L90.5489 260.14L89.6661 259.67ZM88.4911 278V279H89.4911V278H88.4911ZM81.4881 278H80.4881V279H81.4881V278ZM81.4881 252.338V251.338H80.4881V252.338H81.4881ZM86.8461 252.338L87.8076 252.063L87.6004 251.338H86.8461V252.338ZM87.7861 255.628L86.8246 255.903L87.0318 256.628H87.7861V255.628ZM88.1621 255.628V256.628H88.7191L89.0123 256.154L88.1621 255.628ZM91.4991 252.761L91.1173 251.837L91.1101 251.84L91.4991 252.761ZM96.0581 252.868C98.6272 252.868 100.577 253.564 102.014 254.865L103.356 253.383C101.472 251.676 99.0037 250.868 96.0581 250.868V252.868ZM102.022 254.872C103.382 256.079 104.176 258.124 104.176 261.268H106.176C106.176 257.832 105.309 255.115 103.349 253.376L102.022 254.872ZM104.176 261.268V278H106.176V261.268H104.176ZM105.176 277H98.1731V279H105.176V277ZM99.1731 278V263.007H97.1731V278H99.1731ZM99.1731 263.007C99.1731 261.072 98.8346 259.443 97.996 258.284L96.3761 259.458C96.8536 260.117 97.1731 261.245 97.1731 263.007H99.1731ZM98.0053 258.298C97.1122 257.022 95.711 256.461 94.0371 256.461V258.461C95.2458 258.461 95.944 258.84 96.3668 259.444L98.0053 258.298ZM94.0371 256.461C91.6571 256.461 89.7902 257.307 88.7832 259.2L90.5489 260.14C91.1086 259.087 92.1557 258.461 94.0371 258.461V256.461ZM88.7875 259.192C87.8882 260.847 87.4911 263.126 87.4911 265.921H89.4911C89.4911 263.264 89.8773 261.376 90.5447 260.148L88.7875 259.192ZM87.4911 265.921V278H89.4911V265.921H87.4911ZM88.4911 277H81.4881V279H88.4911V277ZM82.4881 278V252.338H80.4881V278H82.4881ZM81.4881 253.338H86.8461V251.338H81.4881V253.338ZM85.8846 252.613L86.8246 255.903L88.7476 255.353L87.8076 252.063L85.8846 252.613ZM87.7861 256.628H88.1621V254.628H87.7861V256.628ZM89.0123 256.154C89.7192 255.012 90.6713 254.196 91.888 253.682L91.1101 251.84C89.5068 252.517 88.2343 253.612 87.3118 255.102L89.0123 256.154ZM91.8808 253.685C93.1981 253.141 94.5877 252.868 96.0581 252.868V250.868C94.3324 250.868 92.6827 251.19 91.1173 251.837L91.8808 253.685ZM126.854 272.642L126.641 271.665L126.641 271.665L126.854 272.642ZM129.016 272.078H130.016V270.728L128.725 271.121L129.016 272.078ZM129.016 277.295L129.4 278.218L130.016 277.962V277.295H129.016ZM126.196 278.094L126.005 277.112L125.989 277.116L125.973 277.119L126.196 278.094ZM118.441 277.718L118.053 278.64L118.061 278.643L118.441 277.718ZM115.574 275.133L114.698 275.615L114.705 275.628L114.712 275.641L115.574 275.133ZM114.54 257.602H115.54V256.602H114.54V257.602ZM111.203 257.602H110.203V258.602H111.203V257.602ZM111.203 254.641L110.682 253.787L110.203 254.08V254.641H111.203ZM115.057 252.291L115.577 253.145L115.872 252.965L115.993 252.641L115.057 252.291ZM117.078 246.886V245.886H116.384L116.141 246.536L117.078 246.886ZM121.543 246.886H122.543V245.886H121.543V246.886ZM121.543 252.338H120.543V253.338H121.543V252.338ZM128.734 252.338H129.734V251.338H128.734V252.338ZM128.734 257.602V258.602H129.734V257.602H128.734ZM121.543 257.602V256.602H120.543V257.602H121.543ZM122.389 272.172L121.724 272.919L121.736 272.93L121.749 272.94L122.389 272.172ZM124.598 273.877C125.448 273.877 126.272 273.792 127.066 273.619L126.641 271.665C125.995 271.805 125.314 271.877 124.598 271.877V273.877ZM127.066 273.619C127.814 273.457 128.561 273.262 129.307 273.035L128.725 271.121C128.029 271.333 127.335 271.514 126.641 271.665L127.066 273.619ZM128.016 272.078V277.295H130.016V272.078H128.016ZM128.631 276.372C127.961 276.651 127.091 276.901 126.005 277.112L126.387 279.076C127.556 278.848 128.566 278.566 129.4 278.218L128.631 276.372ZM125.973 277.119C124.96 277.351 123.83 277.47 122.577 277.47V279.47C123.955 279.47 125.238 279.339 126.419 279.069L125.973 277.119ZM122.577 277.47C121.151 277.47 119.904 277.237 118.82 276.793L118.061 278.643C119.422 279.201 120.932 279.47 122.577 279.47V277.47ZM118.829 276.796C117.856 276.387 117.058 275.681 116.435 274.625L114.712 275.641C115.531 277.029 116.644 278.047 118.053 278.64L118.829 276.796ZM116.45 274.651C115.874 273.604 115.54 272.07 115.54 269.963H113.54C113.54 272.243 113.895 274.156 114.698 275.615L116.45 274.651ZM115.54 269.963V257.602H113.54V269.963H115.54ZM114.54 256.602H111.203V258.602H114.54V256.602ZM112.203 257.602V254.641H110.203V257.602H112.203ZM111.723 255.495L115.577 253.145L114.536 251.437L110.682 253.787L111.723 255.495ZM115.993 252.641L118.014 247.236L116.141 246.536L114.12 251.941L115.993 252.641ZM117.078 247.886H121.543V245.886H117.078V247.886ZM120.543 246.886V252.338H122.543V246.886H120.543ZM121.543 253.338H128.734V251.338H121.543V253.338ZM127.734 252.338V257.602H129.734V252.338H127.734ZM128.734 256.602H121.543V258.602H128.734V256.602ZM120.543 257.602V269.963H122.543V257.602H120.543ZM120.543 269.963C120.543 271.133 120.889 272.177 121.724 272.919L123.053 271.425C122.76 271.164 122.543 270.736 122.543 269.963H120.543ZM121.749 272.94C122.532 273.593 123.513 273.877 124.598 273.877V271.877C123.866 271.877 123.374 271.691 123.029 271.404L121.749 272.94ZM142.439 253.184L141.442 253.103L141.441 253.117L141.44 253.13L142.439 253.184ZM142.251 255.628L141.259 255.496L141.108 256.628H142.251V255.628ZM142.627 255.628V256.628H143.184L143.477 256.154L142.627 255.628ZM145.776 252.761L146.196 253.668L146.196 253.668L145.776 252.761ZM156.727 254.124L156.055 254.865L156.063 254.872L156.07 254.878L156.727 254.124ZM159.265 278V279H160.265V278H159.265ZM152.262 278H151.262V279H152.262V278ZM143.755 259.67L142.88 259.186L142.876 259.192L143.755 259.67ZM142.58 278V279H143.58V278H142.58ZM135.577 278H134.577V279H135.577V278ZM135.577 242.28V241.28H134.577V242.28H135.577ZM142.58 242.28H143.58V241.28H142.58V242.28ZM141.58 249.565C141.58 250.793 141.534 251.973 141.442 253.103L143.435 253.265C143.532 252.077 143.58 250.843 143.58 249.565H141.58ZM141.44 253.13C141.377 254.29 141.316 255.069 141.259 255.496L143.242 255.76C143.31 255.247 143.375 254.397 143.437 253.238L141.44 253.13ZM142.251 256.628H142.627V254.628H142.251V256.628ZM143.477 256.154C144.199 254.989 145.105 254.174 146.196 253.668L145.355 251.854C143.877 252.539 142.684 253.635 141.776 255.102L143.477 256.154ZM146.196 253.668C147.336 253.14 148.616 252.868 150.053 252.868V250.868C148.356 250.868 146.785 251.191 145.355 251.854L146.196 253.668ZM150.053 252.868C152.656 252.868 154.621 253.566 156.055 254.865L157.398 253.383C155.511 251.674 153.026 250.868 150.053 250.868V252.868ZM156.07 254.878C157.458 256.086 158.265 258.13 158.265 261.268H160.265C160.265 257.826 159.379 255.107 157.383 253.37L156.07 254.878ZM158.265 261.268V278H160.265V261.268H158.265ZM159.265 277H152.262V279H159.265V277ZM153.262 278V263.007H151.262V278H153.262ZM153.262 263.007C153.262 261.063 152.904 259.423 152.029 258.25C151.113 257.021 149.75 256.461 148.126 256.461V258.461C149.258 258.461 149.963 258.825 150.426 259.445C150.93 260.121 151.262 261.254 151.262 263.007H153.262ZM148.126 256.461C145.768 256.461 143.916 257.312 142.88 259.186L144.63 260.154C145.222 259.083 146.284 258.461 148.126 258.461V256.461ZM142.876 259.192C141.977 260.847 141.58 263.126 141.58 265.921H143.58C143.58 263.264 143.966 261.376 144.633 260.148L142.876 259.192ZM141.58 265.921V278H143.58V265.921H141.58ZM142.58 277H135.577V279H142.58V277ZM136.577 278V242.28H134.577V278H136.577ZM135.577 243.28H142.58V241.28H135.577V243.28ZM141.58 242.28V249.565H143.58V242.28H141.58ZM191.423 252.338H192.423V251.338H191.423V252.338ZM191.423 278V279H192.423V278H191.423ZM186.065 278L185.104 278.275L185.311 279H186.065V278ZM185.125 274.71L186.087 274.435L185.88 273.71H185.125V274.71ZM184.749 274.71V273.71H184.192L183.899 274.184L184.749 274.71ZM181.365 277.577L180.984 276.653L180.976 276.656L181.365 277.577ZM170.226 276.261L169.555 277.002L169.563 277.009L170.226 276.261ZM167.735 252.338V251.338H166.735V252.338H167.735ZM174.738 252.338H175.738V251.338H174.738V252.338ZM175.725 271.467L176.545 270.894L176.545 270.894L175.725 271.467ZM183.245 270.715L184.124 271.193L184.128 271.185L183.245 270.715ZM184.42 252.338V251.338H183.42V252.338H184.42ZM190.423 252.338V278H192.423V252.338H190.423ZM191.423 277H186.065V279H191.423V277ZM187.027 277.725L186.087 274.435L184.164 274.985L185.104 278.275L187.027 277.725ZM185.125 273.71H184.749V275.71H185.125V273.71ZM183.899 274.184C183.196 275.32 182.232 276.137 180.984 276.653L181.747 278.501C183.381 277.826 184.673 276.732 185.6 275.236L183.899 274.184ZM180.976 276.656C179.695 277.197 178.324 277.47 176.853 277.47V279.47C178.579 279.47 180.216 279.148 181.754 278.498L180.976 276.656ZM176.853 277.47C174.279 277.47 172.326 276.787 170.89 275.513L169.563 277.009C171.448 278.681 173.913 279.47 176.853 279.47V277.47ZM170.898 275.52C169.528 274.28 168.735 272.212 168.735 269.07H166.735C166.735 272.508 167.603 275.234 169.555 277.002L170.898 275.52ZM168.735 269.07V252.338H166.735V269.07H168.735ZM167.735 253.338H174.738V251.338H167.735V253.338ZM173.738 252.338V267.331H175.738V252.338H173.738ZM173.738 267.331C173.738 269.243 174.08 270.86 174.906 272.04L176.545 270.894C176.055 270.194 175.738 269.054 175.738 267.331H173.738ZM174.906 272.04C175.799 273.316 177.2 273.877 178.874 273.877V271.877C177.666 271.877 176.967 271.498 176.545 270.894L174.906 272.04ZM178.874 273.877C181.244 273.877 183.112 273.054 184.124 271.193L182.367 270.237C181.812 271.259 180.766 271.877 178.874 271.877V273.877ZM184.128 271.185C185.022 269.503 185.42 267.214 185.42 264.417H183.42C183.42 267.072 183.035 268.981 182.362 270.245L184.128 271.185ZM185.42 264.417V252.338H183.42V264.417H185.42ZM184.42 253.338H191.423V251.338H184.42V253.338ZM201.727 275.321L201.009 276.017L201.015 276.023L201.02 276.028L201.727 275.321ZM200.223 257.649L199.343 257.174L199.343 257.174L200.223 257.649ZM204.641 253.278L204.2 252.381L204.194 252.384L204.641 253.278ZM215.78 252.385L215.521 253.351L215.527 253.352L215.78 252.385ZM219.211 253.607L220.145 253.964L220.473 253.107L219.646 252.707L219.211 253.607ZM217.143 259.012L216.772 259.94L217.714 260.318L218.077 259.369L217.143 259.012ZM214.041 257.931L213.754 258.889L213.762 258.891L214.041 257.931ZM207.179 270.95L206.386 271.56L206.391 271.566L206.396 271.572L207.179 270.95ZM215.122 272.219L215.438 273.168L215.45 273.164L215.462 273.16L215.122 272.219ZM218.412 270.574H219.412V268.736L217.869 269.734L218.412 270.574ZM218.412 276.543L218.955 277.383L219.412 277.087V276.543H218.412ZM215.028 278L214.797 277.027L214.782 277.031L214.767 277.035L215.028 278ZM210.61 277.47C206.973 277.47 204.296 276.476 202.434 274.614L201.02 276.028C203.356 278.365 206.602 279.47 210.61 279.47V277.47ZM202.444 274.625C200.634 272.759 199.625 269.728 199.625 265.31H197.625C197.625 269.979 198.684 273.622 201.009 276.017L202.444 274.625ZM199.625 265.31C199.625 262.28 200.141 259.906 201.103 258.124L199.343 257.174C198.174 259.34 197.625 262.073 197.625 265.31H199.625ZM201.103 258.124C202.078 256.318 203.405 255.014 205.088 254.172L204.194 252.384C202.117 253.422 200.499 255.032 199.343 257.174L201.103 258.124ZM205.082 254.175C206.836 253.313 208.874 252.868 211.221 252.868V250.868C208.617 250.868 206.269 251.363 204.2 252.381L205.082 254.175ZM211.221 252.868C212.914 252.868 214.343 253.035 215.521 253.351L216.039 251.419C214.648 251.046 213.037 250.868 211.221 250.868V252.868ZM215.527 253.352C216.795 253.685 217.875 254.072 218.775 254.507L219.646 252.707C218.604 252.202 217.397 251.775 216.033 251.418L215.527 253.352ZM218.277 253.25L216.209 258.655L218.077 259.369L220.145 253.964L218.277 253.25ZM217.514 258.084C216.392 257.635 215.327 257.263 214.32 256.971L213.762 258.891C214.697 259.163 215.7 259.512 216.772 259.94L217.514 258.084ZM214.328 256.973C213.299 256.664 212.262 256.508 211.221 256.508V258.508C212.059 258.508 212.903 258.634 213.754 258.889L214.328 256.973ZM211.221 256.508C209.134 256.508 207.44 257.27 206.314 258.872C205.233 260.409 204.769 262.591 204.769 265.263H206.769C206.769 262.765 207.214 261.069 207.95 260.022C208.641 259.039 209.673 258.508 211.221 258.508V256.508ZM204.769 265.263C204.769 267.919 205.248 270.08 206.386 271.56L207.972 270.34C207.23 269.376 206.769 267.746 206.769 265.263H204.769ZM206.396 271.572C207.579 273.06 209.229 273.783 211.221 273.783V271.783C209.766 271.783 208.722 271.284 207.962 270.328L206.396 271.572ZM211.221 273.783C212.776 273.783 214.187 273.585 215.438 273.168L214.806 271.27C213.801 271.605 212.611 271.783 211.221 271.783V273.783ZM215.462 273.16C216.665 272.725 217.83 272.142 218.955 271.414L217.869 269.734C216.863 270.385 215.835 270.898 214.782 271.278L215.462 273.16ZM217.412 270.574V276.543H219.412V270.574H217.412ZM217.869 275.703C216.896 276.333 215.873 276.772 214.797 277.027L215.258 278.973C216.564 278.664 217.798 278.132 218.955 277.383L217.869 275.703ZM214.767 277.035C213.723 277.317 212.346 277.47 210.61 277.47V279.47C212.446 279.47 214.014 279.31 215.289 278.965L214.767 277.035ZM238.795 272.642L238.582 271.665L238.582 271.665L238.795 272.642ZM240.957 272.078H241.957V270.728L240.665 271.121L240.957 272.078ZM240.957 277.295L241.341 278.218L241.957 277.962V277.295H240.957ZM238.137 278.094L237.946 277.112L237.93 277.116L237.914 277.119L238.137 278.094ZM230.382 277.718L229.993 278.64L230.002 278.643L230.382 277.718ZM227.515 275.133L226.638 275.615L226.646 275.628L226.653 275.641L227.515 275.133ZM226.481 257.602H227.481V256.602H226.481V257.602ZM223.144 257.602H222.144V258.602H223.144V257.602ZM223.144 254.641L222.623 253.787L222.144 254.08V254.641H223.144ZM226.998 252.291L227.518 253.145L227.813 252.965L227.934 252.641L226.998 252.291ZM229.019 246.886V245.886H228.325L228.082 246.536L229.019 246.886ZM233.484 246.886H234.484V245.886H233.484V246.886ZM233.484 252.338H232.484V253.338H233.484V252.338ZM240.675 252.338H241.675V251.338H240.675V252.338ZM240.675 257.602V258.602H241.675V257.602H240.675ZM233.484 257.602V256.602H232.484V257.602H233.484ZM234.33 272.172L233.665 272.919L233.677 272.93L233.689 272.94L234.33 272.172ZM236.539 273.877C237.389 273.877 238.212 273.792 239.007 273.619L238.582 271.665C237.935 271.805 237.255 271.877 236.539 271.877V273.877ZM239.007 273.619C239.755 273.457 240.502 273.262 241.248 273.035L240.665 271.121C239.97 271.333 239.276 271.514 238.582 271.665L239.007 273.619ZM239.957 272.078V277.295H241.957V272.078H239.957ZM240.572 276.372C239.902 276.651 239.032 276.901 237.946 277.112L238.327 279.076C239.497 278.848 240.507 278.566 241.341 278.218L240.572 276.372ZM237.914 277.119C236.901 277.351 235.771 277.47 234.518 277.47V279.47C235.896 279.47 237.178 279.339 238.359 279.069L237.914 277.119ZM234.518 277.47C233.091 277.47 231.845 277.237 230.761 276.793L230.002 278.643C231.362 279.201 232.873 279.47 234.518 279.47V277.47ZM230.77 276.796C229.797 276.387 228.999 275.681 228.376 274.625L226.653 275.641C227.472 277.029 228.585 278.047 229.993 278.64L230.77 276.796ZM228.391 274.651C227.815 273.604 227.481 272.07 227.481 269.963H225.481C225.481 272.243 225.836 274.156 226.638 275.615L228.391 274.651ZM227.481 269.963V257.602H225.481V269.963H227.481ZM226.481 256.602H223.144V258.602H226.481V256.602ZM224.144 257.602V254.641H222.144V257.602H224.144ZM223.664 255.495L227.518 253.145L226.477 251.437L222.623 253.787L223.664 255.495ZM227.934 252.641L229.955 247.236L228.082 246.536L226.061 251.941L227.934 252.641ZM229.019 247.886H233.484V245.886H229.019V247.886ZM232.484 246.886V252.338H234.484V246.886H232.484ZM233.484 253.338H240.675V251.338H233.484V253.338ZM239.675 252.338V257.602H241.675V252.338H239.675ZM240.675 256.602H233.484V258.602H240.675V256.602ZM232.484 257.602V269.963H234.484V257.602H232.484ZM232.484 269.963C232.484 271.133 232.83 272.177 233.665 272.919L234.994 271.425C234.701 271.164 234.484 270.736 234.484 269.963H232.484ZM233.689 272.94C234.473 273.593 235.453 273.877 236.539 273.877V271.877C235.806 271.877 235.314 271.691 234.97 271.404L233.689 272.94ZM254.379 253.184L253.383 253.103L253.382 253.117L253.381 253.13L254.379 253.184ZM254.191 255.628L253.2 255.496L253.049 256.628H254.191V255.628ZM254.567 255.628V256.628H255.124L255.418 256.154L254.567 255.628ZM257.716 252.761L258.137 253.668L258.137 253.668L257.716 252.761ZM268.667 254.124L267.996 254.865L268.003 254.872L268.011 254.878L268.667 254.124ZM271.205 278V279H272.205V278H271.205ZM264.202 278H263.202V279H264.202V278ZM255.695 259.67L254.82 259.186L254.817 259.192L255.695 259.67ZM254.52 278V279H255.52V278H254.52ZM247.517 278H246.517V279H247.517V278ZM247.517 242.28V241.28H246.517V242.28H247.517ZM254.52 242.28H255.52V241.28H254.52V242.28ZM253.52 249.565C253.52 250.793 253.474 251.973 253.383 253.103L255.376 253.265C255.472 252.077 255.52 250.843 255.52 249.565H253.52ZM253.381 253.13C253.318 254.29 253.257 255.069 253.2 255.496L255.183 255.76C255.251 255.247 255.315 254.397 255.378 253.238L253.381 253.13ZM254.191 256.628H254.567V254.628H254.191V256.628ZM255.418 256.154C256.139 254.989 257.046 254.174 258.137 253.668L257.296 251.854C255.817 252.539 254.625 253.635 253.717 255.102L255.418 256.154ZM258.137 253.668C259.276 253.14 260.556 252.868 261.993 252.868V250.868C260.297 250.868 258.726 251.191 257.296 251.854L258.137 253.668ZM261.993 252.868C264.597 252.868 266.561 253.566 267.996 254.865L269.339 253.383C267.452 251.674 264.967 250.868 261.993 250.868V252.868ZM268.011 254.878C269.399 256.086 270.205 258.13 270.205 261.268H272.205C272.205 257.826 271.32 255.107 269.324 253.37L268.011 254.878ZM270.205 261.268V278H272.205V261.268H270.205ZM271.205 277H264.202V279H271.205V277ZM265.202 278V263.007H263.202V278H265.202ZM265.202 263.007C265.202 261.063 264.845 259.423 263.97 258.25C263.054 257.021 261.691 256.461 260.066 256.461V258.461C261.199 258.461 261.904 258.825 262.367 259.445C262.87 260.121 263.202 261.254 263.202 263.007H265.202ZM260.066 256.461C257.709 256.461 255.857 257.312 254.82 259.186L256.57 260.154C257.163 259.083 258.225 258.461 260.066 258.461V256.461ZM254.817 259.192C253.918 260.847 253.52 263.126 253.52 265.921H255.52C255.52 263.264 255.907 261.376 256.574 260.148L254.817 259.192ZM253.52 265.921V278H255.52V265.921H253.52ZM254.52 277H247.517V279H254.52V277ZM248.517 278V242.28H246.517V278H248.517ZM247.517 243.28H254.52V241.28H247.517V243.28ZM253.52 242.28V249.565H255.52V242.28H253.52ZM303.364 252.338H304.364V251.338H303.364V252.338ZM303.364 278V279H304.364V278H303.364ZM298.006 278L297.045 278.275L297.252 279H298.006V278ZM297.066 274.71L298.028 274.435L297.82 273.71H297.066V274.71ZM296.69 274.71V273.71H296.133L295.84 274.184L296.69 274.71ZM293.306 277.577L292.924 276.653L292.917 276.656L293.306 277.577ZM282.167 276.261L281.496 277.002L281.504 277.009L282.167 276.261ZM279.676 252.338V251.338H278.676V252.338H279.676ZM286.679 252.338H287.679V251.338H286.679V252.338ZM287.666 271.467L288.485 270.894L288.485 270.894L287.666 271.467ZM295.186 270.715L296.065 271.193L296.069 271.185L295.186 270.715ZM296.361 252.338V251.338H295.361V252.338H296.361ZM302.364 252.338V278H304.364V252.338H302.364ZM303.364 277H298.006V279H303.364V277ZM298.968 277.725L298.028 274.435L296.105 274.985L297.045 278.275L298.968 277.725ZM297.066 273.71H296.69V275.71H297.066V273.71ZM295.84 274.184C295.137 275.32 294.173 276.137 292.924 276.653L293.688 278.501C295.322 277.826 296.614 276.732 297.54 275.236L295.84 274.184ZM292.917 276.656C291.636 277.197 290.264 277.47 288.794 277.47V279.47C290.52 279.47 292.157 279.148 293.695 278.498L292.917 276.656ZM288.794 277.47C286.22 277.47 284.267 276.787 282.831 275.513L281.504 277.009C283.389 278.681 285.854 279.47 288.794 279.47V277.47ZM282.838 275.52C281.469 274.28 280.676 272.212 280.676 269.07H278.676C278.676 272.508 279.544 275.234 281.496 277.002L282.838 275.52ZM280.676 269.07V252.338H278.676V269.07H280.676ZM279.676 253.338H286.679V251.338H279.676V253.338ZM285.679 252.338V267.331H287.679V252.338H285.679ZM285.679 267.331C285.679 269.243 286.021 270.86 286.847 272.04L288.485 270.894C287.995 270.194 287.679 269.054 287.679 267.331H285.679ZM286.847 272.04C287.74 273.316 289.141 273.877 290.815 273.877V271.877C289.606 271.877 288.908 271.498 288.485 270.894L286.847 272.04ZM290.815 273.877C293.185 273.877 295.053 273.054 296.065 271.193L294.307 270.237C293.752 271.259 292.707 271.877 290.815 271.877V273.877ZM296.069 271.185C296.963 269.503 297.361 267.214 297.361 264.417H295.361C295.361 267.072 294.976 268.981 294.303 270.245L296.069 271.185ZM297.361 264.417V252.338H295.361V264.417H297.361ZM296.361 253.338H303.364V251.338H296.361V253.338ZM318.227 278L317.292 278.356L317.538 279H318.227V278ZM308.451 252.338V251.338H307L307.516 252.694L308.451 252.338ZM315.783 252.338L316.73 252.018L316.501 251.338H315.783V252.338ZM320.718 266.955L321.67 266.649L321.668 266.642L321.665 266.635L320.718 266.955ZM321.376 269.681L320.389 269.845L320.392 269.861L320.395 269.877L321.376 269.681ZM321.705 272.219L320.706 272.261L320.746 273.219H321.705V272.219ZM321.893 272.219V273.219H322.839L322.891 272.274L321.893 272.219ZM322.927 266.955L321.979 266.635L321.976 266.644L322.927 266.955ZM327.862 252.338V251.338H327.144L326.914 252.018L327.862 252.338ZM335.194 252.338L336.128 252.694L336.645 251.338H335.194V252.338ZM325.418 278V279H326.107L326.352 278.356L325.418 278ZM319.161 277.644L309.385 251.982L307.516 252.694L317.292 278.356L319.161 277.644ZM308.451 253.338H315.783V251.338H308.451V253.338ZM314.835 252.658L319.77 267.275L321.665 266.635L316.73 252.018L314.835 252.658ZM319.766 267.261C320.032 268.09 320.24 268.952 320.389 269.845L322.362 269.517C322.198 268.53 321.967 267.574 321.67 266.649L319.766 267.261ZM320.395 269.877C320.576 270.779 320.677 271.572 320.706 272.261L322.704 272.177C322.67 271.362 322.552 270.463 322.356 269.485L320.395 269.877ZM321.705 273.219H321.893V271.219H321.705V273.219ZM322.891 272.274C322.98 270.68 323.305 269.011 323.877 267.266L321.976 266.644C321.357 268.533 320.994 270.374 320.894 272.164L322.891 272.274ZM323.874 267.275L328.809 252.658L326.914 252.018L321.979 266.635L323.874 267.275ZM327.862 253.338H335.194V251.338H327.862V253.338ZM334.259 251.982L324.483 277.644L326.352 278.356L336.128 252.694L334.259 251.982ZM325.418 277H318.227V279H325.418V277ZM346.49 243.032L345.935 243.864L345.947 243.872L345.96 243.88L346.49 243.032ZM346.49 248.39L345.935 247.558L345.935 247.558L346.49 248.39ZM341.085 248.39L340.513 249.211L340.522 249.217L340.53 249.222L341.085 248.39ZM341.085 243.032L341.631 243.87L341.639 243.864L341.085 243.032ZM347.289 252.338H348.289V251.338H347.289V252.338ZM347.289 278V279H348.289V278H347.289ZM340.286 278H339.286V279H340.286V278ZM340.286 252.338V251.338H339.286V252.338H340.286ZM343.811 243.28C344.676 243.28 345.37 243.487 345.935 243.864L347.044 242.2C346.105 241.574 345.013 241.28 343.811 241.28V243.28ZM345.96 243.88C346.294 244.089 346.618 244.56 346.618 245.711H348.618C348.618 244.23 348.189 242.915 347.02 242.184L345.96 243.88ZM346.618 245.711C346.618 246.814 346.302 247.313 345.935 247.558L347.044 249.222C348.181 248.464 348.618 247.178 348.618 245.711H346.618ZM345.935 247.558C345.37 247.935 344.676 248.142 343.811 248.142V250.142C345.013 250.142 346.105 249.848 347.044 249.222L345.935 247.558ZM343.811 248.142C342.907 248.142 342.199 247.931 341.639 247.558L340.53 249.222C341.474 249.851 342.584 250.142 343.811 250.142V248.142ZM341.656 247.569C341.313 247.331 341.004 246.829 341.004 245.711H339.004C339.004 247.162 339.415 248.446 340.513 249.211L341.656 247.569ZM341.004 245.711C341.004 244.544 341.321 244.071 341.631 243.87L340.538 242.194C339.406 242.933 339.004 244.246 339.004 245.711H341.004ZM341.639 243.864C342.199 243.491 342.907 243.28 343.811 243.28V241.28C342.584 241.28 341.474 241.571 340.53 242.2L341.639 243.864ZM346.289 252.338V278H348.289V252.338H346.289ZM347.289 277H340.286V279H347.289V277ZM341.286 278V252.338H339.286V278H341.286ZM340.286 253.338H347.289V251.338H340.286V253.338ZM356.204 271.702L356.788 272.514L356.799 272.506L356.809 272.498L356.204 271.702ZM361.891 271.702L361.286 272.498L361.296 272.506L361.306 272.514L361.891 271.702ZM361.891 277.718L362.496 278.514L362.506 278.507L362.515 278.499L361.891 277.718ZM356.204 277.718L355.579 278.499L355.589 278.507L355.599 278.514L356.204 277.718ZM356.029 274.71C356.029 273.424 356.376 272.81 356.788 272.514L355.619 270.89C354.465 271.722 354.029 273.113 354.029 274.71H356.029ZM356.809 272.498C357.393 272.054 358.128 271.809 359.071 271.809V269.809C357.758 269.809 356.581 270.159 355.599 270.906L356.809 272.498ZM359.071 271.809C359.975 271.809 360.696 272.05 361.286 272.498L362.496 270.906C361.519 270.163 360.36 269.809 359.071 269.809V271.809ZM361.306 272.514C361.718 272.81 362.066 273.424 362.066 274.71H364.066C364.066 273.113 363.63 271.722 362.475 270.89L361.306 272.514ZM362.066 274.71C362.066 275.905 361.732 276.565 361.266 276.937L362.515 278.499C363.616 277.618 364.066 276.272 364.066 274.71H362.066ZM361.286 276.922C360.696 277.37 359.975 277.611 359.071 277.611V279.611C360.36 279.611 361.519 279.257 362.496 278.514L361.286 276.922ZM359.071 277.611C358.128 277.611 357.393 277.366 356.809 276.922L355.599 278.514C356.581 279.261 357.758 279.611 359.071 279.611V277.611ZM356.828 276.937C356.363 276.565 356.029 275.905 356.029 274.71H354.029C354.029 276.272 354.478 277.618 355.579 278.499L356.828 276.937ZM390.756 274.992L390.039 274.295L390.035 274.3L390.756 274.992ZM375.246 276.919L374.758 277.792L374.764 277.795L375.246 276.919ZM370.875 272.407L369.992 272.876L369.995 272.882L370.875 272.407ZM372.614 255.299L373.331 255.996L373.331 255.996L372.614 255.299ZM388.171 253.419L387.683 254.292L387.683 254.292L388.171 253.419ZM392.542 257.931L391.662 258.406L391.665 258.412L392.542 257.931ZM377.643 270.903L376.793 271.429L376.8 271.441L376.808 271.453L377.643 270.903ZM385.727 270.903L384.886 270.362L384.883 270.367L385.727 270.903ZM385.727 259.435L384.883 259.971L384.89 259.983L384.898 259.994L385.727 259.435ZM377.643 259.435L376.808 258.885L376.805 258.89L377.643 259.435ZM393.14 265.122C393.14 269.208 392.062 272.216 390.039 274.295L391.473 275.689C393.962 273.131 395.14 269.558 395.14 265.122H393.14ZM390.035 274.3C388.035 276.383 385.278 277.47 381.638 277.47V279.47C385.706 279.47 389.027 278.238 391.478 275.684L390.035 274.3ZM381.638 277.47C379.406 277.47 377.445 276.987 375.728 276.043L374.764 277.795C376.808 278.919 379.107 279.47 381.638 279.47V277.47ZM375.734 276.046C374.061 275.111 372.736 273.749 371.755 271.932L369.995 272.882C371.145 275.013 372.734 276.659 374.758 277.792L375.734 276.046ZM371.758 271.938C370.787 270.109 370.277 267.851 370.277 265.122H368.277C368.277 268.096 368.833 270.694 369.992 272.876L371.758 271.938ZM370.277 265.122C370.277 261.031 371.342 258.041 373.331 255.996L371.897 254.602C369.437 257.132 368.277 260.69 368.277 265.122H370.277ZM373.331 255.996C375.328 253.943 378.101 252.868 381.779 252.868V250.868C377.687 250.868 374.35 252.08 371.897 254.602L373.331 255.996ZM381.779 252.868C384.045 252.868 386.003 253.352 387.683 254.292L388.659 252.546C386.642 251.418 384.339 250.868 381.779 250.868V252.868ZM387.683 254.292C389.356 255.227 390.681 256.589 391.662 258.406L393.422 257.456C392.272 255.325 390.684 253.679 388.659 252.546L387.683 254.292ZM391.665 258.412C392.63 260.171 393.14 262.392 393.14 265.122H395.14C395.14 262.15 394.585 259.577 393.419 257.45L391.665 258.412ZM375.421 265.122C375.421 267.739 375.836 269.884 376.793 271.429L378.493 270.377C377.821 269.29 377.421 267.581 377.421 265.122H375.421ZM376.808 271.453C377.882 273.083 379.601 273.83 381.732 273.83V271.83C380.103 271.83 379.097 271.292 378.478 270.353L376.808 271.453ZM381.732 273.83C383.838 273.83 385.532 273.078 386.572 271.439L384.883 270.367C384.293 271.298 383.323 271.83 381.732 271.83V273.83ZM386.568 271.444C387.564 269.895 387.996 267.744 387.996 265.122H385.996C385.996 267.576 385.582 269.279 384.886 270.362L386.568 271.444ZM387.996 265.122C387.996 262.506 387.566 260.372 386.556 258.876L384.898 259.994C385.58 261.005 385.996 262.662 385.996 265.122H387.996ZM386.572 258.899C385.529 257.255 383.815 256.508 381.685 256.508V258.508C383.315 258.508 384.296 259.046 384.883 259.971L386.572 258.899ZM381.685 256.508C379.578 256.508 377.878 257.26 376.808 258.885L378.478 259.985C379.1 259.041 380.095 258.508 381.685 258.508V256.508ZM376.805 258.89C375.834 260.383 375.421 262.511 375.421 265.122H377.421C377.421 262.657 377.823 260.993 378.482 259.98L376.805 258.89ZM416.895 251.915L416.828 252.913L416.828 252.913L416.895 251.915ZM418.023 252.056L419.02 252.134L419.088 251.268L418.24 251.08L418.023 252.056ZM417.506 258.636L417.231 259.598L418.407 259.933L418.503 258.714L417.506 258.636ZM416.519 258.495L416.367 259.483L416.407 259.49L416.448 259.492L416.519 258.495ZM412.007 259.059L412.355 259.996L412.367 259.992L412.378 259.987L412.007 259.059ZM409.328 261.08L408.521 260.489L408.515 260.498L408.509 260.507L409.328 261.08ZM408.341 278V279H409.341V278H408.341ZM401.338 278H400.338V279H401.338V278ZM401.338 252.338V251.338H400.338V252.338H401.338ZM406.649 252.338L407.621 252.105L407.438 251.338H406.649V252.338ZM407.683 256.662L406.71 256.895L406.894 257.662H407.683V256.662ZM408.012 256.662V257.662H408.592L408.88 257.158L408.012 256.662ZM411.114 253.278L411.695 254.092L411.695 254.092L411.114 253.278ZM415.673 252.868C415.989 252.868 416.373 252.882 416.828 252.913L416.961 250.917C416.477 250.885 416.046 250.868 415.673 250.868V252.868ZM416.828 252.913C417.275 252.943 417.594 252.985 417.806 253.032L418.24 251.08C417.887 251.001 417.455 250.95 416.961 250.917L416.828 252.913ZM417.026 251.978L416.509 258.558L418.503 258.714L419.02 252.134L417.026 251.978ZM417.78 257.674C417.459 257.583 417.047 257.53 416.59 257.498L416.448 259.492C416.868 259.523 417.114 259.564 417.231 259.598L417.78 257.674ZM416.671 257.507C416.228 257.438 415.815 257.401 415.438 257.401V259.401C415.687 259.401 415.995 259.426 416.367 259.483L416.671 257.507ZM415.438 257.401C414.121 257.401 412.851 257.644 411.635 258.131L412.378 259.987C413.356 259.596 414.373 259.401 415.438 259.401V257.401ZM411.659 258.122C410.379 258.597 409.327 259.39 408.521 260.489L410.134 261.671C410.707 260.89 411.441 260.336 412.355 259.996L411.659 258.122ZM408.509 260.507C407.693 261.672 407.341 263.182 407.341 264.934H409.341C409.341 263.427 409.647 262.368 410.147 261.653L408.509 260.507ZM407.341 264.934V278H409.341V264.934H407.341ZM408.341 277H401.338V279H408.341V277ZM402.338 278V252.338H400.338V278H402.338ZM401.338 253.338H406.649V251.338H401.338V253.338ZM405.676 252.571L406.71 256.895L408.655 256.429L407.621 252.105L405.676 252.571ZM407.683 257.662H408.012V255.662H407.683V257.662ZM408.88 257.158C409.556 255.976 410.488 254.954 411.695 254.092L410.533 252.464C409.107 253.482 407.972 254.716 407.144 256.166L408.88 257.158ZM411.695 254.092C412.83 253.281 414.143 252.868 415.673 252.868V250.868C413.755 250.868 412.03 251.395 410.533 252.464L411.695 254.092ZM439.377 255.628L438.562 256.208L438.861 256.628H439.377V255.628ZM439.565 255.628V256.628H440.408L440.55 255.797L439.565 255.628ZM440.129 252.338V251.338H439.285L439.143 252.169L440.129 252.338ZM446.051 252.338H447.051V251.338H446.051V252.338ZM442.808 286.413L443.47 287.162L443.47 287.162L442.808 286.413ZM428.144 288.951L428.002 289.941L428.005 289.941L428.144 288.951ZM423.632 287.776H422.632V288.464L423.274 288.71L423.632 287.776ZM423.632 282.183L424.016 281.26L422.632 280.684V282.183H423.632ZM439.095 276.167L438.101 276.057L438.098 276.084L438.096 276.112L439.095 276.167ZM439.236 274.663L440.233 274.734L440.31 273.663H439.236V274.663ZM439.048 274.663V273.663H438.505L438.21 274.117L439.048 274.663ZM435.899 277.577L435.461 276.678L435.461 276.678L435.899 277.577ZM424.619 274.992L423.807 275.576L423.811 275.582L423.816 275.589L424.619 274.992ZM438.202 271.467L437.439 270.82L437.437 270.822L438.202 271.467ZM438.249 259.341L439.064 258.762L439.064 258.762L438.249 259.341ZM431.951 252.868C434.803 252.868 436.97 253.974 438.562 256.208L440.191 255.048C438.211 252.269 435.428 250.868 431.951 250.868V252.868ZM439.377 256.628H439.565V254.628H439.377V256.628ZM440.55 255.797L441.114 252.507L439.143 252.169L438.579 255.459L440.55 255.797ZM440.129 253.338H446.051V251.338H440.129V253.338ZM445.051 252.338V278.047H447.051V252.338H445.051ZM445.051 278.047C445.051 281.509 444.037 283.991 442.145 285.664L443.47 287.162C445.902 285.012 447.051 281.917 447.051 278.047H445.051ZM442.145 285.664C440.235 287.353 437.317 288.28 433.22 288.28V290.28C437.582 290.28 441.056 289.296 443.47 287.162L442.145 285.664ZM433.22 288.28C431.442 288.28 429.797 288.173 428.282 287.961L428.005 289.941C429.624 290.168 431.362 290.28 433.22 290.28V288.28ZM428.285 287.961C426.825 287.752 425.393 287.38 423.989 286.842L423.274 288.71C424.815 289.3 426.392 289.711 428.002 289.941L428.285 287.961ZM424.632 287.776V282.183H422.632V287.776H424.632ZM423.248 283.106C426.537 284.474 430.005 285.157 433.643 285.157V283.157C430.262 283.157 427.056 282.524 424.016 281.26L423.248 283.106ZM433.643 285.157C435.618 285.157 437.279 284.621 438.43 283.38C439.567 282.153 440.048 280.408 440.048 278.329H438.048C438.048 280.135 437.627 281.304 436.963 282.02C436.312 282.722 435.27 283.157 433.643 283.157V285.157ZM440.048 278.329V277.812H438.048V278.329H440.048ZM440.048 277.812C440.048 277.299 440.063 276.769 440.093 276.222L438.096 276.112C438.064 276.693 438.048 277.26 438.048 277.812H440.048ZM440.088 276.277C440.152 275.704 440.201 275.189 440.233 274.734L438.238 274.592C438.208 275.014 438.162 275.502 438.101 276.057L440.088 276.277ZM439.236 273.663H439.048V275.663H439.236V273.663ZM438.21 274.117C437.413 275.341 436.492 276.175 435.461 276.678L436.337 278.476C437.749 277.788 438.928 276.68 439.886 275.209L438.21 274.117ZM435.461 276.678C434.392 277.199 433.166 277.47 431.763 277.47V279.47C433.43 279.47 434.961 279.146 436.337 278.476L435.461 276.678ZM431.763 277.47C429.02 277.47 426.945 276.445 425.421 274.395L423.816 275.589C425.739 278.176 428.426 279.47 431.763 279.47V277.47ZM425.43 274.408C423.904 272.288 423.081 269.262 423.081 265.216H421.081C421.081 269.505 421.949 272.996 423.807 275.576L425.43 274.408ZM423.081 265.216C423.081 261.143 423.933 258.108 425.514 255.991L423.911 254.795C421.982 257.378 421.081 260.892 421.081 265.216H423.081ZM425.514 255.991C427.07 253.908 429.178 252.868 431.951 252.868V250.868C428.582 250.868 425.865 252.178 423.911 254.795L425.514 255.991ZM434.16 256.555C432.203 256.555 430.636 257.351 429.615 258.957C428.642 260.486 428.225 262.651 428.225 265.31H430.225C430.225 262.799 430.63 261.087 431.302 260.031C431.925 259.051 432.826 258.555 434.16 258.555V256.555ZM428.225 265.31C428.225 267.941 428.651 270.088 429.646 271.605C430.689 273.194 432.279 273.971 434.254 273.971V271.971C432.875 271.971 431.951 271.471 431.318 270.507C430.637 269.469 430.225 267.786 430.225 265.31H428.225ZM434.254 273.971C436.222 273.971 437.868 273.413 438.966 272.112L437.437 270.822C436.843 271.526 435.857 271.971 434.254 271.971V273.971ZM438.964 272.114C440.081 270.797 440.518 268.703 440.518 266.109H438.518C438.518 268.591 438.077 270.069 437.439 270.82L438.964 272.114ZM440.518 266.109V265.263H438.518V266.109H440.518ZM440.518 265.263C440.518 262.456 440.097 260.216 439.064 258.762L437.433 259.92C438.092 260.847 438.518 262.556 438.518 265.263H440.518ZM439.064 258.762C437.977 257.233 436.26 256.555 434.16 256.555V258.555C435.819 258.555 436.828 259.068 437.433 259.92L439.064 258.762Z" fill="#2E4E78"/>
</svg>
