<svg width="450" height="330" viewBox="0 0 450 330" fill="none" xmlns="http://www.w3.org/2000/svg">
<path d="M262.716 92H239.716V97.5H246.716V150.5H239.216V156.5H263.216V150.5H255.716V132L261.216 125.5H262.716L281.216 156.5H295.216V150H287.716L267.216 119.5L285.716 97.5H292.216V92H271.216V97.5H277.716L255.716 123V97.5H262.716V92Z" fill="#66B2DD" stroke="#2E4E78"/>
<path d="M275.716 186C309.316 187.2 340.05 180.5 349.216 177C334.216 179.846 285.116 182.431 250.716 176C207.716 167.962 229.716 172.5 209.216 167.5C192.816 163.5 159.716 151.667 150.716 148C139.916 144.4 126.883 136.5 121.716 133V74H318.716V168C328.316 168.4 335.716 166.833 338.216 166V54.5H102.216V120.5C98.3831 118.333 88.4164 111 79.2164 99C70.0164 87 67.7164 74.6667 67.7164 70C67.2164 66.1667 68.3164 56.2 76.7164 47C85.1164 37.8 96.8831 31.1667 101.716 29C71.7164 36.5 56.7164 44 50.2164 55C43.7164 66 41.2164 87 55.2164 103C69.2164 119 70.7164 119 87.7164 132C104.716 145 123.716 152 141.716 159.5C159.716 167 170.716 171.5 202.716 178C234.716 184.5 233.716 184.5 275.716 186Z" fill="#66B2DD" stroke="#2E4E78"/>
<path d="M126.716 198.5L96.2164 251H342.216L326.716 208C341.516 204.8 360.55 198 368.216 195C383.416 189 396.55 178.167 401.216 173.5C410.816 163.5 411.883 149 411.216 143C410.816 133.4 402.716 122.667 398.716 118.5C385.116 106.1 371.716 99 366.716 97C381.516 107.8 387.883 119.5 389.216 124C393.616 138.4 389.716 149.333 387.216 153C377.616 168.2 361.216 177.333 354.216 180C338.216 190 300.55 197.833 283.716 200.5C254.216 203 232.716 202 219.716 201.5C206.716 201 181.216 198.5 151.716 192.5C128.116 187.7 102.55 178.5 92.7164 174.5C115.216 187 111.716 184 134.216 194C152.216 202 181.383 207 193.716 208.5L190.216 218.5H179.216L181.216 208.5L175.716 218.5H162.716L165.216 208.5L160.216 218.5H147.716L149.216 208.5L143.216 218.5H124.716L126.716 198.5Z" fill="#2E4E78" stroke="#2E4E78"/>
<path d="M242.216 219.5L243.216 214.5H235.216L233.716 219.5H242.216Z" fill="#E5E5E5" stroke="#2E4E78"/>
<path d="M226.716 212.5H218.216L216.216 219H224.716L226.716 212.5Z" fill="#E5E5E5" stroke="#2E4E78"/>
<path d="M210.216 211.5L202.216 210L199.216 219H207.716L210.216 211.5Z" fill="#E5E5E5" stroke="#2E4E78"/>
<path d="M300.216 219L297.716 212.5L307.716 211L310.216 219H300.216Z" fill="#E5E5E5" stroke="#2E4E78"/>
<path d="M304.216 232.5L303.216 227.5H313.216L315.216 232.5H304.216Z" fill="#E5E5E5" stroke="#2E4E78"/>
<path d="M284.216 219L282.216 213.5H289.216L290.716 219H284.216Z" fill="#E5E5E5" stroke="#2E4E78"/>
<path d="M288.716 232.5L286.716 228H293.716L295.716 232.5H288.716Z" fill="#E5E5E5" stroke="#2E4E78"/>
<path d="M279.716 232L277.716 227H270.216L272.716 232H279.716Z" fill="#E5E5E5" stroke="#2E4E78"/>
<path d="M274.716 219L273.716 214H269.716L267.716 219H274.716Z" fill="#E5E5E5" stroke="#2E4E78"/>
<path d="M259.216 219L257.716 214.5H252.716L250.216 219H259.216Z" fill="#E5E5E5" stroke="#2E4E78"/>
<path d="M245.716 231.5L247.716 227H256.716L254.216 231.5H245.716Z" fill="#E5E5E5" stroke="#2E4E78"/>
<path d="M228.716 231.5L230.716 227H239.716L237.216 231.5H228.716Z" fill="#E5E5E5" stroke="#2E4E78"/>
<path d="M210.716 231.5L212.716 227H221.716L219.216 231.5H210.716Z" fill="#E5E5E5" stroke="#2E4E78"/>
<path d="M193.716 231.5L195.716 227H204.716L202.216 231.5H193.716Z" fill="#E5E5E5" stroke="#2E4E78"/>
<path d="M160.716 231.5L162.716 227H171.716L169.216 231.5H160.716Z" fill="#E5E5E5" stroke="#2E4E78"/>
<path d="M144.716 231.5L146.716 227H155.716L153.216 231.5H144.716Z" fill="#E5E5E5" stroke="#2E4E78"/>
<path d="M175.716 231.5L177.716 227H186.716L184.216 231.5H175.716Z" fill="#E5E5E5" stroke="#2E4E78"/>
<path d="M122.716 231.5V227H138.716L137.216 231.5H122.716Z" fill="#E5E5E5" stroke="#2E4E78"/>
<path d="M31.5003 306H23.4163L14.6273 291.853L11.6193 294.015V306H4.52227V272.442H11.6193V287.811C12.0893 287.153 12.5593 286.495 13.0293 285.837C13.4993 285.179 13.9693 284.521 14.4393 283.863L23.5103 272.442H31.4063L19.7033 287.294L31.5003 306ZM40.1042 270.28C41.1382 270.28 42.0312 270.531 42.7832 271.032C43.5352 271.502 43.9112 272.395 43.9112 273.711C43.9112 274.996 43.5352 275.889 42.7832 276.39C42.0312 276.891 41.1382 277.142 40.1042 277.142C39.0389 277.142 38.1302 276.891 37.3782 276.39C36.6575 275.889 36.2972 274.996 36.2972 273.711C36.2972 272.395 36.6575 271.502 37.3782 271.032C38.1302 270.531 39.0389 270.28 40.1042 270.28ZM43.5822 280.338V306H36.5792V280.338H43.5822ZM62.8845 279.868C66.4252 279.868 69.2295 280.886 71.2975 282.923C73.3655 284.928 74.3995 287.795 74.3995 291.524V294.908H57.8555C57.9182 296.882 58.4979 298.433 59.5945 299.561C60.7225 300.689 62.2735 301.253 64.2475 301.253C65.9082 301.253 67.4122 301.096 68.7595 300.783C70.1069 300.438 71.5012 299.921 72.9425 299.232V304.637C71.6892 305.264 70.3575 305.718 68.9475 306C67.5689 306.313 65.8925 306.47 63.9185 306.47C61.3492 306.47 59.0775 306 57.1035 305.06C55.1295 304.089 53.5785 302.632 52.4505 300.689C51.3225 298.746 50.7585 296.302 50.7585 293.357C50.7585 290.349 51.2599 287.858 52.2625 285.884C53.2965 283.879 54.7222 282.375 56.5395 281.372C58.3569 280.369 60.4719 279.868 62.8845 279.868ZM62.9315 284.85C61.5842 284.85 60.4562 285.289 59.5475 286.166C58.6702 287.043 58.1532 288.406 57.9965 290.255H67.8195C67.7882 288.688 67.3809 287.404 66.5975 286.401C65.8142 285.367 64.5922 284.85 62.9315 284.85ZM96.0581 279.868C98.8154 279.868 101.024 280.62 102.685 282.124C104.346 283.597 105.176 285.978 105.176 289.268V306H98.1731V291.007C98.1731 289.158 97.8441 287.78 97.1861 286.871C96.5281 285.931 95.4784 285.461 94.0371 285.461C91.9064 285.461 90.4494 286.197 89.6661 287.67C88.8827 289.111 88.4911 291.195 88.4911 293.921V306H81.4881V280.338H86.8461L87.7861 283.628H88.1621C88.9767 282.312 90.0891 281.356 91.4991 280.761C92.9404 280.166 94.4601 279.868 96.0581 279.868ZM124.598 300.877C125.381 300.877 126.133 300.799 126.854 300.642C127.574 300.485 128.295 300.297 129.016 300.078V305.295C128.264 305.608 127.324 305.875 126.196 306.094C125.099 306.345 123.893 306.47 122.577 306.47C121.041 306.47 119.663 306.219 118.441 305.718C117.25 305.217 116.294 304.355 115.574 303.133C114.884 301.88 114.54 300.156 114.54 297.963V285.602H111.203V282.641L115.057 280.291L117.078 274.886H121.543V280.338H128.734V285.602H121.543V297.963C121.543 298.934 121.825 299.671 122.389 300.172C122.953 300.642 123.689 300.877 124.598 300.877ZM142.58 277.565C142.58 278.818 142.533 280.025 142.439 281.184C142.376 282.343 142.313 283.158 142.251 283.628H142.627C143.441 282.312 144.491 281.356 145.776 280.761C147.06 280.166 148.486 279.868 150.053 279.868C152.841 279.868 155.066 280.62 156.727 282.124C158.419 283.597 159.265 285.978 159.265 289.268V306H152.262V291.007C152.262 287.31 150.883 285.461 148.126 285.461C146.026 285.461 144.569 286.197 143.755 287.67C142.971 289.111 142.58 291.195 142.58 293.921V306H135.577V270.28H142.58V277.565ZM191.423 280.338V306H186.065L185.125 302.71H184.749C183.935 304.026 182.807 304.982 181.365 305.577C179.955 306.172 178.451 306.47 176.853 306.47C174.096 306.47 171.887 305.734 170.226 304.261C168.566 302.757 167.735 300.36 167.735 297.07V280.338H174.738V295.331C174.738 297.148 175.067 298.527 175.725 299.467C176.383 300.407 177.433 300.877 178.874 300.877C181.005 300.877 182.462 300.156 183.245 298.715C184.029 297.242 184.42 295.143 184.42 292.417V280.338H191.423ZM210.61 306.47C206.787 306.47 203.826 305.42 201.727 303.321C199.659 301.19 198.625 297.853 198.625 293.31C198.625 290.177 199.158 287.623 200.223 285.649C201.288 283.675 202.761 282.218 204.641 281.278C206.552 280.338 208.746 279.868 211.221 279.868C212.976 279.868 214.495 280.04 215.78 280.385C217.096 280.73 218.24 281.137 219.211 281.607L217.143 287.012C216.046 286.573 215.012 286.213 214.041 285.931C213.101 285.649 212.161 285.508 211.221 285.508C207.586 285.508 205.769 288.093 205.769 293.263C205.769 295.832 206.239 297.728 207.179 298.95C208.15 300.172 209.498 300.783 211.221 300.783C212.694 300.783 213.994 300.595 215.122 300.219C216.25 299.812 217.347 299.263 218.412 298.574V304.543C217.347 305.232 216.219 305.718 215.028 306C213.869 306.313 212.396 306.47 210.61 306.47ZM236.539 300.877C237.322 300.877 238.074 300.799 238.795 300.642C239.515 300.485 240.236 300.297 240.957 300.078V305.295C240.205 305.608 239.265 305.875 238.137 306.094C237.04 306.345 235.834 306.47 234.518 306.47C232.982 306.47 231.604 306.219 230.382 305.718C229.191 305.217 228.235 304.355 227.515 303.133C226.825 301.88 226.481 300.156 226.481 297.963V285.602H223.144V282.641L226.998 280.291L229.019 274.886H233.484V280.338H240.675V285.602H233.484V297.963C233.484 298.934 233.766 299.671 234.33 300.172C234.894 300.642 235.63 300.877 236.539 300.877ZM254.52 277.565C254.52 278.818 254.473 280.025 254.379 281.184C254.317 282.343 254.254 283.158 254.191 283.628H254.567C255.382 282.312 256.432 281.356 257.716 280.761C259.001 280.166 260.427 279.868 261.993 279.868C264.782 279.868 267.007 280.62 268.667 282.124C270.359 283.597 271.205 285.978 271.205 289.268V306H264.202V291.007C264.202 287.31 262.824 285.461 260.066 285.461C257.967 285.461 256.51 286.197 255.695 287.67C254.912 289.111 254.52 291.195 254.52 293.921V306H247.517V270.28H254.52V277.565ZM303.364 280.338V306H298.006L297.066 302.71H296.69C295.875 304.026 294.747 304.982 293.306 305.577C291.896 306.172 290.392 306.47 288.794 306.47C286.037 306.47 283.828 305.734 282.167 304.261C280.506 302.757 279.676 300.36 279.676 297.07V280.338H286.679V295.331C286.679 297.148 287.008 298.527 287.666 299.467C288.324 300.407 289.374 300.877 290.815 300.877C292.946 300.877 294.403 300.156 295.186 298.715C295.969 297.242 296.361 295.143 296.361 292.417V280.338H303.364ZM318.227 306L308.451 280.338H315.783L320.718 294.955C321 295.832 321.219 296.741 321.376 297.681C321.564 298.621 321.673 299.467 321.705 300.219H321.893C321.987 298.527 322.331 296.772 322.927 294.955L327.862 280.338H335.194L325.418 306H318.227ZM343.811 270.28C344.845 270.28 345.738 270.531 346.49 271.032C347.242 271.502 347.618 272.395 347.618 273.711C347.618 274.996 347.242 275.889 346.49 276.39C345.738 276.891 344.845 277.142 343.811 277.142C342.745 277.142 341.837 276.891 341.085 276.39C340.364 275.889 340.004 274.996 340.004 273.711C340.004 272.395 340.364 271.502 341.085 271.032C341.837 270.531 342.745 270.28 343.811 270.28ZM347.289 280.338V306H340.286V280.338H347.289ZM355.029 302.71C355.029 301.269 355.42 300.266 356.204 299.702C356.987 299.107 357.943 298.809 359.071 298.809C360.167 298.809 361.107 299.107 361.891 299.702C362.674 300.266 363.066 301.269 363.066 302.71C363.066 304.089 362.674 305.091 361.891 305.718C361.107 306.313 360.167 306.611 359.071 306.611C357.943 306.611 356.987 306.313 356.204 305.718C355.42 305.091 355.029 304.089 355.029 302.71ZM394.14 293.122C394.14 297.383 393.012 300.673 390.756 302.992C388.531 305.311 385.492 306.47 381.638 306.47C379.257 306.47 377.126 305.953 375.246 304.919C373.397 303.885 371.94 302.381 370.875 300.407C369.81 298.402 369.277 295.973 369.277 293.122C369.277 288.861 370.389 285.586 372.614 283.299C374.839 281.012 377.894 279.868 381.779 279.868C384.192 279.868 386.322 280.385 388.171 281.419C390.02 282.453 391.477 283.957 392.542 285.931C393.607 287.874 394.14 290.271 394.14 293.122ZM376.421 293.122C376.421 295.66 376.828 297.587 377.643 298.903C378.489 300.188 379.852 300.83 381.732 300.83C383.581 300.83 384.912 300.188 385.727 298.903C386.573 297.587 386.996 295.66 386.996 293.122C386.996 290.584 386.573 288.688 385.727 287.435C384.912 286.15 383.565 285.508 381.685 285.508C379.836 285.508 378.489 286.15 377.643 287.435C376.828 288.688 376.421 290.584 376.421 293.122ZM415.673 279.868C416.017 279.868 416.425 279.884 416.895 279.915C417.365 279.946 417.741 279.993 418.023 280.056L417.506 286.636C417.286 286.573 416.957 286.526 416.519 286.495C416.111 286.432 415.751 286.401 415.438 286.401C414.247 286.401 413.103 286.62 412.007 287.059C410.91 287.466 410.017 288.14 409.328 289.08C408.67 290.02 408.341 291.305 408.341 292.934V306H401.338V280.338H406.649L407.683 284.662H408.012C408.764 283.346 409.798 282.218 411.114 281.278C412.43 280.338 413.949 279.868 415.673 279.868ZM431.951 279.868C435.115 279.868 437.591 281.121 439.377 283.628H439.565L440.129 280.338H446.051V306.047C446.051 309.713 444.97 312.502 442.808 314.413C440.646 316.324 437.45 317.28 433.22 317.28C431.402 317.28 429.71 317.17 428.144 316.951C426.608 316.732 425.104 316.34 423.632 315.776V310.183C426.796 311.499 430.133 312.157 433.643 312.157C437.246 312.157 439.048 310.214 439.048 306.329V305.812C439.048 305.279 439.063 304.731 439.095 304.167C439.157 303.603 439.204 303.102 439.236 302.663H439.048C438.17 304.01 437.121 304.982 435.899 305.577C434.677 306.172 433.298 306.47 431.763 306.47C428.723 306.47 426.342 305.311 424.619 302.992C422.927 300.642 422.081 297.383 422.081 293.216C422.081 289.017 422.958 285.743 424.713 283.393C426.467 281.043 428.88 279.868 431.951 279.868ZM434.16 285.555C430.87 285.555 429.225 288.14 429.225 293.31C429.225 298.417 430.901 300.971 434.254 300.971C436.04 300.971 437.356 300.47 438.202 299.467C439.079 298.433 439.518 296.647 439.518 294.109V293.263C439.518 290.506 439.095 288.532 438.249 287.341C437.403 286.15 436.04 285.555 434.16 285.555Z" fill="#2E4E78"/>
<path d="M31.5003 306V307H33.3132L32.3461 305.467L31.5003 306ZM23.4163 306L22.5668 306.528L22.8603 307H23.4163V306ZM14.6273 291.853L15.4767 291.325L14.9122 290.417L14.0436 291.041L14.6273 291.853ZM11.6193 294.015L11.0356 293.203L10.6193 293.502V294.015H11.6193ZM11.6193 306V307H12.6193V306H11.6193ZM4.52227 306H3.52227V307H4.52227V306ZM4.52227 272.442V271.442H3.52227V272.442H4.52227ZM11.6193 272.442H12.6193V271.442H11.6193V272.442ZM11.6193 287.811H10.6193V290.931L12.433 288.392L11.6193 287.811ZM13.0293 285.837L13.843 286.418L13.843 286.418L13.0293 285.837ZM14.4393 283.863L13.6562 283.241L13.6404 283.261L13.6255 283.282L14.4393 283.863ZM23.5103 272.442V271.442H23.0275L22.7272 271.82L23.5103 272.442ZM31.4063 272.442L32.1917 273.061L33.4674 271.442H31.4063V272.442ZM19.7033 287.294L18.9178 286.675L18.4806 287.23L18.8574 287.827L19.7033 287.294ZM31.5003 305H23.4163V307H31.5003V305ZM24.2657 305.472L15.4767 291.325L13.7778 292.381L22.5668 306.528L24.2657 305.472ZM14.0436 291.041L11.0356 293.203L12.2029 294.827L15.2109 292.665L14.0436 291.041ZM10.6193 294.015V306H12.6193V294.015H10.6193ZM11.6193 305H4.52227V307H11.6193V305ZM5.52227 306V272.442H3.52227V306H5.52227ZM4.52227 273.442H11.6193V271.442H4.52227V273.442ZM10.6193 272.442V287.811H12.6193V272.442H10.6193ZM12.433 288.392C12.903 287.734 13.373 287.076 13.843 286.418L12.2155 285.256C11.7455 285.914 11.2755 286.572 10.8055 287.23L12.433 288.392ZM13.843 286.418C14.313 285.76 14.783 285.102 15.253 284.444L13.6255 283.282C13.1555 283.94 12.6855 284.598 12.2155 285.256L13.843 286.418ZM15.2223 284.485L24.2933 273.064L22.7272 271.82L13.6562 283.241L15.2223 284.485ZM23.5103 273.442H31.4063V271.442H23.5103V273.442ZM30.6208 271.823L18.9178 286.675L20.4887 287.913L32.1917 273.061L30.6208 271.823ZM18.8574 287.827L30.6544 306.533L32.3461 305.467L20.5491 286.761L18.8574 287.827ZM42.7832 271.032L42.2285 271.864L42.2407 271.872L42.2532 271.88L42.7832 271.032ZM42.7832 276.39L42.2285 275.558L42.2285 275.558L42.7832 276.39ZM37.3782 276.39L36.8071 277.211L36.8153 277.217L36.8235 277.222L37.3782 276.39ZM37.3782 271.032L37.9245 271.87L37.9329 271.864L37.3782 271.032ZM43.5822 280.338H44.5822V279.338H43.5822V280.338ZM43.5822 306V307H44.5822V306H43.5822ZM36.5792 306H35.5792V307H36.5792V306ZM36.5792 280.338V279.338H35.5792V280.338H36.5792ZM40.1042 271.28C40.9701 271.28 41.6636 271.487 42.2285 271.864L43.3379 270.2C42.3989 269.574 41.3063 269.28 40.1042 269.28V271.28ZM42.2532 271.88C42.5875 272.089 42.9112 272.56 42.9112 273.711H44.9112C44.9112 272.23 44.4829 270.915 43.3132 270.184L42.2532 271.88ZM42.9112 273.711C42.9112 274.814 42.5957 275.313 42.2285 275.558L43.3379 277.222C44.4747 276.464 44.9112 275.178 44.9112 273.711H42.9112ZM42.2285 275.558C41.6636 275.935 40.9701 276.142 40.1042 276.142V278.142C41.3063 278.142 42.3989 277.848 43.3379 277.222L42.2285 275.558ZM40.1042 276.142C39.2003 276.142 38.493 275.931 37.9329 275.558L36.8235 277.222C37.7674 277.851 38.8775 278.142 40.1042 278.142V276.142ZM37.9493 275.569C37.6068 275.331 37.2972 274.829 37.2972 273.711H35.2972C35.2972 275.162 35.7083 276.446 36.8071 277.211L37.9493 275.569ZM37.2972 273.711C37.2972 272.544 37.615 272.071 37.9245 271.87L36.8319 270.194C35.7 270.933 35.2972 272.246 35.2972 273.711H37.2972ZM37.9329 271.864C38.493 271.491 39.2003 271.28 40.1042 271.28V269.28C38.8775 269.28 37.7674 269.571 36.8235 270.2L37.9329 271.864ZM42.5822 280.338V306H44.5822V280.338H42.5822ZM43.5822 305H36.5792V307H43.5822V305ZM37.5792 306V280.338H35.5792V306H37.5792ZM36.5792 281.338H43.5822V279.338H36.5792V281.338ZM71.2975 282.923L70.5958 283.636L70.6014 283.641L71.2975 282.923ZM74.3995 294.908V295.908H75.3995V294.908H74.3995ZM57.8555 294.908V293.908H56.8233L56.856 294.94L57.8555 294.908ZM59.5945 299.561L58.8775 300.258L58.8874 300.268L59.5945 299.561ZM68.7595 300.783L68.986 301.757L68.9967 301.755L69.0074 301.752L68.7595 300.783ZM72.9425 299.232H73.9425V297.645L72.5111 298.33L72.9425 299.232ZM72.9425 304.637L73.3897 305.531L73.9425 305.255V304.637H72.9425ZM68.9475 306L68.7514 305.019L68.7386 305.022L68.7259 305.025L68.9475 306ZM57.1035 305.06L56.662 305.957L56.6736 305.963L57.1035 305.06ZM52.4505 300.689L51.5857 301.191L51.5857 301.191L52.4505 300.689ZM52.2625 285.884L51.3737 285.426L51.3709 285.431L52.2625 285.884ZM56.5395 281.372L56.0564 280.496L56.0564 280.496L56.5395 281.372ZM59.5475 286.166L58.8529 285.447L58.8466 285.453L58.8404 285.459L59.5475 286.166ZM57.9965 290.255L57.0001 290.171L56.9082 291.255H57.9965V290.255ZM67.8195 290.255V291.255H68.8397L68.8193 290.235L67.8195 290.255ZM66.5975 286.401L65.8004 287.005L65.8049 287.011L65.8095 287.017L66.5975 286.401ZM62.8845 280.868C66.2239 280.868 68.7545 281.822 70.5958 283.635L71.9992 282.211C69.7046 279.951 66.6264 278.868 62.8845 278.868V280.868ZM70.6014 283.641C72.4224 285.407 73.3995 287.982 73.3995 291.524H75.3995C75.3995 287.608 74.3086 284.45 71.9937 282.205L70.6014 283.641ZM73.3995 291.524V294.908H75.3995V291.524H73.3995ZM74.3995 293.908H57.8555V295.908H74.3995V293.908ZM56.856 294.94C56.9245 297.097 57.5658 298.909 58.8775 300.258L60.3115 298.864C59.4299 297.957 58.9119 296.667 58.855 294.876L56.856 294.94ZM58.8874 300.268C60.2454 301.626 62.075 302.253 64.2475 302.253V300.253C62.472 300.253 61.1997 299.752 60.3016 298.854L58.8874 300.268ZM64.2475 302.253C65.9698 302.253 67.5514 302.091 68.986 301.757L68.533 299.809C67.273 300.102 65.8466 300.253 64.2475 300.253V302.253ZM69.0074 301.752C70.4264 301.389 71.8823 300.848 73.374 300.134L72.5111 298.33C71.1201 298.995 69.7873 299.488 68.5117 299.814L69.0074 301.752ZM71.9425 299.232V304.637H73.9425V299.232H71.9425ZM72.4953 303.743C71.3235 304.328 70.0765 304.754 68.7514 305.019L69.1436 306.981C70.6385 306.682 72.0548 306.199 73.3897 305.531L72.4953 303.743ZM68.7259 305.025C67.4422 305.317 65.8449 305.47 63.9185 305.47V307.47C65.9401 307.47 67.6955 307.31 69.1691 306.975L68.7259 305.025ZM63.9185 305.47C61.4721 305.47 59.3516 305.023 57.5335 304.157L56.6736 305.963C58.8034 306.977 61.2263 307.47 63.9185 307.47V305.47ZM57.545 304.163C55.7519 303.28 54.3465 301.963 53.3153 300.187L51.5857 301.191C52.8105 303.301 54.5071 304.897 56.662 305.957L57.545 304.163ZM53.3153 300.187C52.2993 298.437 51.7585 296.179 51.7585 293.357H49.7585C49.7585 296.425 50.3457 299.056 51.5857 301.191L53.3153 300.187ZM51.7585 293.357C51.7585 290.453 52.2436 288.129 53.1541 286.337L51.3709 285.431C50.2761 287.587 49.7585 290.245 49.7585 293.357H51.7585ZM53.1513 286.342C54.1027 284.497 55.394 283.146 57.0226 282.248L56.0564 280.496C54.0503 281.603 52.4903 283.26 51.3737 285.426L53.1513 286.342ZM57.0226 282.248C58.6696 281.339 60.6132 280.868 62.8845 280.868V278.868C60.3305 278.868 58.0441 279.4 56.0564 280.496L57.0226 282.248ZM62.9315 283.85C61.3441 283.85 59.9613 284.376 58.8529 285.447L60.2421 286.885C60.9511 286.201 61.8243 285.85 62.9315 285.85V283.85ZM58.8404 285.459C57.7307 286.569 57.1672 288.199 57.0001 290.171L58.9929 290.339C59.1392 288.613 59.6096 287.518 60.2546 286.873L58.8404 285.459ZM57.9965 291.255H67.8195V289.255H57.9965V291.255ZM68.8193 290.235C68.7847 288.503 68.3304 286.995 67.3855 285.785L65.8095 287.017C66.4313 287.813 66.7917 288.873 66.8197 290.275L68.8193 290.235ZM67.3946 285.797C66.3708 284.446 64.8089 283.85 62.9315 283.85V285.85C64.3755 285.85 65.2576 286.288 65.8004 287.005L67.3946 285.797ZM102.685 282.124L102.014 282.865L102.022 282.872L102.685 282.124ZM105.176 306V307H106.176V306H105.176ZM98.1731 306H97.1731V307H98.1731V306ZM97.1861 286.871L96.3668 287.444L96.3714 287.451L96.3761 287.458L97.1861 286.871ZM89.6661 287.67L90.5447 288.148L90.5489 288.14L89.6661 287.67ZM88.4911 306V307H89.4911V306H88.4911ZM81.4881 306H80.4881V307H81.4881V306ZM81.4881 280.338V279.338H80.4881V280.338H81.4881ZM86.8461 280.338L87.8076 280.063L87.6004 279.338H86.8461V280.338ZM87.7861 283.628L86.8246 283.903L87.0318 284.628H87.7861V283.628ZM88.1621 283.628V284.628H88.7191L89.0123 284.154L88.1621 283.628ZM91.4991 280.761L91.1173 279.837L91.1101 279.84L91.4991 280.761ZM96.0581 280.868C98.6272 280.868 100.577 281.564 102.014 282.865L103.356 281.383C101.472 279.676 99.0037 278.868 96.0581 278.868V280.868ZM102.022 282.872C103.382 284.079 104.176 286.124 104.176 289.268H106.176C106.176 285.832 105.309 283.115 103.349 281.376L102.022 282.872ZM104.176 289.268V306H106.176V289.268H104.176ZM105.176 305H98.1731V307H105.176V305ZM99.1731 306V291.007H97.1731V306H99.1731ZM99.1731 291.007C99.1731 289.072 98.8346 287.443 97.996 286.284L96.3761 287.458C96.8536 288.117 97.1731 289.245 97.1731 291.007H99.1731ZM98.0053 286.298C97.1122 285.022 95.711 284.461 94.0371 284.461V286.461C95.2458 286.461 95.944 286.84 96.3668 287.444L98.0053 286.298ZM94.0371 284.461C91.6571 284.461 89.7902 285.307 88.7832 287.2L90.5489 288.14C91.1086 287.087 92.1557 286.461 94.0371 286.461V284.461ZM88.7875 287.192C87.8882 288.847 87.4911 291.126 87.4911 293.921H89.4911C89.4911 291.264 89.8773 289.376 90.5447 288.148L88.7875 287.192ZM87.4911 293.921V306H89.4911V293.921H87.4911ZM88.4911 305H81.4881V307H88.4911V305ZM82.4881 306V280.338H80.4881V306H82.4881ZM81.4881 281.338H86.8461V279.338H81.4881V281.338ZM85.8846 280.613L86.8246 283.903L88.7476 283.353L87.8076 280.063L85.8846 280.613ZM87.7861 284.628H88.1621V282.628H87.7861V284.628ZM89.0123 284.154C89.7192 283.012 90.6713 282.196 91.888 281.682L91.1101 279.84C89.5068 280.517 88.2343 281.612 87.3118 283.102L89.0123 284.154ZM91.8808 281.685C93.1981 281.141 94.5877 280.868 96.0581 280.868V278.868C94.3324 278.868 92.6827 279.19 91.1173 279.837L91.8808 281.685ZM126.854 300.642L126.641 299.665L126.641 299.665L126.854 300.642ZM129.016 300.078H130.016V298.728L128.725 299.121L129.016 300.078ZM129.016 305.295L129.4 306.218L130.016 305.962V305.295H129.016ZM126.196 306.094L126.005 305.112L125.989 305.116L125.973 305.119L126.196 306.094ZM118.441 305.718L118.053 306.64L118.061 306.643L118.441 305.718ZM115.574 303.133L114.698 303.615L114.705 303.628L114.712 303.641L115.574 303.133ZM114.54 285.602H115.54V284.602H114.54V285.602ZM111.203 285.602H110.203V286.602H111.203V285.602ZM111.203 282.641L110.682 281.787L110.203 282.08V282.641H111.203ZM115.057 280.291L115.577 281.145L115.872 280.965L115.993 280.641L115.057 280.291ZM117.078 274.886V273.886H116.384L116.141 274.536L117.078 274.886ZM121.543 274.886H122.543V273.886H121.543V274.886ZM121.543 280.338H120.543V281.338H121.543V280.338ZM128.734 280.338H129.734V279.338H128.734V280.338ZM128.734 285.602V286.602H129.734V285.602H128.734ZM121.543 285.602V284.602H120.543V285.602H121.543ZM122.389 300.172L121.724 300.919L121.736 300.93L121.749 300.94L122.389 300.172ZM124.598 301.877C125.448 301.877 126.272 301.792 127.066 301.619L126.641 299.665C125.995 299.805 125.314 299.877 124.598 299.877V301.877ZM127.066 301.619C127.814 301.457 128.561 301.262 129.307 301.035L128.725 299.121C128.029 299.333 127.335 299.514 126.641 299.665L127.066 301.619ZM128.016 300.078V305.295H130.016V300.078H128.016ZM128.631 304.372C127.961 304.651 127.091 304.901 126.005 305.112L126.387 307.076C127.556 306.848 128.566 306.566 129.4 306.218L128.631 304.372ZM125.973 305.119C124.96 305.351 123.83 305.47 122.577 305.47V307.47C123.955 307.47 125.238 307.339 126.419 307.069L125.973 305.119ZM122.577 305.47C121.151 305.47 119.904 305.237 118.82 304.793L118.061 306.643C119.422 307.201 120.932 307.47 122.577 307.47V305.47ZM118.829 304.796C117.856 304.387 117.058 303.681 116.435 302.625L114.712 303.641C115.531 305.029 116.644 306.047 118.053 306.64L118.829 304.796ZM116.45 302.651C115.874 301.604 115.54 300.07 115.54 297.963H113.54C113.54 300.243 113.895 302.156 114.698 303.615L116.45 302.651ZM115.54 297.963V285.602H113.54V297.963H115.54ZM114.54 284.602H111.203V286.602H114.54V284.602ZM112.203 285.602V282.641H110.203V285.602H112.203ZM111.723 283.495L115.577 281.145L114.536 279.437L110.682 281.787L111.723 283.495ZM115.993 280.641L118.014 275.236L116.141 274.536L114.12 279.941L115.993 280.641ZM117.078 275.886H121.543V273.886H117.078V275.886ZM120.543 274.886V280.338H122.543V274.886H120.543ZM121.543 281.338H128.734V279.338H121.543V281.338ZM127.734 280.338V285.602H129.734V280.338H127.734ZM128.734 284.602H121.543V286.602H128.734V284.602ZM120.543 285.602V297.963H122.543V285.602H120.543ZM120.543 297.963C120.543 299.133 120.889 300.177 121.724 300.919L123.053 299.425C122.76 299.164 122.543 298.736 122.543 297.963H120.543ZM121.749 300.94C122.532 301.593 123.513 301.877 124.598 301.877V299.877C123.866 299.877 123.374 299.691 123.029 299.404L121.749 300.94ZM142.439 281.184L141.442 281.103L141.441 281.117L141.44 281.13L142.439 281.184ZM142.251 283.628L141.259 283.496L141.108 284.628H142.251V283.628ZM142.627 283.628V284.628H143.184L143.477 284.154L142.627 283.628ZM145.776 280.761L146.196 281.668L146.196 281.668L145.776 280.761ZM156.727 282.124L156.055 282.865L156.063 282.872L156.07 282.878L156.727 282.124ZM159.265 306V307H160.265V306H159.265ZM152.262 306H151.262V307H152.262V306ZM143.755 287.67L142.88 287.186L142.876 287.192L143.755 287.67ZM142.58 306V307H143.58V306H142.58ZM135.577 306H134.577V307H135.577V306ZM135.577 270.28V269.28H134.577V270.28H135.577ZM142.58 270.28H143.58V269.28H142.58V270.28ZM141.58 277.565C141.58 278.793 141.534 279.973 141.442 281.103L143.435 281.265C143.532 280.077 143.58 278.843 143.58 277.565H141.58ZM141.44 281.13C141.377 282.29 141.316 283.069 141.259 283.496L143.242 283.76C143.31 283.247 143.375 282.397 143.437 281.238L141.44 281.13ZM142.251 284.628H142.627V282.628H142.251V284.628ZM143.477 284.154C144.199 282.989 145.105 282.174 146.196 281.668L145.355 279.854C143.877 280.539 142.684 281.635 141.776 283.102L143.477 284.154ZM146.196 281.668C147.336 281.14 148.616 280.868 150.053 280.868V278.868C148.356 278.868 146.785 279.191 145.355 279.854L146.196 281.668ZM150.053 280.868C152.656 280.868 154.621 281.566 156.055 282.865L157.398 281.383C155.511 279.674 153.026 278.868 150.053 278.868V280.868ZM156.07 282.878C157.458 284.086 158.265 286.13 158.265 289.268H160.265C160.265 285.826 159.379 283.107 157.383 281.37L156.07 282.878ZM158.265 289.268V306H160.265V289.268H158.265ZM159.265 305H152.262V307H159.265V305ZM153.262 306V291.007H151.262V306H153.262ZM153.262 291.007C153.262 289.063 152.904 287.423 152.029 286.25C151.113 285.021 149.75 284.461 148.126 284.461V286.461C149.258 286.461 149.963 286.825 150.426 287.445C150.93 288.121 151.262 289.254 151.262 291.007H153.262ZM148.126 284.461C145.768 284.461 143.916 285.312 142.88 287.186L144.63 288.154C145.222 287.083 146.284 286.461 148.126 286.461V284.461ZM142.876 287.192C141.977 288.847 141.58 291.126 141.58 293.921H143.58C143.58 291.264 143.966 289.376 144.633 288.148L142.876 287.192ZM141.58 293.921V306H143.58V293.921H141.58ZM142.58 305H135.577V307H142.58V305ZM136.577 306V270.28H134.577V306H136.577ZM135.577 271.28H142.58V269.28H135.577V271.28ZM141.58 270.28V277.565H143.58V270.28H141.58ZM191.423 280.338H192.423V279.338H191.423V280.338ZM191.423 306V307H192.423V306H191.423ZM186.065 306L185.104 306.275L185.311 307H186.065V306ZM185.125 302.71L186.087 302.435L185.88 301.71H185.125V302.71ZM184.749 302.71V301.71H184.192L183.899 302.184L184.749 302.71ZM181.365 305.577L180.984 304.653L180.976 304.656L181.365 305.577ZM170.226 304.261L169.555 305.002L169.563 305.009L170.226 304.261ZM167.735 280.338V279.338H166.735V280.338H167.735ZM174.738 280.338H175.738V279.338H174.738V280.338ZM175.725 299.467L176.545 298.894L176.545 298.894L175.725 299.467ZM183.245 298.715L184.124 299.193L184.128 299.185L183.245 298.715ZM184.42 280.338V279.338H183.42V280.338H184.42ZM190.423 280.338V306H192.423V280.338H190.423ZM191.423 305H186.065V307H191.423V305ZM187.027 305.725L186.087 302.435L184.164 302.985L185.104 306.275L187.027 305.725ZM185.125 301.71H184.749V303.71H185.125V301.71ZM183.899 302.184C183.196 303.32 182.232 304.137 180.984 304.653L181.747 306.501C183.381 305.826 184.673 304.732 185.6 303.236L183.899 302.184ZM180.976 304.656C179.695 305.197 178.324 305.47 176.853 305.47V307.47C178.579 307.47 180.216 307.148 181.754 306.498L180.976 304.656ZM176.853 305.47C174.279 305.47 172.326 304.787 170.89 303.513L169.563 305.009C171.448 306.681 173.913 307.47 176.853 307.47V305.47ZM170.898 303.52C169.528 302.28 168.735 300.212 168.735 297.07H166.735C166.735 300.508 167.603 303.234 169.555 305.002L170.898 303.52ZM168.735 297.07V280.338H166.735V297.07H168.735ZM167.735 281.338H174.738V279.338H167.735V281.338ZM173.738 280.338V295.331H175.738V280.338H173.738ZM173.738 295.331C173.738 297.243 174.08 298.86 174.906 300.04L176.545 298.894C176.055 298.194 175.738 297.054 175.738 295.331H173.738ZM174.906 300.04C175.799 301.316 177.2 301.877 178.874 301.877V299.877C177.666 299.877 176.967 299.498 176.545 298.894L174.906 300.04ZM178.874 301.877C181.244 301.877 183.112 301.054 184.124 299.193L182.367 298.237C181.812 299.259 180.766 299.877 178.874 299.877V301.877ZM184.128 299.185C185.022 297.503 185.42 295.214 185.42 292.417H183.42C183.42 295.072 183.035 296.981 182.362 298.245L184.128 299.185ZM185.42 292.417V280.338H183.42V292.417H185.42ZM184.42 281.338H191.423V279.338H184.42V281.338ZM201.727 303.321L201.009 304.017L201.015 304.023L201.02 304.028L201.727 303.321ZM200.223 285.649L199.343 285.174L199.343 285.174L200.223 285.649ZM204.641 281.278L204.2 280.381L204.194 280.384L204.641 281.278ZM215.78 280.385L215.521 281.351L215.527 281.352L215.78 280.385ZM219.211 281.607L220.145 281.964L220.473 281.107L219.646 280.707L219.211 281.607ZM217.143 287.012L216.772 287.94L217.714 288.318L218.077 287.369L217.143 287.012ZM214.041 285.931L213.754 286.889L213.762 286.891L214.041 285.931ZM207.179 298.95L206.386 299.56L206.391 299.566L206.396 299.572L207.179 298.95ZM215.122 300.219L215.438 301.168L215.45 301.164L215.462 301.16L215.122 300.219ZM218.412 298.574H219.412V296.736L217.869 297.734L218.412 298.574ZM218.412 304.543L218.955 305.383L219.412 305.087V304.543H218.412ZM215.028 306L214.797 305.027L214.782 305.031L214.767 305.035L215.028 306ZM210.61 305.47C206.973 305.47 204.296 304.476 202.434 302.614L201.02 304.028C203.356 306.365 206.602 307.47 210.61 307.47V305.47ZM202.444 302.625C200.634 300.759 199.625 297.728 199.625 293.31H197.625C197.625 297.979 198.684 301.622 201.009 304.017L202.444 302.625ZM199.625 293.31C199.625 290.28 200.141 287.906 201.103 286.124L199.343 285.174C198.174 287.34 197.625 290.073 197.625 293.31H199.625ZM201.103 286.124C202.078 284.318 203.405 283.014 205.088 282.172L204.194 280.384C202.117 281.422 200.499 283.032 199.343 285.174L201.103 286.124ZM205.082 282.175C206.836 281.313 208.874 280.868 211.221 280.868V278.868C208.617 278.868 206.269 279.363 204.2 280.381L205.082 282.175ZM211.221 280.868C212.914 280.868 214.343 281.035 215.521 281.351L216.039 279.419C214.648 279.046 213.037 278.868 211.221 278.868V280.868ZM215.527 281.352C216.795 281.685 217.875 282.072 218.775 282.507L219.646 280.707C218.604 280.202 217.397 279.775 216.033 279.418L215.527 281.352ZM218.277 281.25L216.209 286.655L218.077 287.369L220.145 281.964L218.277 281.25ZM217.514 286.084C216.392 285.635 215.327 285.263 214.32 284.971L213.762 286.891C214.697 287.163 215.7 287.512 216.772 287.94L217.514 286.084ZM214.328 284.973C213.299 284.664 212.262 284.508 211.221 284.508V286.508C212.059 286.508 212.903 286.634 213.754 286.889L214.328 284.973ZM211.221 284.508C209.134 284.508 207.44 285.27 206.314 286.872C205.233 288.409 204.769 290.591 204.769 293.263H206.769C206.769 290.765 207.214 289.069 207.95 288.022C208.641 287.039 209.673 286.508 211.221 286.508V284.508ZM204.769 293.263C204.769 295.919 205.248 298.08 206.386 299.56L207.972 298.34C207.23 297.376 206.769 295.746 206.769 293.263H204.769ZM206.396 299.572C207.579 301.06 209.229 301.783 211.221 301.783V299.783C209.766 299.783 208.722 299.284 207.962 298.328L206.396 299.572ZM211.221 301.783C212.776 301.783 214.187 301.585 215.438 301.168L214.806 299.27C213.801 299.605 212.611 299.783 211.221 299.783V301.783ZM215.462 301.16C216.665 300.725 217.83 300.142 218.955 299.414L217.869 297.734C216.863 298.385 215.835 298.898 214.782 299.278L215.462 301.16ZM217.412 298.574V304.543H219.412V298.574H217.412ZM217.869 303.703C216.896 304.333 215.873 304.772 214.797 305.027L215.258 306.973C216.564 306.664 217.798 306.132 218.955 305.383L217.869 303.703ZM214.767 305.035C213.723 305.317 212.346 305.47 210.61 305.47V307.47C212.446 307.47 214.014 307.31 215.289 306.965L214.767 305.035ZM238.795 300.642L238.582 299.665L238.582 299.665L238.795 300.642ZM240.957 300.078H241.957V298.728L240.665 299.121L240.957 300.078ZM240.957 305.295L241.341 306.218L241.957 305.962V305.295H240.957ZM238.137 306.094L237.946 305.112L237.93 305.116L237.914 305.119L238.137 306.094ZM230.382 305.718L229.993 306.64L230.002 306.643L230.382 305.718ZM227.515 303.133L226.638 303.615L226.646 303.628L226.653 303.641L227.515 303.133ZM226.481 285.602H227.481V284.602H226.481V285.602ZM223.144 285.602H222.144V286.602H223.144V285.602ZM223.144 282.641L222.623 281.787L222.144 282.08V282.641H223.144ZM226.998 280.291L227.518 281.145L227.813 280.965L227.934 280.641L226.998 280.291ZM229.019 274.886V273.886H228.325L228.082 274.536L229.019 274.886ZM233.484 274.886H234.484V273.886H233.484V274.886ZM233.484 280.338H232.484V281.338H233.484V280.338ZM240.675 280.338H241.675V279.338H240.675V280.338ZM240.675 285.602V286.602H241.675V285.602H240.675ZM233.484 285.602V284.602H232.484V285.602H233.484ZM234.33 300.172L233.665 300.919L233.677 300.93L233.689 300.94L234.33 300.172ZM236.539 301.877C237.389 301.877 238.212 301.792 239.007 301.619L238.582 299.665C237.935 299.805 237.255 299.877 236.539 299.877V301.877ZM239.007 301.619C239.755 301.457 240.502 301.262 241.248 301.035L240.665 299.121C239.97 299.333 239.276 299.514 238.582 299.665L239.007 301.619ZM239.957 300.078V305.295H241.957V300.078H239.957ZM240.572 304.372C239.902 304.651 239.032 304.901 237.946 305.112L238.327 307.076C239.497 306.848 240.507 306.566 241.341 306.218L240.572 304.372ZM237.914 305.119C236.901 305.351 235.771 305.47 234.518 305.47V307.47C235.896 307.47 237.178 307.339 238.359 307.069L237.914 305.119ZM234.518 305.47C233.091 305.47 231.845 305.237 230.761 304.793L230.002 306.643C231.362 307.201 232.873 307.47 234.518 307.47V305.47ZM230.77 304.796C229.797 304.387 228.999 303.681 228.376 302.625L226.653 303.641C227.472 305.029 228.585 306.047 229.993 306.64L230.77 304.796ZM228.391 302.651C227.815 301.604 227.481 300.07 227.481 297.963H225.481C225.481 300.243 225.836 302.156 226.638 303.615L228.391 302.651ZM227.481 297.963V285.602H225.481V297.963H227.481ZM226.481 284.602H223.144V286.602H226.481V284.602ZM224.144 285.602V282.641H222.144V285.602H224.144ZM223.664 283.495L227.518 281.145L226.477 279.437L222.623 281.787L223.664 283.495ZM227.934 280.641L229.955 275.236L228.082 274.536L226.061 279.941L227.934 280.641ZM229.019 275.886H233.484V273.886H229.019V275.886ZM232.484 274.886V280.338H234.484V274.886H232.484ZM233.484 281.338H240.675V279.338H233.484V281.338ZM239.675 280.338V285.602H241.675V280.338H239.675ZM240.675 284.602H233.484V286.602H240.675V284.602ZM232.484 285.602V297.963H234.484V285.602H232.484ZM232.484 297.963C232.484 299.133 232.83 300.177 233.665 300.919L234.994 299.425C234.701 299.164 234.484 298.736 234.484 297.963H232.484ZM233.689 300.94C234.473 301.593 235.453 301.877 236.539 301.877V299.877C235.806 299.877 235.314 299.691 234.97 299.404L233.689 300.94ZM254.379 281.184L253.383 281.103L253.382 281.117L253.381 281.13L254.379 281.184ZM254.191 283.628L253.2 283.496L253.049 284.628H254.191V283.628ZM254.567 283.628V284.628H255.124L255.418 284.154L254.567 283.628ZM257.716 280.761L258.137 281.668L258.137 281.668L257.716 280.761ZM268.667 282.124L267.996 282.865L268.003 282.872L268.011 282.878L268.667 282.124ZM271.205 306V307H272.205V306H271.205ZM264.202 306H263.202V307H264.202V306ZM255.695 287.67L254.82 287.186L254.817 287.192L255.695 287.67ZM254.52 306V307H255.52V306H254.52ZM247.517 306H246.517V307H247.517V306ZM247.517 270.28V269.28H246.517V270.28H247.517ZM254.52 270.28H255.52V269.28H254.52V270.28ZM253.52 277.565C253.52 278.793 253.474 279.973 253.383 281.103L255.376 281.265C255.472 280.077 255.52 278.843 255.52 277.565H253.52ZM253.381 281.13C253.318 282.29 253.257 283.069 253.2 283.496L255.183 283.76C255.251 283.247 255.315 282.397 255.378 281.238L253.381 281.13ZM254.191 284.628H254.567V282.628H254.191V284.628ZM255.418 284.154C256.139 282.989 257.046 282.174 258.137 281.668L257.296 279.854C255.817 280.539 254.625 281.635 253.717 283.102L255.418 284.154ZM258.137 281.668C259.276 281.14 260.556 280.868 261.993 280.868V278.868C260.297 278.868 258.726 279.191 257.296 279.854L258.137 281.668ZM261.993 280.868C264.597 280.868 266.561 281.566 267.996 282.865L269.339 281.383C267.452 279.674 264.967 278.868 261.993 278.868V280.868ZM268.011 282.878C269.399 284.086 270.205 286.13 270.205 289.268H272.205C272.205 285.826 271.32 283.107 269.324 281.37L268.011 282.878ZM270.205 289.268V306H272.205V289.268H270.205ZM271.205 305H264.202V307H271.205V305ZM265.202 306V291.007H263.202V306H265.202ZM265.202 291.007C265.202 289.063 264.845 287.423 263.97 286.25C263.054 285.021 261.691 284.461 260.066 284.461V286.461C261.199 286.461 261.904 286.825 262.367 287.445C262.87 288.121 263.202 289.254 263.202 291.007H265.202ZM260.066 284.461C257.709 284.461 255.857 285.312 254.82 287.186L256.57 288.154C257.163 287.083 258.225 286.461 260.066 286.461V284.461ZM254.817 287.192C253.918 288.847 253.52 291.126 253.52 293.921H255.52C255.52 291.264 255.907 289.376 256.574 288.148L254.817 287.192ZM253.52 293.921V306H255.52V293.921H253.52ZM254.52 305H247.517V307H254.52V305ZM248.517 306V270.28H246.517V306H248.517ZM247.517 271.28H254.52V269.28H247.517V271.28ZM253.52 270.28V277.565H255.52V270.28H253.52ZM303.364 280.338H304.364V279.338H303.364V280.338ZM303.364 306V307H304.364V306H303.364ZM298.006 306L297.045 306.275L297.252 307H298.006V306ZM297.066 302.71L298.028 302.435L297.82 301.71H297.066V302.71ZM296.69 302.71V301.71H296.133L295.84 302.184L296.69 302.71ZM293.306 305.577L292.924 304.653L292.917 304.656L293.306 305.577ZM282.167 304.261L281.496 305.002L281.504 305.009L282.167 304.261ZM279.676 280.338V279.338H278.676V280.338H279.676ZM286.679 280.338H287.679V279.338H286.679V280.338ZM287.666 299.467L288.485 298.894L288.485 298.894L287.666 299.467ZM295.186 298.715L296.065 299.193L296.069 299.185L295.186 298.715ZM296.361 280.338V279.338H295.361V280.338H296.361ZM302.364 280.338V306H304.364V280.338H302.364ZM303.364 305H298.006V307H303.364V305ZM298.968 305.725L298.028 302.435L296.105 302.985L297.045 306.275L298.968 305.725ZM297.066 301.71H296.69V303.71H297.066V301.71ZM295.84 302.184C295.137 303.32 294.173 304.137 292.924 304.653L293.688 306.501C295.322 305.826 296.614 304.732 297.54 303.236L295.84 302.184ZM292.917 304.656C291.636 305.197 290.264 305.47 288.794 305.47V307.47C290.52 307.47 292.157 307.148 293.695 306.498L292.917 304.656ZM288.794 305.47C286.22 305.47 284.267 304.787 282.831 303.513L281.504 305.009C283.389 306.681 285.854 307.47 288.794 307.47V305.47ZM282.838 303.52C281.469 302.28 280.676 300.212 280.676 297.07H278.676C278.676 300.508 279.544 303.234 281.496 305.002L282.838 303.52ZM280.676 297.07V280.338H278.676V297.07H280.676ZM279.676 281.338H286.679V279.338H279.676V281.338ZM285.679 280.338V295.331H287.679V280.338H285.679ZM285.679 295.331C285.679 297.243 286.021 298.86 286.847 300.04L288.485 298.894C287.995 298.194 287.679 297.054 287.679 295.331H285.679ZM286.847 300.04C287.74 301.316 289.141 301.877 290.815 301.877V299.877C289.606 299.877 288.908 299.498 288.485 298.894L286.847 300.04ZM290.815 301.877C293.185 301.877 295.053 301.054 296.065 299.193L294.307 298.237C293.752 299.259 292.707 299.877 290.815 299.877V301.877ZM296.069 299.185C296.963 297.503 297.361 295.214 297.361 292.417H295.361C295.361 295.072 294.976 296.981 294.303 298.245L296.069 299.185ZM297.361 292.417V280.338H295.361V292.417H297.361ZM296.361 281.338H303.364V279.338H296.361V281.338ZM318.227 306L317.292 306.356L317.538 307H318.227V306ZM308.451 280.338V279.338H307L307.516 280.694L308.451 280.338ZM315.783 280.338L316.73 280.018L316.501 279.338H315.783V280.338ZM320.718 294.955L321.67 294.649L321.668 294.642L321.665 294.635L320.718 294.955ZM321.376 297.681L320.389 297.845L320.392 297.861L320.395 297.877L321.376 297.681ZM321.705 300.219L320.706 300.261L320.746 301.219H321.705V300.219ZM321.893 300.219V301.219H322.839L322.891 300.274L321.893 300.219ZM322.927 294.955L321.979 294.635L321.976 294.644L322.927 294.955ZM327.862 280.338V279.338H327.144L326.914 280.018L327.862 280.338ZM335.194 280.338L336.128 280.694L336.645 279.338H335.194V280.338ZM325.418 306V307H326.107L326.352 306.356L325.418 306ZM319.161 305.644L309.385 279.982L307.516 280.694L317.292 306.356L319.161 305.644ZM308.451 281.338H315.783V279.338H308.451V281.338ZM314.835 280.658L319.77 295.275L321.665 294.635L316.73 280.018L314.835 280.658ZM319.766 295.261C320.032 296.09 320.24 296.952 320.389 297.845L322.362 297.517C322.198 296.53 321.967 295.574 321.67 294.649L319.766 295.261ZM320.395 297.877C320.576 298.779 320.677 299.572 320.706 300.261L322.704 300.177C322.67 299.362 322.552 298.463 322.356 297.485L320.395 297.877ZM321.705 301.219H321.893V299.219H321.705V301.219ZM322.891 300.274C322.98 298.68 323.305 297.011 323.877 295.266L321.976 294.644C321.357 296.533 320.994 298.374 320.894 300.164L322.891 300.274ZM323.874 295.275L328.809 280.658L326.914 280.018L321.979 294.635L323.874 295.275ZM327.862 281.338H335.194V279.338H327.862V281.338ZM334.259 279.982L324.483 305.644L326.352 306.356L336.128 280.694L334.259 279.982ZM325.418 305H318.227V307H325.418V305ZM346.49 271.032L345.935 271.864L345.947 271.872L345.96 271.88L346.49 271.032ZM346.49 276.39L345.935 275.558L345.935 275.558L346.49 276.39ZM341.085 276.39L340.513 277.211L340.522 277.217L340.53 277.222L341.085 276.39ZM341.085 271.032L341.631 271.87L341.639 271.864L341.085 271.032ZM347.289 280.338H348.289V279.338H347.289V280.338ZM347.289 306V307H348.289V306H347.289ZM340.286 306H339.286V307H340.286V306ZM340.286 280.338V279.338H339.286V280.338H340.286ZM343.811 271.28C344.676 271.28 345.37 271.487 345.935 271.864L347.044 270.2C346.105 269.574 345.013 269.28 343.811 269.28V271.28ZM345.96 271.88C346.294 272.089 346.618 272.56 346.618 273.711H348.618C348.618 272.23 348.189 270.915 347.02 270.184L345.96 271.88ZM346.618 273.711C346.618 274.814 346.302 275.313 345.935 275.558L347.044 277.222C348.181 276.464 348.618 275.178 348.618 273.711H346.618ZM345.935 275.558C345.37 275.935 344.676 276.142 343.811 276.142V278.142C345.013 278.142 346.105 277.848 347.044 277.222L345.935 275.558ZM343.811 276.142C342.907 276.142 342.199 275.931 341.639 275.558L340.53 277.222C341.474 277.851 342.584 278.142 343.811 278.142V276.142ZM341.656 275.569C341.313 275.331 341.004 274.829 341.004 273.711H339.004C339.004 275.162 339.415 276.446 340.513 277.211L341.656 275.569ZM341.004 273.711C341.004 272.544 341.321 272.071 341.631 271.87L340.538 270.194C339.406 270.933 339.004 272.246 339.004 273.711H341.004ZM341.639 271.864C342.199 271.491 342.907 271.28 343.811 271.28V269.28C342.584 269.28 341.474 269.571 340.53 270.2L341.639 271.864ZM346.289 280.338V306H348.289V280.338H346.289ZM347.289 305H340.286V307H347.289V305ZM341.286 306V280.338H339.286V306H341.286ZM340.286 281.338H347.289V279.338H340.286V281.338ZM356.204 299.702L356.788 300.514L356.799 300.506L356.809 300.498L356.204 299.702ZM361.891 299.702L361.286 300.498L361.296 300.506L361.306 300.514L361.891 299.702ZM361.891 305.718L362.496 306.514L362.506 306.507L362.515 306.499L361.891 305.718ZM356.204 305.718L355.579 306.499L355.589 306.507L355.599 306.514L356.204 305.718ZM356.029 302.71C356.029 301.424 356.376 300.81 356.788 300.514L355.619 298.89C354.465 299.722 354.029 301.113 354.029 302.71H356.029ZM356.809 300.498C357.393 300.054 358.128 299.809 359.071 299.809V297.809C357.758 297.809 356.581 298.159 355.599 298.906L356.809 300.498ZM359.071 299.809C359.975 299.809 360.696 300.05 361.286 300.498L362.496 298.906C361.519 298.163 360.36 297.809 359.071 297.809V299.809ZM361.306 300.514C361.718 300.81 362.066 301.424 362.066 302.71H364.066C364.066 301.113 363.63 299.722 362.475 298.89L361.306 300.514ZM362.066 302.71C362.066 303.905 361.732 304.565 361.266 304.937L362.515 306.499C363.616 305.618 364.066 304.272 364.066 302.71H362.066ZM361.286 304.922C360.696 305.37 359.975 305.611 359.071 305.611V307.611C360.36 307.611 361.519 307.257 362.496 306.514L361.286 304.922ZM359.071 305.611C358.128 305.611 357.393 305.366 356.809 304.922L355.599 306.514C356.581 307.261 357.758 307.611 359.071 307.611V305.611ZM356.828 304.937C356.363 304.565 356.029 303.905 356.029 302.71H354.029C354.029 304.272 354.478 305.618 355.579 306.499L356.828 304.937ZM390.756 302.992L390.039 302.295L390.035 302.3L390.756 302.992ZM375.246 304.919L374.758 305.792L374.764 305.795L375.246 304.919ZM370.875 300.407L369.992 300.876L369.995 300.882L370.875 300.407ZM372.614 283.299L373.331 283.996L373.331 283.996L372.614 283.299ZM388.171 281.419L387.683 282.292L387.683 282.292L388.171 281.419ZM392.542 285.931L391.662 286.406L391.665 286.412L392.542 285.931ZM377.643 298.903L376.793 299.429L376.8 299.441L376.808 299.453L377.643 298.903ZM385.727 298.903L384.886 298.362L384.883 298.367L385.727 298.903ZM385.727 287.435L384.883 287.971L384.89 287.983L384.898 287.994L385.727 287.435ZM377.643 287.435L376.808 286.885L376.805 286.89L377.643 287.435ZM393.14 293.122C393.14 297.208 392.062 300.216 390.039 302.295L391.473 303.689C393.962 301.131 395.14 297.558 395.14 293.122H393.14ZM390.035 302.3C388.035 304.383 385.278 305.47 381.638 305.47V307.47C385.706 307.47 389.027 306.238 391.478 303.684L390.035 302.3ZM381.638 305.47C379.406 305.47 377.445 304.987 375.728 304.043L374.764 305.795C376.808 306.919 379.107 307.47 381.638 307.47V305.47ZM375.734 304.046C374.061 303.111 372.736 301.749 371.755 299.932L369.995 300.882C371.145 303.013 372.734 304.659 374.758 305.792L375.734 304.046ZM371.758 299.938C370.787 298.109 370.277 295.851 370.277 293.122H368.277C368.277 296.096 368.833 298.694 369.992 300.876L371.758 299.938ZM370.277 293.122C370.277 289.031 371.342 286.041 373.331 283.996L371.897 282.602C369.437 285.132 368.277 288.69 368.277 293.122H370.277ZM373.331 283.996C375.328 281.943 378.101 280.868 381.779 280.868V278.868C377.687 278.868 374.35 280.08 371.897 282.602L373.331 283.996ZM381.779 280.868C384.045 280.868 386.003 281.352 387.683 282.292L388.659 280.546C386.642 279.418 384.339 278.868 381.779 278.868V280.868ZM387.683 282.292C389.356 283.227 390.681 284.589 391.662 286.406L393.422 285.456C392.272 283.325 390.684 281.679 388.659 280.546L387.683 282.292ZM391.665 286.412C392.63 288.171 393.14 290.392 393.14 293.122H395.14C395.14 290.15 394.585 287.577 393.419 285.45L391.665 286.412ZM375.421 293.122C375.421 295.739 375.836 297.884 376.793 299.429L378.493 298.377C377.821 297.29 377.421 295.581 377.421 293.122H375.421ZM376.808 299.453C377.882 301.083 379.601 301.83 381.732 301.83V299.83C380.103 299.83 379.097 299.292 378.478 298.353L376.808 299.453ZM381.732 301.83C383.838 301.83 385.532 301.078 386.572 299.439L384.883 298.367C384.293 299.298 383.323 299.83 381.732 299.83V301.83ZM386.568 299.444C387.564 297.895 387.996 295.744 387.996 293.122H385.996C385.996 295.576 385.582 297.279 384.886 298.362L386.568 299.444ZM387.996 293.122C387.996 290.506 387.566 288.372 386.556 286.876L384.898 287.994C385.58 289.005 385.996 290.662 385.996 293.122H387.996ZM386.572 286.899C385.529 285.255 383.815 284.508 381.685 284.508V286.508C383.315 286.508 384.296 287.046 384.883 287.971L386.572 286.899ZM381.685 284.508C379.578 284.508 377.878 285.26 376.808 286.885L378.478 287.985C379.1 287.041 380.095 286.508 381.685 286.508V284.508ZM376.805 286.89C375.834 288.383 375.421 290.511 375.421 293.122H377.421C377.421 290.657 377.823 288.993 378.482 287.98L376.805 286.89ZM416.895 279.915L416.828 280.913L416.828 280.913L416.895 279.915ZM418.023 280.056L419.02 280.134L419.088 279.268L418.24 279.08L418.023 280.056ZM417.506 286.636L417.231 287.598L418.407 287.933L418.503 286.714L417.506 286.636ZM416.519 286.495L416.367 287.483L416.407 287.49L416.448 287.492L416.519 286.495ZM412.007 287.059L412.355 287.996L412.367 287.992L412.378 287.987L412.007 287.059ZM409.328 289.08L408.521 288.489L408.515 288.498L408.509 288.507L409.328 289.08ZM408.341 306V307H409.341V306H408.341ZM401.338 306H400.338V307H401.338V306ZM401.338 280.338V279.338H400.338V280.338H401.338ZM406.649 280.338L407.621 280.105L407.438 279.338H406.649V280.338ZM407.683 284.662L406.71 284.895L406.894 285.662H407.683V284.662ZM408.012 284.662V285.662H408.592L408.88 285.158L408.012 284.662ZM411.114 281.278L411.695 282.092L411.695 282.092L411.114 281.278ZM415.673 280.868C415.989 280.868 416.373 280.882 416.828 280.913L416.961 278.917C416.477 278.885 416.046 278.868 415.673 278.868V280.868ZM416.828 280.913C417.275 280.943 417.594 280.985 417.806 281.032L418.24 279.08C417.887 279.001 417.455 278.95 416.961 278.917L416.828 280.913ZM417.026 279.978L416.509 286.558L418.503 286.714L419.02 280.134L417.026 279.978ZM417.78 285.674C417.459 285.583 417.047 285.53 416.59 285.498L416.448 287.492C416.868 287.523 417.114 287.564 417.231 287.598L417.78 285.674ZM416.671 285.507C416.228 285.438 415.815 285.401 415.438 285.401V287.401C415.687 287.401 415.995 287.426 416.367 287.483L416.671 285.507ZM415.438 285.401C414.121 285.401 412.851 285.644 411.635 286.131L412.378 287.987C413.356 287.596 414.373 287.401 415.438 287.401V285.401ZM411.659 286.122C410.379 286.597 409.327 287.39 408.521 288.489L410.134 289.671C410.707 288.89 411.441 288.336 412.355 287.996L411.659 286.122ZM408.509 288.507C407.693 289.672 407.341 291.182 407.341 292.934H409.341C409.341 291.427 409.647 290.368 410.147 289.653L408.509 288.507ZM407.341 292.934V306H409.341V292.934H407.341ZM408.341 305H401.338V307H408.341V305ZM402.338 306V280.338H400.338V306H402.338ZM401.338 281.338H406.649V279.338H401.338V281.338ZM405.676 280.571L406.71 284.895L408.655 284.429L407.621 280.105L405.676 280.571ZM407.683 285.662H408.012V283.662H407.683V285.662ZM408.88 285.158C409.556 283.976 410.488 282.954 411.695 282.092L410.533 280.464C409.107 281.482 407.972 282.716 407.144 284.166L408.88 285.158ZM411.695 282.092C412.83 281.281 414.143 280.868 415.673 280.868V278.868C413.755 278.868 412.03 279.395 410.533 280.464L411.695 282.092ZM439.377 283.628L438.562 284.208L438.861 284.628H439.377V283.628ZM439.565 283.628V284.628H440.408L440.55 283.797L439.565 283.628ZM440.129 280.338V279.338H439.285L439.143 280.169L440.129 280.338ZM446.051 280.338H447.051V279.338H446.051V280.338ZM442.808 314.413L443.47 315.162L443.47 315.162L442.808 314.413ZM428.144 316.951L428.002 317.941L428.005 317.941L428.144 316.951ZM423.632 315.776H422.632V316.464L423.274 316.71L423.632 315.776ZM423.632 310.183L424.016 309.26L422.632 308.684V310.183H423.632ZM439.095 304.167L438.101 304.057L438.098 304.084L438.096 304.112L439.095 304.167ZM439.236 302.663L440.233 302.734L440.31 301.663H439.236V302.663ZM439.048 302.663V301.663H438.505L438.21 302.117L439.048 302.663ZM435.899 305.577L435.461 304.678L435.461 304.678L435.899 305.577ZM424.619 302.992L423.807 303.576L423.811 303.582L423.816 303.589L424.619 302.992ZM438.202 299.467L437.439 298.82L437.437 298.822L438.202 299.467ZM438.249 287.341L439.064 286.762L439.064 286.762L438.249 287.341ZM431.951 280.868C434.803 280.868 436.97 281.974 438.562 284.208L440.191 283.048C438.211 280.269 435.428 278.868 431.951 278.868V280.868ZM439.377 284.628H439.565V282.628H439.377V284.628ZM440.55 283.797L441.114 280.507L439.143 280.169L438.579 283.459L440.55 283.797ZM440.129 281.338H446.051V279.338H440.129V281.338ZM445.051 280.338V306.047H447.051V280.338H445.051ZM445.051 306.047C445.051 309.509 444.037 311.991 442.145 313.664L443.47 315.162C445.902 313.012 447.051 309.917 447.051 306.047H445.051ZM442.145 313.664C440.235 315.353 437.317 316.28 433.22 316.28V318.28C437.582 318.28 441.056 317.296 443.47 315.162L442.145 313.664ZM433.22 316.28C431.442 316.28 429.797 316.173 428.282 315.961L428.005 317.941C429.624 318.168 431.362 318.28 433.22 318.28V316.28ZM428.285 315.961C426.825 315.752 425.393 315.38 423.989 314.842L423.274 316.71C424.815 317.3 426.392 317.711 428.002 317.941L428.285 315.961ZM424.632 315.776V310.183H422.632V315.776H424.632ZM423.248 311.106C426.537 312.474 430.005 313.157 433.643 313.157V311.157C430.262 311.157 427.056 310.524 424.016 309.26L423.248 311.106ZM433.643 313.157C435.618 313.157 437.279 312.621 438.43 311.38C439.567 310.153 440.048 308.408 440.048 306.329H438.048C438.048 308.135 437.627 309.304 436.963 310.02C436.312 310.722 435.27 311.157 433.643 311.157V313.157ZM440.048 306.329V305.812H438.048V306.329H440.048ZM440.048 305.812C440.048 305.299 440.063 304.769 440.093 304.222L438.096 304.112C438.064 304.693 438.048 305.26 438.048 305.812H440.048ZM440.088 304.277C440.152 303.704 440.201 303.189 440.233 302.734L438.238 302.592C438.208 303.014 438.162 303.502 438.101 304.057L440.088 304.277ZM439.236 301.663H439.048V303.663H439.236V301.663ZM438.21 302.117C437.413 303.341 436.492 304.175 435.461 304.678L436.337 306.476C437.749 305.788 438.928 304.68 439.886 303.209L438.21 302.117ZM435.461 304.678C434.392 305.199 433.166 305.47 431.763 305.47V307.47C433.43 307.47 434.961 307.146 436.337 306.476L435.461 304.678ZM431.763 305.47C429.02 305.47 426.945 304.445 425.421 302.395L423.816 303.589C425.739 306.176 428.426 307.47 431.763 307.47V305.47ZM425.43 302.408C423.904 300.288 423.081 297.262 423.081 293.216H421.081C421.081 297.505 421.949 300.996 423.807 303.576L425.43 302.408ZM423.081 293.216C423.081 289.143 423.933 286.108 425.514 283.991L423.911 282.795C421.982 285.378 421.081 288.892 421.081 293.216H423.081ZM425.514 283.991C427.07 281.908 429.178 280.868 431.951 280.868V278.868C428.582 278.868 425.865 280.178 423.911 282.795L425.514 283.991ZM434.16 284.555C432.203 284.555 430.636 285.351 429.615 286.957C428.642 288.486 428.225 290.651 428.225 293.31H430.225C430.225 290.799 430.63 289.087 431.302 288.031C431.925 287.051 432.826 286.555 434.16 286.555V284.555ZM428.225 293.31C428.225 295.941 428.651 298.088 429.646 299.605C430.689 301.194 432.279 301.971 434.254 301.971V299.971C432.875 299.971 431.951 299.471 431.318 298.507C430.637 297.469 430.225 295.786 430.225 293.31H428.225ZM434.254 301.971C436.222 301.971 437.868 301.413 438.966 300.112L437.437 298.822C436.843 299.526 435.857 299.971 434.254 299.971V301.971ZM438.964 300.114C440.081 298.797 440.518 296.703 440.518 294.109H438.518C438.518 296.591 438.077 298.069 437.439 298.82L438.964 300.114ZM440.518 294.109V293.263H438.518V294.109H440.518ZM440.518 293.263C440.518 290.456 440.097 288.216 439.064 286.762L437.433 287.92C438.092 288.847 438.518 290.556 438.518 293.263H440.518ZM439.064 286.762C437.977 285.233 436.26 284.555 434.16 284.555V286.555C435.819 286.555 436.828 287.068 437.433 287.92L439.064 286.762Z" fill="#2E4E78"/>
</svg>
